<svg xmlns="http://www.w3.org/2000/svg" xmlns:xlink="http://www.w3.org/1999/xlink" viewBox="0 0 501.09 501.09"><defs><style>.cls-1{isolation:isolate;}.cls-2{fill:url(#radial-gradient);}.cls-3{fill:#f9f9f9;}.cls-4{fill:#d6eaf2;}.cls-15,.cls-20,.cls-21,.cls-4{mix-blend-mode:multiply;}.cls-5{fill:#55c3fe;}.cls-6{fill:#179ecc;}.cls-7{fill:#97dfff;}.cls-8{fill:#35afe5;}.cls-9{fill:#e6f7ff;}.cls-10{fill:#fff;}.cls-11{fill:#cbe9f4;}.cls-12{fill:#144682;}.cls-13{fill:#2d5ca0;}.cls-14{fill:#1890c6;}.cls-15{fill:#c4dde8;}.cls-16{fill:#ea4266;}.cls-17{fill:#e5e5e5;}.cls-18{fill:#f4f4f4;}.cls-19{fill:#fe7386;}.cls-20{fill:#ef92a9;}.cls-21{fill:#e2e2e2;}.cls-22{fill:#c7ebf9;}.cls-23{fill:#4c4c4c;}.cls-24{fill:#112f5b;}.cls-25{fill:#164072;}.cls-26{fill:url(#linear-gradient);}.cls-27{fill:url(#linear-gradient-2);}.cls-28{fill:url(#linear-gradient-3);}.cls-29{fill:#32a5c4;}.cls-30{fill:#adf8ff;}.cls-31{fill:#0a253f;}.cls-32{fill:#0b2d4f;}.cls-33{fill:#ffd629;}.cls-34{fill:#fff42c;}.cls-35{fill:#1d6baa;}.cls-36{fill:#155a93;}.cls-37{fill:#227cc6;}.cls-38{fill:#1d76b2;}.cls-39{fill:#11385e;}.cls-40{fill:#0f2c49;}.cls-41{fill:#aaa;}.cls-42{fill:#fcfcfc;}.cls-43{fill:#4f4f4f;}.cls-44{fill:#ffb6c2;}.cls-45{fill:#0b223d;}.cls-46{fill:url(#linear-gradient-4);}.cls-47{fill:url(#linear-gradient-5);}.cls-48{fill:url(#linear-gradient-6);}.cls-49{fill:#ffa9b8;}.cls-50{fill:#ffc0cf;}.cls-51{fill:url(#linear-gradient-7);}.cls-52{fill:url(#linear-gradient-8);}.cls-53{fill:url(#linear-gradient-9);}.cls-54{fill:#fc88a1;}</style><radialGradient id="radial-gradient" cx="250" cy="250" r="250" gradientUnits="userSpaceOnUse"><stop offset="0" stop-color="#fff"/><stop offset="1" stop-color="#e0e0e0"/></radialGradient><linearGradient id="linear-gradient" x1="390.1" y1="167.56" x2="370.24" y2="167.56" gradientTransform="matrix(1.09, -0.17, 0.2, 1.29, -75.92, -22.9)" gradientUnits="userSpaceOnUse"><stop offset="0" stop-color="#ffe2c4"/><stop offset="1" stop-color="#ffb870"/></linearGradient><linearGradient id="linear-gradient-2" x1="367.93" y1="175.42" x2="352.35" y2="177.85" gradientUnits="userSpaceOnUse"><stop offset="0" stop-color="#ffb870"/><stop offset="1" stop-color="#ffe2c4"/></linearGradient><linearGradient id="linear-gradient-3" x1="335.29" y1="168.4" x2="330.38" y2="169.17" xlink:href="#linear-gradient-2"/><linearGradient id="linear-gradient-4" x1="145.19" y1="145.29" x2="176.7" y2="145.29" xlink:href="#linear-gradient-2"/><linearGradient id="linear-gradient-5" x1="128.95" y1="198.01" x2="179.27" y2="198.01" gradientTransform="matrix(1, 0, 0, 1, 0, 0)" xlink:href="#linear-gradient"/><linearGradient id="linear-gradient-6" x1="117.16" y1="207.34" x2="163.18" y2="207.34" gradientTransform="matrix(1, 0, 0, 1, 0, 0)" xlink:href="#linear-gradient"/><linearGradient id="linear-gradient-7" x1="215.71" y1="138.1" x2="195.85" y2="138.1" gradientTransform="matrix(-1.09, -0.17, -0.2, 1.29, 390.3, -22.9)" xlink:href="#linear-gradient"/><linearGradient id="linear-gradient-8" x1="139.63" y1="160.07" x2="134.72" y2="160.84" gradientTransform="matrix(-1, 0, 0, 1, 314.38, 0)" xlink:href="#linear-gradient-2"/><linearGradient id="linear-gradient-9" x1="112.94" y1="154.23" x2="158.07" y2="154.23" xlink:href="#linear-gradient-2"/></defs><title>about2</title><g class="cls-1"><g id="BACKGROUND"><rect class="cls-2" width="500" height="500"/></g><g id="OBJECTS"><rect class="cls-3" width="501.09" height="501.09"/><polyline class="cls-4" points="192.2 239.02 59.28 318.45 141.86 366.21 246.83 324.13 192.63 242.66"/><path class="cls-5" d="M260.24,296.4h0V290l-4.61,2.33-8.11-4.69a10.61,10.61,0,0,0-9.57,0l-81.5,47.06-4.64-2.26v6.35h0c-.1,1.07.55,2.16,2,3L164.53,348a10.61,10.61,0,0,0,9.57,0l84.17-48.6C259.68,298.54,260.33,297.46,260.24,296.4Z"/><path class="cls-6" d="M156.45,334.67l-4.64-2.26v6.35h0c-.1,1.07.55,2.16,2,3L164.53,348a9.78,9.78,0,0,0,4.65,1.14V327.32Z"/><path class="cls-7" d="M164.53,341.16a10.55,10.55,0,0,0,9.57,0l84.17-48.6c2.64-1.52,2.64-4,0-5.52l-10.75-6.21a10.55,10.55,0,0,0-9.57,0l-84.18,48.6c-2.64,1.52-2.64,4,0,5.52Z"/><polygon class="cls-6" points="190.03 324.39 184.16 321.07 184.16 291.05 222.02 269.19 190.03 324.39"/><polygon class="cls-8" points="227.88 302.53 190.03 324.39 190.03 294.37 227.88 272.51 227.88 302.53"/><path class="cls-8" d="M290.24,114l-5.51-3.15a1.28,1.28,0,0,0-.38-.21h0a2.31,2.31,0,0,0-2,.31L124,202.38a6.8,6.8,0,0,0-3.07,5.32V329.36a2.15,2.15,0,0,0,.9,2,1.23,1.23,0,0,0,.26.12l5.48,3.15,1.14-5.93-1.64.68,155.36-89.7a6.78,6.78,0,0,0,3.07-5.33V117.27Z"/><path class="cls-7" d="M284.73,110.81a1.28,1.28,0,0,0-.38-.21h0a2.31,2.31,0,0,0-2,.31L124,202.38a6,6,0,0,0-1.93,1.93l105.9,66.8,54.46-31.44a6.78,6.78,0,0,0,3.07-5.33V117.27l4.78-3.31Z"/><path class="cls-5" d="M291.16,237.6a6.79,6.79,0,0,1-3.08,5.32L129.66,334.39c-1.7,1-3.07.18-3.07-1.78V211a6.78,6.78,0,0,1,3.07-5.33l158.42-91.47c1.7-1,3.08-.18,3.08,1.78Z"/><polygon class="cls-9" points="288.17 228.69 129.57 320.25 129.57 210.74 288.17 119.17 288.17 228.69"/><polygon class="cls-10" points="286.62 120.07 286.62 227.48 129.57 318.15 129.57 320.25 288.17 228.69 288.17 119.17 286.62 120.07"/><polygon class="cls-11" points="273.33 146.08 210.11 182.58 210.11 178.96 273.33 142.46 273.33 146.08"/><polygon class="cls-11" points="273.33 152.55 174.6 209.55 174.6 205.93 273.33 148.93 273.33 152.55"/><polygon class="cls-11" points="273.33 159.02 174.6 216.02 174.6 212.4 273.33 155.4 273.33 159.02"/><polygon class="cls-11" points="273.33 165.49 174.6 222.49 174.6 218.87 273.33 161.87 273.33 165.49"/><polygon class="cls-11" points="273.33 171.96 174.6 228.96 174.6 225.34 273.33 168.34 273.33 171.96"/><polygon class="cls-11" points="273.33 178.43 174.6 235.43 174.6 231.81 273.33 174.81 273.33 178.43"/><polygon class="cls-11" points="273.33 191.37 210.11 227.87 210.11 224.25 273.33 187.75 273.33 191.37"/><polygon class="cls-11" points="273.33 197.84 174.6 254.84 174.6 251.22 273.33 194.22 273.33 197.84"/><polygon class="cls-11" points="273.33 204.31 174.6 261.31 174.6 257.69 273.33 200.69 273.33 204.31"/><polygon class="cls-11" points="273.33 210.78 174.6 267.78 174.6 264.16 273.33 207.16 273.33 210.78"/><polygon class="cls-11" points="273.33 217.25 174.6 274.25 174.6 270.63 273.33 213.63 273.33 217.25"/><polygon class="cls-11" points="221.94 253.39 174.6 280.73 174.6 277.1 221.94 249.77 221.94 253.39"/><polygon class="cls-12" points="426.32 331.71 341.38 282.66 324.96 166.94 341.38 157.56 426.32 206.6 426.32 331.71"/><polygon class="cls-10" points="422.1 329.53 407.85 336.81 325.33 171.18 341 162.22 422.1 209.04 422.1 329.53"/><polygon class="cls-13" points="409.9 341.09 324.96 292.05 324.96 166.94 409.9 215.98 409.9 341.09"/><polygon class="cls-14" points="407.18 342.78 322.24 293.74 305.82 178.01 322.24 168.63 407.18 217.67 407.18 342.78"/><polygon class="cls-10" points="402.96 340.6 388.71 347.88 306.19 182.25 321.86 173.29 402.96 220.11 402.96 340.6"/><polygon class="cls-5" points="390.76 352.16 305.82 303.12 305.82 178.01 390.76 227.06 390.76 352.16"/><polygon class="cls-15" points="305.82 303.12 305.82 178.01 390.76 227.06 305.82 303.12"/><polygon class="cls-16" points="327.5 183.36 320.27 179.28 320.27 163.91 323.88 169.04 327.5 166.66 327.5 183.36"/><polygon class="cls-4" points="251.84 411.19 184.26 372.18 154.77 356.25 260.25 297.66 380.26 349.77 274.01 411.2 251.84 411.19"/><polygon class="cls-12" points="273.11 410.1 194.43 364.68 194.43 347.05 299.98 303.74 378.66 349.16 273.11 410.1"/><polygon class="cls-17" points="299.98 298.07 198.34 345.23 198.34 361.27 273.11 404.44 378.66 343.5 299.98 298.07"/><polygon class="cls-18" points="299.98 293.97 283.13 301.79 283.13 352.29 198.34 352.29 198.34 357.17 273.11 400.34 378.66 339.4 299.98 293.97"/><polygon class="cls-10" points="299.98 290.21 283.13 298.03 283.13 352.29 198.34 352.29 198.34 353.41 273.11 396.58 378.66 335.64 299.98 290.21"/><polygon class="cls-13" points="273.11 392.47 194.43 347.05 299.98 286.11 378.66 331.53 273.11 392.47"/><polygon class="cls-14" points="273.36 386.17 198.61 343.01 198.61 326.26 298.89 285.11 373.64 328.27 273.36 386.17"/><polygon class="cls-17" points="298.89 279.73 202.32 324.53 202.32 339.77 273.36 380.79 373.64 322.89 298.89 279.73"/><polygon class="cls-18" points="298.89 275.83 282.88 283.26 282.88 331.24 202.32 331.24 202.32 335.88 273.36 376.89 373.64 318.99 298.89 275.83"/><polygon class="cls-10" points="298.89 272.26 282.88 279.69 282.88 331.24 202.32 331.24 202.32 332.31 273.36 373.32 373.64 315.42 298.89 272.26"/><polygon class="cls-5" points="273.36 369.42 198.61 326.26 298.89 268.36 373.64 311.52 273.36 369.42"/><polygon class="cls-16" points="273.92 365.11 202.47 323.85 202.47 307.84 298.33 268.51 369.78 309.76 273.92 365.11"/><polygon class="cls-17" points="298.33 263.36 206.02 306.19 206.02 320.76 273.92 359.96 369.78 304.62 298.33 263.36"/><polygon class="cls-18" points="298.33 259.64 283.02 266.74 283.02 312.6 206.02 312.6 206.02 317.04 273.92 356.24 369.78 300.89 298.33 259.64"/><polygon class="cls-10" points="298.33 256.23 283.02 263.33 283.02 312.6 206.02 312.6 206.02 313.62 273.92 352.83 369.78 297.48 298.33 256.23"/><polygon class="cls-19" points="273.92 349.09 202.47 307.84 298.33 252.5 369.78 293.75 273.92 349.09"/><polygon class="cls-20" points="202.47 307.84 259.21 340.6 306.54 313.27 249.81 280.51 202.47 307.84"/><polygon class="cls-20" points="245.26 283.13 298.33 252.5 337.25 274.97 245.26 283.13"/><path class="cls-21" d="M388.69,177c-2.47-3.6.5-28.61-3.05-30.85a10.25,10.25,0,0,0-.06-1.82c.85-.18-16.95-21.06-20.51-17.8s-.78,8.78-.78,8.78.21.93-1.2,1.54a5,5,0,0,0,2.27.29c0,.22.05.43.09.66h0a38.67,38.67,0,0,0,.81,4c.4,1.53.73,2.94,1,4.22-.15.15-.31.29-.46.45,0,0-.06.07-.06.07s-.16.22-.25.32-.38.45-.56.7c-6.36,8.21-4.28,17.85-8.19,21.1a31.51,31.51,0,0,1-8,5l-5.15,1.2L337.41,161l.14,4.29-.14-.19.43,11.11h0c-1.84.18-3.29,6-.22,7.79.19.11,6.73.57,6.9.63l1,7.38-.3,7.14c-4,3.63-7.47,7.71-8.41,11.55-2.55,10.46-1.64,34.7-1.64,34.7l.11.18c-1.27,1-5.79,4.5-6.88,6.09a1.54,1.54,0,0,0-.24.48h0a1.35,1.35,0,0,0,.67,1.61h0l.25.12.12.06.24.07.2.06.24,0,.26,0H331l.36,0,.28,0,.4-.08.29-.07.45-.13.29-.1.53-.2.26-.11c.27-.12.55-.25.83-.4,4.76-2.51,5.77-3.17,6.7-3.7a1.42,1.42,0,0,0,.37-.3l.07-.07a1.75,1.75,0,0,0,.2-.35v0a1.31,1.31,0,0,0,.06-.41s0-.06,0-.09a4.55,4.55,0,0,0,0-.61l.21-.09,4-35.49s6.44,10.59,11.16,8.67c-3,3.75-2.33-1-2.87,2.94-1.48,10.67-1.51,33.88-1.51,33.88l.16.16c-1.55,1.19-5.59,4.38-6.61,5.87a2.15,2.15,0,0,0-.24.48h0a1.34,1.34,0,0,0,.68,1.6h0a1.34,1.34,0,0,0,.24.12l.13.06.23.08.2.05.24.05.27,0,.24,0h.57l.37,0,.27,0,.4-.08.29-.06.45-.14.29-.09.53-.21.26-.1c.27-.12.55-.26.83-.41,4.76-2.51,5.77-3.17,6.7-3.7a1.72,1.72,0,0,0,.38-.29l.06-.08a1,1,0,0,0,.2-.35v0a1.84,1.84,0,0,0,.07-.42v-.09a12.49,12.49,0,0,0-.14-1.39.67.67,0,0,0-.24-.38c.23-.17,4.84-45.71,4.84-45.71s18.89-8.46,21.5-9.87C398.59,195.64,388.69,177,388.69,177Z"/><path class="cls-22" d="M361.35,135s.1-1,2.84,5.07-3.84,25.5-5.4,27.63-21.14,8.14-25.45,1.49c2.69-1.38.09-3.37.62-6.48,8,2.8,15.94-3.57,18.39-5.59C356.42,153.78,354,143.45,361.35,135Z"/><path class="cls-10" d="M330.19,233.81s-5.95,4.5-7.23,6.35,1.5,3.83,6.26,1.32,5.77-3.17,6.69-3.7.75-1.28.58-2.65S330.19,233.81,330.19,233.81Z"/><path class="cls-23" d="M335.91,236.93c-.92.53-1.93,1.19-6.69,3.7-3.58,1.88-6,1.23-6.49,0-.54,1.68,2.14,3.13,6.49.84,4.76-2.51,5.77-3.17,6.69-3.7.71-.41.77-.94.68-1.78A1.24,1.24,0,0,1,335.91,236.93Z"/><path class="cls-24" d="M381.09,176.68S380.88,190.12,369,193a146.45,146.45,0,0,0-24.41,9l-7.79,33.82a6.16,6.16,0,0,1-3.35.54,5.13,5.13,0,0,1-3.71-2.48s-.92-24.24,1.64-34.7S355.3,176.4,355.3,176.4Z"/><path class="cls-10" d="M348.36,245.52s-5.95,4.49-7.22,6.34,1.49,3.83,6.25,1.32,5.77-3.17,6.7-3.7.75-1.28.57-2.64S348.36,245.52,348.36,245.52Z"/><path class="cls-23" d="M354.09,248.63c-.93.53-1.94,1.19-6.7,3.7-3.57,1.89-6,1.24-6.49,0-.53,1.68,2.15,3.13,6.49.84,4.76-2.51,5.77-3.17,6.7-3.7.7-.4.77-.94.68-1.78A1.23,1.23,0,0,1,354.09,248.63Z"/><path class="cls-25" d="M392.85,184.62S394,198,382.48,202.12a146.86,146.86,0,0,0-23.38,11.4l-4.32,32.63a4.81,4.81,0,0,1-3.46,1.28,5.17,5.17,0,0,1-3.73-1.6s-2.67-24.7-1.2-35.37,17.67-23.22,17.67-23.22Z"/><path class="cls-9" d="M353.63,177.52s-1.28-40.15,11-44.84,23.47,6.47,28.26,17.28,3.52,29.62,0,36.61C376.05,198.13,353.15,183.07,353.63,177.52Z"/><path class="cls-10" d="M392.85,150c-4.79-10.81-16-22-28.26-17.28a7,7,0,0,0-1.16.58c9,1.14,16.69,9.8,20.43,18.25,4.79,10.81,3.53,29.62,0,36.61a23.13,23.13,0,0,1-5.19,2.69,24.42,24.42,0,0,0,14.18-4.24C396.37,179.58,397.63,160.77,392.85,150Z"/><path class="cls-26" d="M361.14,114.78s-3.05,4.9-.31,15.52c2.22,8.6,2.55,13.36,6.14,13.73s14.35-2.26,13.18-11.22c1.07-.23,3.25-4.33,1.53-7.59s-2.94.3-2.94.3.07-7.1-4.95-9.69S361.14,114.78,361.14,114.78Z"/><path class="cls-24" d="M372.94,123.32c0-.41-3.83,5-9.95,3.27a3.78,3.78,0,0,0,2.59-2.12,5.43,5.43,0,0,1-5.58,1.81,7.91,7.91,0,0,0,2.23-1.29,6.06,6.06,0,0,1-4.57.34c1.41-.61,1.2-1.54,1.2-1.54s-1.25,1.25-3.67-.87c1-.12.89-4.65,4.45-7.91s6.45-4,11.23-3.22a4.41,4.41,0,0,0-4.09-1.61c1.9-1.07,5.93.84,7.12,2.6,3.71-1.42,10.69,1,8.39,14.55,0-.34-.36-2.54-1.67-3s-2.41,2.16-2.11,2.81a28.64,28.64,0,0,1,.44,4.5l-1.69.89s.52-3.35-.69-4.36S373.17,128.46,372.94,123.32Z"/><polygon class="cls-10" points="331.97 153.59 339.23 163.32 362.67 157.86 361.33 188.16 340 187.9 332.98 179.36 331.97 153.59"/><polygon class="cls-9" points="331.97 149.49 339.23 163.32 340 187.9 332.98 179.36 331.97 149.49"/><path class="cls-27" d="M367.46,174.27s-.72,1.11-2.25,0-2.1-3-3-3.69c-.11,2.41,0,4.1-3,4s-4.93-.47-6.64-.35.33,7.65,9.1,7.82c4.83-.3,6.88-3,6.88-3Z"/><path class="cls-28" d="M332.41,164.7S334,168,335,168.38s.22,5.87-2.84,4.11S330.56,164.88,332.41,164.7Z"/><path class="cls-22" d="M383,148.7s.52-8.25,6.32-5,12,22.84,12,25.49S374.43,185,367,182.15a10.41,10.41,0,0,0-.06-9.05c8.11-2.46,18.51-5.63,20.27-8.28S382.06,159.85,383,148.7Z"/><polygon class="cls-5" points="218.46 441.14 97.21 371.14 97.21 366.57 257.91 413.8 257.91 418.37 218.46 441.14"/><polygon class="cls-8" points="218.46 441.14 97.21 371.14 97.21 366.57 218.46 436.12 218.46 440.69 218.46 441.14"/><polygon class="cls-7" points="218.46 436.57 97.21 366.57 136.66 343.8 257.91 413.8 218.46 436.57"/><polygon class="cls-29" points="140.19 356.61 132.19 351.99 132.19 351.02 145.34 352.65 145.34 353.63 140.19 356.61"/><polygon class="cls-30" points="140.19 355.63 132.19 351.02 137.35 348.04 145.34 352.65 140.19 355.63"/><polygon class="cls-29" points="148.74 361.56 140.75 356.94 140.75 355.96 153.9 357.6 153.9 358.58 148.74 361.56"/><polygon class="cls-30" points="148.74 360.58 140.75 355.96 145.9 352.99 153.9 357.6 148.74 360.58"/><polygon class="cls-29" points="157.3 366.5 149.3 361.89 149.3 360.91 162.45 362.55 162.45 363.53 157.3 366.5"/><polygon class="cls-30" points="157.3 365.52 149.3 360.91 154.46 357.93 162.45 362.55 157.3 365.52"/><polygon class="cls-29" points="165.85 371.45 157.86 366.83 157.86 365.86 171.01 367.49 171.01 368.47 165.85 371.45"/><polygon class="cls-30" points="165.85 370.47 157.86 365.86 163.01 362.88 171.01 367.49 165.85 370.47"/><polygon class="cls-29" points="174.41 376.39 166.41 371.78 166.41 370.8 179.56 372.44 179.56 373.42 174.41 376.39"/><polygon class="cls-30" points="174.41 375.42 166.41 370.8 171.57 367.83 179.56 372.44 174.41 375.42"/><polygon class="cls-29" points="182.96 381.34 174.97 376.73 174.97 375.75 188.12 377.39 188.12 378.37 182.96 381.34"/><polygon class="cls-30" points="182.96 380.36 174.97 375.75 180.12 372.77 188.12 377.39 182.96 380.36"/><polygon class="cls-29" points="191.52 386.29 183.53 381.68 183.53 380.69 196.68 382.33 196.68 383.31 191.52 386.29"/><polygon class="cls-30" points="191.52 385.31 183.53 380.69 188.68 377.72 196.68 382.33 191.52 385.31"/><polygon class="cls-29" points="200.07 391.23 192.08 386.62 192.08 385.64 205.23 387.28 205.23 388.26 200.07 391.23"/><polygon class="cls-30" points="200.07 390.26 192.08 385.64 197.24 382.67 205.23 387.28 200.07 390.26"/><polygon class="cls-29" points="208.63 396.18 200.64 391.57 200.64 390.59 213.79 392.23 213.79 393.2 208.63 396.18"/><polygon class="cls-30" points="208.63 395.2 200.64 390.59 205.79 387.61 213.79 392.23 208.63 395.2"/><polygon class="cls-29" points="217.19 401.13 209.19 396.51 209.19 395.53 222.34 397.17 222.34 398.15 217.19 401.13"/><polygon class="cls-30" points="217.19 400.15 209.19 395.53 214.34 392.56 222.34 397.17 217.19 400.15"/><polygon class="cls-29" points="225.74 406.07 217.75 401.46 217.75 400.48 230.9 402.12 230.9 403.1 225.74 406.07"/><polygon class="cls-30" points="225.74 405.1 217.75 400.48 222.9 397.5 230.9 402.12 225.74 405.1"/><polygon class="cls-29" points="234.3 411.02 226.3 406.41 226.3 405.43 239.45 407.07 239.45 408.05 234.3 411.02"/><polygon class="cls-30" points="234.3 410.04 226.3 405.43 231.46 402.45 239.45 407.07 234.3 410.04"/><polygon class="cls-29" points="242.85 415.97 234.86 411.35 234.86 410.38 248.01 412.01 248.01 412.99 242.85 415.97"/><polygon class="cls-30" points="242.85 414.99 234.86 410.38 240.01 407.4 248.01 412.01 242.85 414.99"/><polygon class="cls-29" points="138.17 363.24 125.53 355.84 125.53 354.86 143.33 359.29 143.33 360.26 138.17 363.24"/><polygon class="cls-30" points="138.17 362.26 125.53 354.86 130.68 351.88 143.33 359.29 138.17 362.26"/><polygon class="cls-29" points="146.73 368.18 138.73 363.57 138.73 362.59 151.88 364.23 151.88 365.21 146.73 368.18"/><polygon class="cls-30" points="146.73 367.21 138.73 362.59 143.89 359.62 151.88 364.23 146.73 367.21"/><polygon class="cls-29" points="155.28 373.13 147.29 368.52 147.29 367.54 160.44 369.18 160.44 370.15 155.28 373.13"/><polygon class="cls-30" points="155.28 372.15 147.29 367.54 152.44 364.56 160.44 369.18 155.28 372.15"/><polygon class="cls-29" points="163.84 378.08 155.84 373.46 155.84 372.48 169 374.12 169 375.1 163.84 378.08"/><polygon class="cls-30" points="163.84 377.1 155.84 372.48 161 369.51 169 374.12 163.84 377.1"/><polygon class="cls-29" points="172.39 383.02 164.4 378.41 164.4 377.43 177.55 379.07 177.55 380.05 172.39 383.02"/><polygon class="cls-30" points="172.39 382.05 164.4 377.43 169.56 374.45 177.55 379.07 172.39 382.05"/><polygon class="cls-29" points="180.95 387.97 172.96 383.36 172.96 382.38 186.11 384.02 186.11 385 180.95 387.97"/><polygon class="cls-30" points="180.95 386.99 172.96 382.38 178.11 379.4 186.11 384.02 180.95 386.99"/><polygon class="cls-29" points="189.51 392.92 181.51 388.3 181.51 387.32 194.66 388.96 194.66 389.94 189.51 392.92"/><polygon class="cls-30" points="189.51 391.94 181.51 387.32 186.67 384.35 194.66 388.96 189.51 391.94"/><polygon class="cls-29" points="198.06 397.86 190.07 393.25 190.07 392.27 203.22 393.91 203.22 394.89 198.06 397.86"/><polygon class="cls-30" points="198.06 396.88 190.07 392.27 195.22 389.3 203.22 393.91 198.06 396.88"/><polygon class="cls-29" points="206.62 402.81 198.62 398.19 198.62 397.22 211.77 398.85 211.77 399.83 206.62 402.81"/><polygon class="cls-30" points="206.62 401.83 198.62 397.22 203.78 394.24 211.77 398.85 206.62 401.83"/><polygon class="cls-29" points="215.17 407.76 207.18 403.14 207.18 402.17 220.33 403.8 220.33 404.78 215.17 407.76"/><polygon class="cls-30" points="215.17 406.78 207.18 402.17 212.34 399.19 220.33 403.8 215.17 406.78"/><polygon class="cls-29" points="223.73 412.7 215.74 408.09 215.74 407.11 228.88 408.75 228.88 409.73 223.73 412.7"/><polygon class="cls-30" points="223.73 411.73 215.74 407.11 220.89 404.13 228.88 408.75 223.73 411.73"/><polygon class="cls-29" points="236.15 419.92 224.29 413.04 224.29 412.06 241.31 415.97 241.31 416.94 236.15 419.92"/><polygon class="cls-30" points="236.15 418.94 224.29 412.06 229.44 409.08 241.31 415.97 236.15 418.94"/><polygon class="cls-29" points="128.27 365.29 118.76 359.75 118.76 358.77 132.75 360.94 132.75 361.92 128.27 365.29"/><polygon class="cls-30" points="128.56 364.48 118.76 358.77 123.92 355.8 133.72 361.5 128.56 364.48"/><polygon class="cls-29" points="136.14 369.84 128.15 365.22 128.15 364.24 141.3 365.88 141.3 366.86 136.14 369.84"/><polygon class="cls-30" points="136.14 368.86 128.15 364.24 133.3 361.27 141.3 365.88 136.14 368.86"/><polygon class="cls-29" points="144.7 374.79 136.7 370.17 136.7 369.19 149.86 370.83 149.86 371.81 144.7 374.79"/><polygon class="cls-30" points="144.7 373.81 136.7 369.19 141.86 366.21 149.86 370.83 144.7 373.81"/><polygon class="cls-29" points="153.26 379.73 145.26 375.12 145.26 374.14 158.41 375.78 158.41 376.75 153.26 379.73"/><polygon class="cls-30" points="153.26 378.75 145.26 374.14 150.42 371.16 158.41 375.78 153.26 378.75"/><polygon class="cls-29" points="161.81 384.68 153.82 380.06 153.82 379.08 166.97 380.72 166.97 381.7 161.81 384.68"/><polygon class="cls-30" points="161.81 383.7 153.82 379.08 158.97 376.11 166.97 380.72 161.81 383.7"/><polygon class="cls-29" points="170.37 389.62 162.37 385.01 162.37 384.03 175.52 385.67 175.52 386.65 170.37 389.62"/><polygon class="cls-30" points="170.37 388.65 162.37 384.03 167.53 381.06 175.52 385.67 170.37 388.65"/><polygon class="cls-29" points="178.92 394.57 170.93 389.96 170.93 388.98 184.08 390.62 184.08 391.59 178.92 394.57"/><polygon class="cls-30" points="178.92 393.59 170.93 388.98 176.08 386 184.08 390.62 178.92 393.59"/><polygon class="cls-29" points="187.48 399.52 179.48 394.9 179.48 393.93 192.63 395.56 192.63 396.54 187.48 399.52"/><polygon class="cls-30" points="187.48 398.54 179.48 393.93 184.64 390.95 192.63 395.56 187.48 398.54"/><polygon class="cls-29" points="196.03 404.47 188.04 399.85 188.04 398.87 201.19 400.51 201.19 401.49 196.03 404.47"/><polygon class="cls-30" points="196.03 403.49 188.04 398.87 193.19 395.89 201.19 400.51 196.03 403.49"/><polygon class="cls-29" points="204.59 409.41 196.6 404.8 196.6 403.82 209.75 405.46 209.75 406.43 204.59 409.41"/><polygon class="cls-30" points="204.59 408.43 196.6 403.82 201.75 400.84 209.75 405.46 204.59 408.43"/><polygon class="cls-29" points="213.15 414.36 205.15 409.74 205.15 408.76 218.3 410.4 218.3 411.38 213.15 414.36"/><polygon class="cls-30" points="213.15 413.38 205.15 408.76 210.31 405.79 218.3 410.4 213.15 413.38"/><polygon class="cls-29" points="221.7 419.31 213.71 414.69 213.71 413.71 226.86 415.35 226.86 416.32 221.7 419.31"/><polygon class="cls-30" points="221.7 418.33 213.71 413.71 218.86 410.73 226.86 415.35 221.7 418.33"/><polygon class="cls-29" points="229.39 423.74 222.26 419.63 222.26 418.66 234.54 419.79 234.54 420.77 229.39 423.74"/><polygon class="cls-30" points="229.39 422.77 222.26 418.66 227.42 415.68 234.54 419.79 229.39 422.77"/><polygon class="cls-29" points="125.58 371.52 111.95 363.66 111.95 362.68 130.73 367.57 130.73 368.54 125.58 371.52"/><polygon class="cls-30" points="125.58 370.55 111.95 362.68 117.1 359.71 130.73 367.57 125.58 370.55"/><polygon class="cls-29" points="134.13 376.47 126.14 371.85 126.14 370.87 139.29 372.51 139.29 373.49 134.13 376.47"/><polygon class="cls-30" points="134.13 375.49 126.14 370.87 131.29 367.9 139.29 372.51 134.13 375.49"/><polygon class="cls-29" points="142.69 381.41 134.69 376.8 134.69 375.82 147.84 377.46 147.84 378.44 142.69 381.41"/><polygon class="cls-30" points="142.69 380.44 134.69 375.82 139.85 372.84 147.84 377.46 142.69 380.44"/><polygon class="cls-29" points="151.24 386.36 143.25 381.75 143.25 380.77 156.4 382.41 156.4 383.38 151.24 386.36"/><polygon class="cls-30" points="151.24 385.38 143.25 380.77 148.4 377.79 156.4 382.41 151.24 385.38"/><polygon class="cls-29" points="159.8 391.31 151.8 386.69 151.8 385.71 164.95 387.35 164.95 388.33 159.8 391.31"/><polygon class="cls-30" points="159.8 390.33 151.8 385.71 156.96 382.74 164.95 387.35 159.8 390.33"/><polygon class="cls-29" points="168.35 396.25 160.36 391.64 160.36 390.66 173.51 392.3 173.51 393.28 168.35 396.25"/><polygon class="cls-30" points="168.35 395.27 160.36 390.66 165.51 387.68 173.51 392.3 168.35 395.27"/><polygon class="cls-29" points="176.91 401.2 168.91 396.58 168.91 395.61 182.06 397.25 182.06 398.22 176.91 401.2"/><polygon class="cls-30" points="176.91 400.22 168.91 395.61 174.07 392.63 182.06 397.25 176.91 400.22"/><polygon class="cls-29" points="185.46 406.15 177.47 401.53 177.47 400.55 190.62 402.19 190.62 403.17 185.46 406.15"/><polygon class="cls-30" points="185.46 405.17 177.47 400.55 182.63 397.57 190.62 402.19 185.46 405.17"/><polygon class="cls-29" points="194.02 411.09 186.03 406.48 186.03 405.5 199.18 407.14 199.18 408.12 194.02 411.09"/><polygon class="cls-30" points="194.02 410.12 186.03 405.5 191.18 402.52 199.18 407.14 194.02 410.12"/><polygon class="cls-29" points="202.58 416.04 194.58 411.42 194.58 410.44 207.73 412.08 207.73 413.06 202.58 416.04"/><polygon class="cls-30" points="202.58 415.06 194.58 410.44 199.74 407.47 207.73 412.08 202.58 415.06"/><polygon class="cls-29" points="211.13 420.99 203.14 416.37 203.14 415.39 216.29 417.03 216.29 418.01 211.13 420.99"/><polygon class="cls-30" points="211.13 420.01 203.14 415.39 208.29 412.42 216.29 417.03 211.13 420.01"/><polygon class="cls-29" points="222.7 427.58 211.69 421.32 211.69 420.34 227.86 423.63 227.86 424.61 222.7 427.58"/><polygon class="cls-30" points="222.7 426.61 211.69 420.34 216.85 417.36 227.86 423.63 222.7 426.61"/><polygon class="cls-29" points="114.99 373.17 105.3 367.49 105.3 366.52 120.15 369.22 120.15 370.2 114.99 373.17"/><polygon class="cls-30" points="114.99 372.19 105.3 366.52 110.46 363.54 120.15 369.22 114.99 372.19"/><polygon class="cls-29" points="123.55 378.12 115.55 373.5 115.55 372.53 128.71 374.17 128.71 375.14 123.55 378.12"/><polygon class="cls-30" points="123.55 377.14 115.55 372.53 120.71 369.55 128.71 374.17 123.55 377.14"/><polygon class="cls-29" points="132.1 383.06 124.11 378.45 124.11 377.47 137.26 379.11 137.26 380.09 132.1 383.06"/><polygon class="cls-30" points="132.1 382.09 124.11 377.47 129.27 374.5 137.26 379.11 132.1 382.09"/><polygon class="cls-29" points="183.27 412.72 132.67 383.4 132.67 382.42 188.43 408.77 188.43 409.75 183.27 412.72"/><polygon class="cls-30" points="183.27 411.74 132.67 382.42 137.82 379.44 188.43 408.77 183.27 411.74"/><polygon class="cls-29" points="191.99 417.69 184 413.08 184 412.1 197.15 413.74 197.15 414.72 191.99 417.69"/><polygon class="cls-30" points="191.99 416.71 184 412.1 189.16 409.12 197.15 413.74 191.99 416.71"/><polygon class="cls-29" points="200.55 422.64 192.55 418.02 192.55 417.05 205.71 418.69 205.71 419.66 200.55 422.64"/><polygon class="cls-30" points="200.55 421.66 192.55 417.05 197.71 414.07 205.71 418.69 200.55 421.66"/><polygon class="cls-29" points="209.1 427.58 201.11 422.97 201.11 421.99 214.26 423.63 214.26 424.61 209.1 427.58"/><polygon class="cls-30" points="209.1 426.61 201.11 421.99 206.26 419.02 214.26 423.63 209.1 426.61"/><polygon class="cls-29" points="215.99 431.54 209.66 427.92 209.66 426.94 221.15 427.58 221.15 428.56 215.99 431.54"/><polygon class="cls-30" points="215.99 430.56 209.66 426.94 214.82 423.96 221.15 427.58 215.99 430.56"/><polygon class="cls-4" points="310.34 328.15 310.34 388.61 361.7 406.41 374.52 396.58 310.34 328.15"/><polygon class="cls-7" points="310.34 328.15 332.57 315.27 356.17 332.6 333.94 345.48 310.34 328.15"/><polygon class="cls-5" points="333.93 351.9 356.17 339.01 356.17 332.6 333.94 345.48 333.93 351.9"/><polygon class="cls-7" points="333.93 351.89 356.17 339.01 361.72 342.22 339.49 355.1 333.93 351.89"/><polygon class="cls-5" points="339.49 361.52 361.72 348.63 361.72 342.22 339.49 355.1 339.49 361.52"/><polygon class="cls-7" points="339.49 361.53 361.72 348.64 367.27 351.85 345.04 364.74 339.49 361.53"/><polygon class="cls-5" points="345.04 371.15 367.27 358.27 367.27 351.85 345.04 364.74 345.04 371.15"/><polygon class="cls-7" points="345.04 371.16 367.27 358.28 372.83 361.49 350.6 374.37 345.04 371.16"/><polygon class="cls-5" points="350.59 380.78 372.83 367.9 372.83 361.49 350.6 374.37 350.59 380.78"/><polygon class="cls-7" points="350.59 380.79 372.83 367.91 378.38 371.12 356.15 384 350.59 380.79"/><polygon class="cls-5" points="356.15 390.42 378.38 377.54 378.38 371.12 356.15 384 356.15 390.42"/><polygon class="cls-7" points="356.15 390.43 378.38 377.55 383.94 380.75 361.71 393.64 356.15 390.43"/><polygon class="cls-5" points="361.7 400.05 383.94 387.17 383.94 380.75 361.71 393.64 361.7 400.05"/><polygon class="cls-7" points="361.7 400.06 383.94 387.17 389.49 390.38 367.26 403.26 361.7 400.06"/><polygon class="cls-5" points="367.26 409.68 389.49 396.8 389.49 390.38 367.26 403.26 367.26 409.68"/><polygon class="cls-8" points="356.15 390.37 356.15 383.96 350.59 380.75 350.59 374.29 345.05 371.14 345.05 364.72 339.49 361.52 339.49 355.1 333.94 351.9 333.94 345.48 310.34 328.15 310.34 328.15 361.7 406.41 367.27 409.61 367.27 403.2 361.7 400.05 361.7 393.58 356.15 390.37"/><path class="cls-31" d="M219.5,275.79v27.29c0,5.61,3.71,11.22,11.13,15.5,14.83,8.57,38.88,8.57,53.72,0,7.42-4.28,11.13-9.89,11.13-15.51V275.79Z"/><polygon class="cls-32" points="256.02 311.35 190.91 273.76 190.91 271.95 321.13 271.95 321.13 273.76 256.02 311.35"/><polygon class="cls-25" points="256.02 309.55 190.91 271.95 256.02 234.36 321.13 271.95 256.02 309.55"/><polygon class="cls-33" points="292.01 313.27 289.76 313.27 289.76 290.12 255.52 272.96 256.53 270.95 292.01 288.72 292.01 313.27"/><path class="cls-33" d="M260.68,272.36c0,1.25-1.66,2.26-3.72,2.26s-3.71-1-3.71-2.26,1.66-2.25,3.71-2.25S260.68,271.12,260.68,272.36Z"/><path class="cls-34" d="M293.57,323.62V312.16a2.62,2.62,0,0,0-5.24,0v11.46Z"/><path class="cls-4" d="M126.24,449.9s11.5-.26,25.64-13.33,25.39-19.21,25.39-19.21v-4l39.63-23.26,10-6.63-.29-61.74-15.25,13.89-1.08,38.17L162.42,405Z"/><path class="cls-35" d="M146.75,436c-2.55,3.63-16.73,16.6-20.92,13.66h0c-4.19-2.94,3.21-20.69,5.76-24.31L210.11,313.6c2.54-3.62,8-4.18,12.19-1.23h0c4.19,2.94,5.52,8.26,3,11.89Z"/><path class="cls-36" d="M222.3,312.37a10.27,10.27,0,0,0-2.68-1.36,8,8,0,0,1,.19,9L141.29,431.76c-2,2.79-10.8,11.1-16.69,13.46-.13,2.1.2,3.73,1.23,4.46,4.19,2.94,18.37-10,20.92-13.66l78.52-111.76C227.82,320.63,226.49,315.31,222.3,312.37Z"/><path class="cls-37" d="M134.32,421.47l-2.73,3.9c-2.55,3.62-10,21.37-5.76,24.31s18.37-10,20.92-13.66l2.74-3.9Z"/><path class="cls-38" d="M144.87,428.88l-2,2.82c-2.55,3.62-13.75,19.74-17.94,16.8a2.54,2.54,0,0,0,.88,1.18c4.19,2.94,18.37-10,20.92-13.66l2.74-3.9Z"/><polygon class="cls-25" points="189.82 377.77 178.03 369.49 171.78 365.1 206.04 316.33 224.08 329 189.82 377.77"/><polygon class="cls-39" points="216.31 323.54 182.09 372.24 171.83 365.03 171.78 365.1 178.03 369.49 189.82 377.77 224.08 329 216.31 323.54"/><rect class="cls-40" x="210.85" y="315.18" width="3.45" height="22.04" transform="translate(-176.54 312.62) rotate(-54.91)"/><path class="cls-37" d="M220.09,326.2s8.8,3.42,2.5,13.46-21.66,26.27-23.18,32.58-7.51,5.64-7.68,1.05,5.41-9.49,10.54-16.29,20.79-25.95,14.87-32.87Z"/><polygon class="cls-10" points="366.41 58.13 297.54 85.09 327.23 88.63 366.41 58.13"/><polygon class="cls-7" points="326.75 88.57 331.35 101.42 366.41 58.13 326.75 88.57"/><polygon class="cls-5" points="336.6 91.52 331.35 101.42 366.41 58.13 336.6 91.52"/><polygon class="cls-10" points="366.41 58.13 357.13 103.54 336.6 91.52 366.41 58.13"/><path class="cls-8" d="M324.93,101.86l-1.53-1.29c1.66-2,2.59-3,2.59-3l1.52,1.3Z"/><path class="cls-8" d="M347.8,319.66l-3.09,0,0-2c2.67.05,5.3,0,7.94,0l.06,2C351.1,319.63,349.44,319.66,347.8,319.66Zm-11.12-.33c-2.33-.14-4.73-.33-7.13-.55l-.87-.09.19-2,.87.09c2.38.22,4.75.4,7.06.54Zm24.1-.16-.15-2c2.66-.21,5.32-.48,7.89-.81l.26,2C366.17,318.69,363.48,319,360.78,319.17Zm-40.08-1.43c-2.68-.37-5.35-.81-7.93-1.3l.37-2c2.55.48,5.19.91,7.84,1.28Zm56-.63-.37-2c2.61-.48,5.22-1.05,7.75-1.68l.48,1.94C382,316,379.38,316.62,376.73,317.11Zm-71.82-2.36c-2.64-.65-5.25-1.37-7.75-2.14l.59-1.91c2.47.76,5,1.47,7.64,2.1Zm87.43-1.55-.61-1.9c2.55-.81,5-1.71,7.46-2.67l.74,1.85C397.48,311.46,394.93,312.38,392.34,313.2ZM289.54,310c-2.54-1-5-2.05-7.4-3.18L283,305c2.33,1.11,4.77,2.16,7.27,3.12Zm117.76-2.77-.89-1.8c2.4-1.18,4.73-2.45,6.95-3.78l1,1.71C412.13,304.7,409.74,306,407.3,307.21ZM275,303c-2.35-1.39-4.62-2.88-6.75-4.44l1.17-1.61c2.08,1.51,4.3,3,6.6,4.32Zm146.11-4.16-1.18-1.61c2.14-1.58,4.2-3.26,6.11-5l1.34,1.49A79.58,79.58,0,0,1,421.11,298.87ZM262,293.49a71.76,71.76,0,0,1-5.66-5.79l1.51-1.32a67.84,67.84,0,0,0,5.5,5.63ZM433.08,288l-1.5-1.32a63.63,63.63,0,0,0,4.84-6.2l1.65,1.13A66.36,66.36,0,0,1,433.08,288Zm-181.7-6.74a64.3,64.3,0,0,1-4.11-7l1.79-.9a64,64,0,0,0,4,6.78Zm190.82-6.64-1.79-.9a53.64,53.64,0,0,0,3-7.24l1.9.62A54.65,54.65,0,0,1,442.2,274.62Zm-198.14-7.79a71.07,71.07,0,0,1-2.3-7.77l1.94-.46a69.27,69.27,0,0,0,2.24,7.55Zm203.15-7.64-2-.31a46.42,46.42,0,0,0,.56-7.14v-.65l2,0v.68A49.2,49.2,0,0,1,447.21,259.19Zm-206.87-8.1c-.32-2.63-.52-5.34-.58-8.06l2-.05a78.12,78.12,0,0,0,.57,7.87ZM445,243.32a44.19,44.19,0,0,0-2.12-7.51l1.87-.71A47,47,0,0,1,447,243Zm-203-8.23-2-.14c.19-2.65.5-5.35.93-8l2,.32C242.45,229.86,242.15,232.5,242,235.09Zm197.56-6.34a52.7,52.7,0,0,0-4.44-6.47l1.57-1.25a55.47,55.47,0,0,1,4.6,6.71Zm-195.08-9.26L242.5,219c.64-2.6,1.4-5.2,2.24-7.75l1.9.63C245.81,214.39,245.07,216.94,244.44,219.49Zm5-15-1.84-.79c1.06-2.5,2.23-5,3.48-7.29l1.76.94C251.64,199.65,250.49,202.05,249.45,204.5Zm7.43-13.94-1.68-1.09c1.38-2.12,2.87-4.37,4.44-6.68l1.65,1.12C259.74,186.21,258.25,188.44,256.88,190.56Zm8.95-13.21-1.63-1.15q2.26-3.24,4.65-6.53l1.62,1.17Q268.1,174.13,265.83,177.35Zm9.35-12.95-1.6-1.19q2.37-3.21,4.79-6.42L280,158Q277.56,161.2,275.18,164.4Zm9.62-12.76-1.58-1.22c1.63-2.13,3.27-4.25,4.89-6.34l1.58,1.23C288.07,147.4,286.43,149.51,284.8,151.64ZM294.62,139l-1.57-1.24c1.68-2.13,3.34-4.23,5-6.27l1.56,1.25Zm10-12.49L303,125.27c1.75-2.16,3.43-4.24,5.05-6.22l1.55,1.27C308,122.29,306.33,124.37,304.59,126.53Zm10.11-12.39-1.55-1.28,5.11-6.16L319.8,108C318.28,109.81,316.56,111.87,314.7,114.14Z"/><path class="cls-8" d="M429.65,216.39c-.94-.89-1.93-1.78-2.94-2.62l1.28-1.54c1.05.88,2.07,1.79,3,2.7Z"/><path class="cls-35" d="M120.15,258.87l-1.84-.78a55.26,55.26,0,0,1,2.58-5v4.08C120.67,257.64,120.84,257.26,120.15,258.87Z"/><path class="cls-35" d="M153.14,324.51c-1.25,0-2.54,0-3.84-.11l.11-2a61.73,61.73,0,0,0,8,0l.15,2C156.1,324.46,154.63,324.51,153.14,324.51Zm-12-1a51.87,51.87,0,0,1-8-2l.63-1.89a51.79,51.79,0,0,0,7.69,1.89Zm24.5-.39-.48-1.94a39.67,39.67,0,0,0,7.42-2.62l.86,1.8A41.6,41.6,0,0,1,165.65,323.09Zm-40-5a29.85,29.85,0,0,1-6.49-5.22l1.46-1.37a27.74,27.74,0,0,0,6.06,4.87Zm54.87-2.15-1.25-1.56a34.63,34.63,0,0,0,5.53-5.56l1.57,1.24A36.57,36.57,0,0,1,180.48,315.94Zm-66.07-10a33.14,33.14,0,0,1-2.59-7.9l2-.39a30.19,30.19,0,0,0,2.43,7.42Zm76.37-2.86-1.78-.91a49.25,49.25,0,0,0,3-7.33l1.9.61A51.13,51.13,0,0,1,190.78,303.1ZM111,289.83v-.24a60.31,60.31,0,0,1,.56-8l2,.27a58,58,0,0,0-.55,7.7v.22Zm84.81-2.34-2-.36a74.51,74.51,0,0,0,1-7.92l2,.15A76.53,76.53,0,0,1,195.85,287.49Zm-80.77-13.44-1.94-.48c.62-2.56,1.39-5.2,2.27-7.85l1.9.64C116.44,269,115.69,271.53,115.08,274.05Zm80-2.83c0-2.6-.19-5.29-.44-8l2-.18c.25,2.77.4,5.51.44,8.15Zm-1.42-16c-.41-2.59-.9-5.24-1.48-7.9l2-.42c.58,2.69,1.08,5.39,1.49,8Zm-3.38-15.7c-.69-2.55-1.46-5.14-2.29-7.71l1.9-.61c.84,2.59,1.62,5.21,2.32,7.79Zm-4.86-15.39c-.82-2.57-1.58-5.2-2.26-7.82l1.94-.51c.67,2.59,1.42,5.19,2.22,7.73Zm-4.09-15.76c-.54-2.65-1-5.35-1.41-8l2-.29c.39,2.63.85,5.3,1.39,7.91Zm-2.38-16.11c-.25-2.72-.42-5.45-.51-8.14l2-.06c.09,2.64.26,5.34.5,8Zm1.45-16.23-2-.06c.07-2.75.23-5.48.48-8.14l2,.19C180.63,170.66,180.47,173.35,180.39,176.06Zm1.51-16-2-.33c.45-2.75,1-5.44,1.67-8l1.94.49C182.9,154.77,182.35,157.41,181.9,160.1Zm4-15.48-1.88-.68a72.13,72.13,0,0,1,3.24-7.54l1.79.91A67.82,67.82,0,0,0,185.88,144.62Zm7.22-14.12-1.63-1.16a44.18,44.18,0,0,1,5.37-6.28l1.38,1.44A42.6,42.6,0,0,0,193.1,130.5Zm49.08-9.59a65.48,65.48,0,0,0-7.35-3l.64-1.9a67,67,0,0,1,7.58,3.14Zm-37.74-1.18-1-1.72a33.26,33.26,0,0,1,7.62-3.33l.56,1.92A30.7,30.7,0,0,0,204.44,119.73Zm22.71-3.83a38.44,38.44,0,0,0-7.85-.53l-.08-2a39.77,39.77,0,0,1,8.27.56Z"/><path class="cls-35" d="M252.69,127c-1.11-.75-2.23-1.47-3.33-2.14l1-1.71c1.12.69,2.27,1.43,3.4,2.18Z"/><path class="cls-15" d="M429.19,345.63l-5.54,3-3.87-2.09-37.15,20.12c-5.3,2.87-5.3,7.53,0,10.4l.48.25c5.3,2.87,13.89,2.87,19.19,0l26.89-14.56Z"/><polygon class="cls-41" points="435.4 355.73 452.36 345.94 452.36 341.4 421.99 347.99 435.4 355.73"/><polygon class="cls-42" points="435.4 351.19 452.36 341.4 438.95 333.66 421.99 343.45 435.4 351.19"/><polygon class="cls-41" points="446.28 343.04 448.85 341.56 445.1 339.39 442.53 340.87 446.28 343.04"/><polygon class="cls-43" points="445.1 339.78 442.87 341.07 442.53 340.87 445.1 339.39 448.85 341.56 448.51 341.75 445.1 339.78"/><polygon class="cls-41" points="439.78 339.29 442.35 337.8 438.6 335.64 436.02 337.12 439.78 339.29"/><polygon class="cls-43" points="438.6 336.03 436.37 337.32 436.02 337.12 438.6 335.64 442.35 337.8 442.01 338 438.6 336.03"/><path class="cls-16" d="M386.52,363l3.17,3,.56-.35,53.31-17.51v8L408.7,376.27c-5,2.87-13,2.87-18,0l-.45-.26c-2.57-1.48-3.81-3.45-3.72-5.39h0Z"/><path class="cls-19" d="M390.25,357.58l34.86-20.12,18.45,10.65L408.7,368.24c-5,2.87-13,2.87-18,0l-.45-.26C385.28,365.11,385.28,360.45,390.25,357.58Z"/><path class="cls-44" d="M393.52,365.68a12.18,12.18,0,0,0,11,0c3-1.76,3-4.61,0-6.37a12.18,12.18,0,0,0-11,0C390.47,361.07,390.47,363.92,393.52,365.68Z"/><path class="cls-24" d="M126.6,117.91s-.14,7.17,3.61,8.74c3-.61-.36-8.34-.36-8.34Z"/><path class="cls-21" d="M172.43,175.66a3.14,3.14,0,0,0,1.21-1.27l-2.52,1.42A13.11,13.11,0,0,0,172.43,175.66Z"/><path class="cls-21" d="M181.88,243.82h0a1.75,1.75,0,0,0-.23-.48c-1.1-1.59-5.62-5.11-6.89-6.09a1.59,1.59,0,0,0,.11-.18s.92-24.24-1.64-34.7c-.93-3.83-4.4-7.92-8.41-11.55l-.3-7.14.62-4.51-33.29,18.66c6.16,2.81,13.51,6.1,13.51,6.1s4.6,45.54,4.84,45.71a.64.64,0,0,0-.25.38,12.49,12.49,0,0,0-.14,1.39s0,.06,0,.09a1.42,1.42,0,0,0,.06.42v0a1.19,1.19,0,0,0,.19.35l.07.08a1.64,1.64,0,0,0,.37.29c.93.53,1.94,1.19,6.7,3.7.28.15.56.29.83.41l.26.1.53.21.29.09.45.14.29.06.4.08.28,0,.36,0h.57l.25,0,.27,0,.23-.05.2-.05.24-.08a.67.67,0,0,0,.12-.06,1.15,1.15,0,0,0,.25-.12,1.33,1.33,0,0,0,.67-1.6h0a1.59,1.59,0,0,0-.24-.49c-1-1.48-5.06-4.67-6.61-5.87L157,249s0-23.21-1.5-33.88c-.55-4,3.44-.29.42-4,4.72,1.92,7.87-7.56,7.87-7.56l4,35.48.21.09c0,.23,0,.43,0,.61v.09a1.85,1.85,0,0,0,.06.42v0a1.13,1.13,0,0,0,.2.35l.06.07a1.48,1.48,0,0,0,.38.3c.92.53,1.93,1.19,6.69,3.7.29.15.57.28.84.4l.26.11.53.2.28.1a4.61,4.61,0,0,0,.46.13l.28.07.41.08.27,0,.36,0h.58l.24,0,.27,0,.23,0,.21-.06.23-.07.13-.06.24-.12A1.34,1.34,0,0,0,181.88,243.82Z"/><path class="cls-45" d="M174.1,184.67s-5.71.46-6.91,5.16c-1,4-2.59,1.6-2.25,2.35s3.2,6.4,5.95,3.9,6.8-5.08,5.24-10.37A3.61,3.61,0,0,0,174.1,184.67Z"/><path class="cls-24" d="M158.57,194.5s-5.71.46-6.91,5.17c-1,4-1,4.2-.67,5s1.63,3.8,4.38,1.3,8.34-3.26,6.77-8.55C161,196.37,158.57,194.5,158.57,194.5Z"/><path class="cls-46" d="M148.69,126.71s-.1-1-2.84,5.07,3.84,25.5,5.4,27.64,21.15,8.13,25.45,1.48c-2.69-1.38-.09-3.37-.62-6.47-8,2.79-19.52-2-22-4.05C150,147,156.08,135.12,148.69,126.71Z"/><path class="cls-19" d="M179.12,225.5s6.68,4.48,8,6.33-1.5,3.83-6.25,1.32-5.78-3.17-6.7-3.7-.86-3.09,0-4.64C174.81,223.61,179.12,225.5,179.12,225.5Z"/><path class="cls-23" d="M174.13,228.6c.92.53,1.94,1.19,6.7,3.7,3.57,1.88,6,1.24,6.48,0,.54,1.68-2.14,3.13-6.48.84-4.76-2.51-5.78-3.17-6.7-3.7-.71-.41-.77-.94-.68-1.78A1.24,1.24,0,0,0,174.13,228.6Z"/><path class="cls-47" d="M129,168.35s.22,13.44,12.09,16.36,27.4,7.47,27.4,7.47l5.93,34s2,2,3.61,1.36a1.94,1.94,0,0,0,1.14-2.05s.83-25.16-1.37-35.7c-1.62-7.8-29.19-19.55-29.19-19.55Z"/><path class="cls-24" d="M176.13,185.71c-6.36-9-21.39-17.64-21.39-17.64l-25.79.28s.22,13.44,12.09,16.36c10.05,2.47,22.48,8.69,25.48,10.08C166.62,189.27,170.82,183.32,176.13,185.71Z"/><path class="cls-19" d="M161.68,237.19s5.95,4.49,7.23,6.34-1.5,3.83-6.26,1.32-5.77-3.17-6.69-3.7-.93-3.34.07-5.13C156.71,234.82,161.68,237.19,161.68,237.19Z"/><path class="cls-23" d="M156,240.3c.92.53,1.93,1.19,6.69,3.7,3.58,1.89,6,1.24,6.49,0,.54,1.68-2.14,3.14-6.49.84-4.76-2.51-5.77-3.17-6.69-3.7-.71-.4-.77-.94-.68-1.77A1.21,1.21,0,0,0,156,240.3Z"/><path class="cls-48" d="M117.19,176.29s-1.14,13.39,10.37,17.5,25.75,9.34,25.75,9.34l2.79,33.72a3.93,3.93,0,0,0,3.29,1.55c2.37,0,2.29-1.21,2.29-1.21s2.52-24.4,1-35.06S146,178.92,146,178.92Z"/><path class="cls-25" d="M162.14,197.37c-4.37-9.31-16.15-18.45-16.15-18.45l-28.8-2.63s-1.14,13.39,10.37,17.5c10.12,3.62,21.76,10.79,24.13,12.21C153.23,200.9,155.58,195.84,162.14,197.37Z"/><path class="cls-49" d="M156.42,169.19s1.28-40.15-11-44.84-23.47,6.47-28.26,17.28-3.52,29.63,0,36.61C134,189.81,156.89,174.74,156.42,169.19Z"/><path class="cls-50" d="M117.19,141.63c4.79-10.81,16-22,28.26-17.28a7.39,7.39,0,0,1,1.16.58c-9,1.15-16.69,9.81-20.43,18.25-4.78,10.81-3.52,29.63,0,36.61a23.6,23.6,0,0,0,5.19,2.7,24.44,24.44,0,0,1-14.18-4.25C113.67,171.26,112.41,152.44,117.19,141.63Z"/><path class="cls-51" d="M148.9,106.46s3.06,4.89.32,15.51c-2.23,8.6-2.56,13.37-6.15,13.73s-14.35-2.26-13.17-11.22c-1.07-.23-3.26-4.33-1.53-7.59s2.93.31,2.93.31-.07-7.11,4.95-9.69S148.9,106.46,148.9,106.46Z"/><path class="cls-24" d="M137.1,115c0-.41,3.83,5,10,3.27a3.78,3.78,0,0,1-2.6-2.12A5.42,5.42,0,0,0,150,118a8.12,8.12,0,0,1-2.23-1.29,6.07,6.07,0,0,0,4.57.34c-1.41-.61-1.2-1.54-1.2-1.54s1.25,1.25,3.68-.87c-1-.12-.89-4.65-4.46-7.91s-6.45-4-11.22-3.21a4.39,4.39,0,0,1,4.09-1.62c-1.91-1.06-5.94.84-7.13,2.61-3.71-1.43-10.69,1-8.38,14.54,0-.34.35-2.53,1.66-3s2.41,2.16,2.11,2.81a29.69,29.69,0,0,0-.43,4.5l1.69.89s-.53-3.35.68-4.36S136.87,120.13,137.1,115Z"/><polygon class="cls-10" points="178.07 145.26 170.81 155 147.37 149.53 148.72 179.83 170.04 179.58 177.06 171.03 178.07 145.26"/><polygon class="cls-9" points="178.07 141.16 170.81 155 170.04 179.58 177.06 171.03 178.07 141.16"/><path class="cls-52" d="M177.63,156.37s-1.61,3.3-2.61,3.68-.22,5.87,2.84,4.11S179.48,156.55,177.63,156.37Z"/><path class="cls-53" d="M157.52,166c-1.71-.12-3.64.29-6.64.35s-2.88-1.64-3-4.05c-.95.7-1.52,2.58-3,3.69s-2.25,0-2.25,0l-.32.25c-10.85-1.92-18.51-4.61-20.23-7.19s3.07-10.63,3.49-17.84c0,0,1-9-4.84-5.75s-7.74,26.46-7.74,29.1,19.45,6.31,29.63,7.24a14,14,0,0,0,5.86,2C157.19,173.6,159.22,166.07,157.52,166Z"/><path class="cls-54" d="M127,140.37s-.52-8.25-6.32-5c-3,1.68-6.05,10.57-8.33,16.34a25.48,25.48,0,0,0,10.89,4.62A27.06,27.06,0,0,0,127,140.37Z"/><path class="cls-54" d="M152.83,110s-.39,5.91-25.18,8.34a7.14,7.14,0,0,1-1.48-3.76,17.33,17.33,0,0,1,.93-8.55c1.17-2.25.89-5.33-.51-6.75s-1.11-4.5,3.75-2.33S147.65,97.44,152.83,110Z"/><path class="cls-10" d="M126.19,114.67s4.62,1.33,13.93-.36,11.64-4.91,11.66-6.52c2.66.09,2.31,3.8,1.95,4.46-1.34,2.46-15.53,8.61-26,6.55A3.06,3.06,0,0,1,126.19,114.67Z"/><circle class="cls-10" cx="125.52" cy="96.42" r="3.54"/></g></g></svg>