<svg xmlns="http://www.w3.org/2000/svg" viewBox="0 0 500 500"><defs><style>.cls-1{fill:#f9f9f9;}.cls-2{opacity:0.5;}.cls-3,.cls-7{fill:#332f2e;}.cls-3{opacity:0.09;}.cls-4{fill:#c2c3c8;}.cls-5{fill:#70a63b;}.cls-6{fill:#a1bc31;}.cls-8{fill:#9bcbee;}.cls-9{fill:#f1e3b4;}.cls-10{fill:#d9a957;}.cls-11{fill:#be2d86;}.cls-12{fill:#e8bb37;}.cls-13{fill:#bb9d6c;}.cls-14{fill:#211915;}.cls-15{fill:#7bbbe8;}.cls-16{fill:#ecedef;}.cls-17{fill:#273a53;}.cls-18{fill:#e2a91f;}.cls-19{fill:#39567d;}.cls-20{fill:#d7d8dc;}.cls-21{opacity:0.4;}.cls-22{fill:#f7f7f8;}</style></defs><title>about1</title><g id="BACKGROUND"><rect class="cls-1" width="500" height="500"/></g><g id="OBJECTS"><g class="cls-2"><path class="cls-3" d="M456.71,398.25c0,3.54-78.31,6.42-199.61,6.42s-219.63-2.88-219.63-6.42,98.33-6.41,219.63-6.41S456.71,394.71,456.71,398.25Z"/></g><path class="cls-4" d="M291.19,131a5,5,0,0,1-1.53-9.68l24.52-7.89a5.65,5.65,0,1,1,3.47,10.76l-15.24,4.91a.67.67,0,0,1-.85-.44.66.66,0,0,1,.43-.84l15.24-4.91a4.33,4.33,0,0,0,2.79-5.42,4.34,4.34,0,0,0-5.42-2.78l-24.53,7.89a3.61,3.61,0,0,0,2.22,6.88l18-5.8a2.93,2.93,0,1,0-1.79-5.57l-11.24,3.62a.67.67,0,0,1-.41-1.28l11.24-3.62a4.27,4.27,0,1,1,2.61,8.13l-18.05,5.8A4.67,4.67,0,0,1,291.19,131Z"/><path class="cls-5" d="M132.36,358s-8.9-10.68-12.75-15.87c-9.39-12.65-18.83-25.9-22.25-41.28,11.92,8.18,23,18.52,28.39,31.94C129,340.88,132.36,358,132.36,358Z"/><path class="cls-5" d="M171.75,384.49C152.91,379.88,139,366.29,128,351c-.47-.65-1.55,0-1.08.63,11.17,15.57,25.34,29.39,44.49,34.08a.62.62,0,0,0,.33-1.2Z"/><path class="cls-5" d="M135.66,361.9c-2.55-4.24-7.6-7.34-12.3-8.88s-9.66-2.14-14.47-3.31a60.84,60.84,0,0,1-16.42-6.31C101.24,357.6,119.34,365.35,135.66,361.9Z"/><path class="cls-5" d="M158.54,380.36s-11.67-.83-17.89-2.19a65.91,65.91,0,0,1-13.71-4.28,30.36,30.36,0,0,1-11.36-8.61c6.06,2,12.63,1.58,18.83,3.05C142.21,370.17,158.54,380.36,158.54,380.36Z"/><path class="cls-5" d="M162.14,382.25s-4.24-10.9-7.37-16.44A66.15,66.15,0,0,0,146.63,354,30.35,30.35,0,0,0,135,345.66c3.66,5.21,5.25,11.6,8.48,17.09C147.59,369.66,162.14,382.25,162.14,382.25Z"/><path class="cls-5" d="M187.63,223.52c1.47-7.58-1.15-16.42-5-23.11s-8.95-12.56-13.29-18.94a94.76,94.76,0,0,1-12.44-24.42C152.26,182.63,165.13,210.48,187.63,223.52Z"/><path class="cls-5" d="M334.77,162.33s4.69-21.15,6.32-31.09c4-24.23,7.6-49.32,1.36-73.06-10.67,19.83-18.67,42.08-16.53,64.5C327.2,136.15,334.77,162.33,334.77,162.33Z"/><path class="cls-5" d="M302.94,240.13c1.44-8.76,4-17,9.41-24.13,4.13-5.46,8.81-10.31,12-16.42,4.57-8.67,6.72-18.37,8.28-28a255.58,255.58,0,0,0,3.39-28.52c0-.8-1.21-.8-1.25,0A251.21,251.21,0,0,1,331.16,173c-1.67,9.91-4.13,20-9.39,28.64-3.3,5.44-7.83,9.9-11.49,15.06-4.88,6.88-7.19,14.83-8.54,23.07-.13.79,1.07,1.13,1.2.34Z"/><path class="cls-5" d="M333.65,163.89c-.24-7.71,3.76-16,8.62-22s10.86-11,16.16-16.56a94.56,94.56,0,0,0,16.19-22.12C375.11,129.2,358,154.63,333.65,163.89Z"/><path class="cls-5" d="M319.26,207.39s14.58-10.94,21.58-18a103.33,103.33,0,0,0,14.36-17.18,47.3,47.3,0,0,0,7.6-20.88c-6.28,7.68-15.2,12.75-22.08,19.9C332.05,180.26,319.26,207.39,319.26,207.39Z"/><path class="cls-5" d="M321.78,203.71s5.27-18.1,5.5-28c.18-7.48-3.5-21.93-15.25-36.15.73,9.9.47,13.28.41,23.2C312.36,175.24,321.78,203.71,321.78,203.71Z"/><path class="cls-6" d="M206.41,158.33s-7.9-10.78-11.29-16c-8.26-12.69-16.54-26-18.91-40.94,11,8.56,21,19.14,25.35,32.34C204.18,141.66,206.41,158.33,206.41,158.33Z"/><path class="cls-5" d="M340.42,333.58c1.26-7.61,6.8-15,12.74-19.92s12.77-8.64,19.06-13.11A94.1,94.1,0,0,0,392.39,282C387.83,307.61,366.05,329.21,340.42,333.58Z"/><path class="cls-6" d="M320.44,395.11c1-5.85,5.23-11.52,9.79-15.32s9.82-6.64,14.66-10.07a72.78,72.78,0,0,0,15.51-14.26C356.89,375.14,340.15,391.75,320.44,395.11Z"/><path class="cls-6" d="M173,347.62s-5.37-12.24-7.55-18.07c-5.31-14.18-10.51-28.94-9.58-44.07,8.84,10.73,16.34,23.24,17.74,37.07C174.4,330.86,173,347.62,173,347.62Z"/><path class="cls-6" d="M376.54,224.89s14-27.61,21.2-40.07c17.56-30.36,36.31-61.35,64.71-81.92-6.18,31.58-17.52,63.39-40.2,86.22C408.62,202.83,376.54,224.89,376.54,224.89Z"/><path class="cls-6" d="M339.37,321c.13-43.1,23.1-80.95,50.81-112.29.53-.61-.35-1.49-.89-.89-27.93,31.59-51,69.75-51.17,113.18a.63.63,0,0,0,1.25,0Z"/><path class="cls-6" d="M370.88,231.41c7.91-7.68,12.07-20.18,13-31.16s-.24-22-.12-33.06c.15-13.2,1.47-26.17,5.37-38.78C362.81,154.6,355.15,197.75,370.88,231.41Z"/><path class="cls-6" d="M342.41,290.35s-4.09-25.72-4.29-39.9c-.14-10.68.19-21.43,2.35-31.89s6.23-20.68,12.94-29c-1.18,14.13,2.94,28.2,2.9,42.37C356.25,249.79,342.41,290.35,342.41,290.35Z"/><path class="cls-6" d="M330.57,274.77s25.23-6.47,38.32-11.92c9.86-4.11,19.6-8.68,28.34-14.82s16.5-13.94,21.45-23.4c-12.49,6.7-27,8.51-40,14.18C362.29,246,330.57,274.77,330.57,274.77Z"/><path class="cls-6" d="M128.34,281s-8.71-19.84-12.24-29.27c-8.61-23-17-46.91-15.53-71.41,14.33,17.38,26.49,37.65,28.75,60.07C130.67,253.8,128.34,281,128.34,281Z"/><path class="cls-6" d="M176.81,353.29c-2.93-7.82-6.75-15.16-12.57-21.21-4.92-5.11-10.72-9.25-15.39-14.6-7.16-8.19-11.72-18.19-15.48-28.29A256.76,256.76,0,0,1,124.55,262a.62.62,0,0,0-1.2.33,254.43,254.43,0,0,0,8.81,27.16c3.42,9.19,7.46,18.26,13.51,26.05,4.36,5.62,9.82,10,15,14.77,7,6.52,11.58,14.35,14.93,23.29.28.74,1.49.42,1.21-.34Z"/><path class="cls-6" d="M129.74,282.26c-1.26-7.61-6.8-15-12.74-19.92s-12.77-8.64-19.07-13.11a94.58,94.58,0,0,1-20.17-18.54C82.33,256.29,104.1,277.89,129.74,282.26Z"/><path class="cls-6" d="M152.3,322.13s-16.43-7.89-24.66-13.43a103.14,103.14,0,0,1-17.42-14.06,47.31,47.31,0,0,1-11.51-19c7.65,6.32,17.39,9.55,25.53,15.23C134.48,298,152.3,322.13,152.3,322.13Z"/><path class="cls-6" d="M149.12,319s-8.69-16.74-10.85-26.42c-1.62-7.3-.82-22.2,7.95-38.43,1.2,9.85,2.11,13.12,4.1,22.85C152.82,289.26,149.12,319,149.12,319Z"/><path class="cls-7" d="M331.86,238h-4.62V199.89h4.62s7.62,14.33,7.62,19.09S331.86,238,331.86,238Z"/><path class="cls-8" d="M331.29,241.47a3.47,3.47,0,0,1-2.51-1.06,3.5,3.5,0,0,1,.07-4.95,23.47,23.47,0,0,0,.51-33.14,3.5,3.5,0,1,1,5-4.87,30.47,30.47,0,0,1-.65,43A3.48,3.48,0,0,1,331.29,241.47Z"/><rect class="cls-9" x="162.78" y="199.89" width="166.91" height="38.19"/><path class="cls-8" d="M331.87,203.35H157.08a3.47,3.47,0,0,1,0-6.93H331.87a3.47,3.47,0,0,1,0,6.93Z"/><path class="cls-8" d="M331.29,241.54H157.08a3.47,3.47,0,0,1,0-6.93H331.29a3.47,3.47,0,0,1,0,6.93Z"/><path class="cls-10" d="M302.34,209.4H168a.5.5,0,0,1-.5-.5.5.5,0,0,1,.5-.5H302.34a.5.5,0,0,1,.5.5A.5.5,0,0,1,302.34,209.4Z"/><path class="cls-10" d="M305,215.59H170.67a.5.5,0,0,1-.5-.5.5.5,0,0,1,.5-.5H305a.5.5,0,0,1,.5.5A.5.5,0,0,1,305,215.59Z"/><path class="cls-10" d="M324,222.05H189.6a.5.5,0,1,1,0-1H324a.5.5,0,0,1,0,1Z"/><path class="cls-7" d="M164.7,355.46h4.62v38.09H164.7s-7.62-14.34-7.62-19.1S164.7,355.46,164.7,355.46Z"/><rect class="cls-9" x="166.87" y="355.36" width="166.91" height="38.19"/><path class="cls-8" d="M164.69,397.05a3.48,3.48,0,0,1-2.51-1.07,30.46,30.46,0,0,1,.65-43,3.5,3.5,0,1,1,4.88,5,23.46,23.46,0,0,0-.51,33.14,3.5,3.5,0,0,1-2.51,5.94Z"/><path class="cls-8" d="M339.48,397H164.69a3.47,3.47,0,0,1,0-6.93H339.48a3.47,3.47,0,0,1,0,6.93Z"/><path class="cls-8" d="M339.48,358.82H165.27a3.46,3.46,0,0,1,0-6.92H339.48a3.46,3.46,0,0,1,0,6.92Z"/><path class="cls-10" d="M328.58,385H194.22a.5.5,0,0,1-.5-.5.5.5,0,0,1,.5-.5H328.58a.5.5,0,0,1,.5.5A.5.5,0,0,1,328.58,385Z"/><path class="cls-10" d="M317.76,373.21H183.39a.51.51,0,0,1-.5-.5.5.5,0,0,1,.5-.5H317.76a.5.5,0,0,1,.5.5A.51.51,0,0,1,317.76,373.21Z"/><path class="cls-10" d="M307,367.38H172.59a.5.5,0,0,1-.5-.5.51.51,0,0,1,.5-.5H307a.51.51,0,0,1,.5.5A.5.5,0,0,1,307,367.38Z"/><path class="cls-11" d="M355.67,352H179a5.5,5.5,0,0,1,0-11H355.67a5.5,5.5,0,1,1,0,11Z"/><path class="cls-7" d="M370.53,292.59h-5.78v-47.7h5.78s9.54,17.95,9.54,23.91S370.53,292.59,370.53,292.59Z"/><path class="cls-11" d="M369.81,296.09a3.5,3.5,0,0,1-2.43-6,30.22,30.22,0,0,0,.65-42.74,3.5,3.5,0,0,1,5-4.87,37.22,37.22,0,0,1-.81,52.64A3.49,3.49,0,0,1,369.81,296.09Z"/><rect class="cls-9" x="158.81" y="244.89" width="209.3" height="47.82"/><path class="cls-11" d="M370.54,248.39H151.67a3.5,3.5,0,1,1,0-7H370.54a3.5,3.5,0,1,1,0,7Z"/><path class="cls-11" d="M369.81,296.21H151.67a3.5,3.5,0,0,1,0-7H369.81a3.5,3.5,0,0,1,0,7Z"/><path class="cls-10" d="M333.57,256.67H165.31a.5.5,0,0,1-.5-.5.51.51,0,0,1,.5-.5H333.57a.51.51,0,0,1,.5.5A.5.5,0,0,1,333.57,256.67Z"/><path class="cls-10" d="M342.23,276.5H174a.5.5,0,0,1-.5-.5.5.5,0,0,1,.5-.5H342.23a.5.5,0,0,1,.5.5A.5.5,0,0,1,342.23,276.5Z"/><path class="cls-10" d="M339.81,282.87H171.56a.5.5,0,0,1-.5-.5.5.5,0,0,1,.5-.5H339.81a.5.5,0,0,1,.5.5A.5.5,0,0,1,339.81,282.87Z"/><path class="cls-7" d="M348.06,337.59h-4.62V299.51h4.62s7.61,14.33,7.61,19.09S348.06,337.59,348.06,337.59Z"/><path class="cls-12" d="M347.49,341.09a3.5,3.5,0,0,1-2.44-6,23.47,23.47,0,0,0,.51-33.14,3.5,3.5,0,0,1,5-4.87,30.47,30.47,0,0,1-.66,43A3.48,3.48,0,0,1,347.49,341.09Z"/><rect class="cls-9" x="178.98" y="299.51" width="166.91" height="38.19"/><path class="cls-12" d="M348.07,303H173.28a3.5,3.5,0,1,1,0-7H348.07a3.5,3.5,0,0,1,0,7Z"/><path class="cls-12" d="M347.49,341.19H173.28a3.5,3.5,0,0,1,0-7H347.49a3.5,3.5,0,0,1,0,7Z"/><path class="cls-10" d="M318.54,309H184.18a.5.5,0,0,1-.5-.5.5.5,0,0,1,.5-.5H318.54a.5.5,0,0,1,.5.5A.51.51,0,0,1,318.54,309Z"/><path class="cls-10" d="M321.23,315.21H186.87a.5.5,0,0,1,0-1H321.23a.5.5,0,0,1,0,1Z"/><path class="cls-10" d="M340.16,321.67H205.8a.5.5,0,0,1-.5-.5.5.5,0,0,1,.5-.5H340.16a.5.5,0,0,1,.5.5A.5.5,0,0,1,340.16,321.67Z"/><path class="cls-5" d="M248.3,322.7l-7.8-10-7.8,10V296.23a.18.18,0,0,1,.16-.18,61.51,61.51,0,0,1,7.64-.42,52.73,52.73,0,0,1,7.65.42.17.17,0,0,1,.15.18Z"/><polygon class="cls-13" points="145.13 225.09 137.18 249.01 148.75 250.05 145.13 225.09"/><polygon class="cls-14" points="145.13 225.09 143.09 231.21 146.05 231.47 145.13 225.09"/><path class="cls-8" d="M148.73,250.27a1.93,1.93,0,1,0-3.85-.35,1.94,1.94,0,0,0-3.86-.35,1.94,1.94,0,1,0-3.86-.34l-12.22,139.2h0l-.45,5.12a3.52,3.52,0,0,0,3.2,3.83l4.53.41a3.53,3.53,0,0,0,3.83-3.2l.17-1.9h0Z"/><path class="cls-15" d="M148.73,250.27a1.93,1.93,0,1,0-3.85-.35c.09-1-11.91,132.07-13.26,147.82l.57.05a3.53,3.53,0,0,0,3.83-3.2l.17-1.9h0Z"/><path class="cls-7" d="M127.14,363.45l-2.13,25-.46,5.12a3.52,3.52,0,0,0,3.2,3.83l4.53.41a3.54,3.54,0,0,0,3.84-3.21l.17-1.89,2.41-28.28Z"/><polygon class="cls-16" points="127.13 363.45 126.84 366.57 138.42 367.55 138.71 364.43 127.13 363.45"/><polygon class="cls-7" points="135.49 344.32 133.92 344.16 132.94 355.75 134.52 355.9 135.49 344.32"/><polygon class="cls-16" points="133.21 371.43 131.63 371.28 131.14 377.07 132.72 377.22 133.21 371.43"/><path class="cls-6" d="M171.3,339.49c-5.64,2.63-13.06,2.3-19.05.6s-11.56-4.56-17.4-6.71a76.45,76.45,0,0,0-21.52-5C132.43,319.79,156.72,324.43,171.3,339.49Z"/><path class="cls-4" d="M136.89,226.54a5,5,0,0,1-4.65-3.24l-9-24.14a5.67,5.67,0,0,1,3.33-7.27,5.68,5.68,0,0,1,7.27,3.33l5.58,15a.67.67,0,0,1-.4.86.66.66,0,0,1-.86-.39l-5.58-15a4.31,4.31,0,1,0-8.08,3l9,24.15a3.61,3.61,0,0,0,6.77-2.52l-6.6-17.78a2.92,2.92,0,1,0-5.48,2l4.11,11.06a.67.67,0,1,1-1.26.47l-4.11-11.06a4.27,4.27,0,1,1,8-3l6.61,17.77a5,5,0,0,1-2.93,6.38A5.12,5.12,0,0,1,136.89,226.54Z"/><path class="cls-4" d="M375.6,368a5.65,5.65,0,0,1-3.13-1,5.58,5.58,0,0,1-2.41-3.58l-3.15-15.7a.67.67,0,1,1,1.32-.27l3.15,15.7a4.3,4.3,0,0,0,8.44-1.69l-5.06-25.26a3.62,3.62,0,0,0-7.09,1.42l3.73,18.59a2.93,2.93,0,0,0,1.25,1.86,2.88,2.88,0,0,0,2.19.43,2.85,2.85,0,0,0,1.85-1.25,2.88,2.88,0,0,0,.44-2.19l-2.32-11.57a.66.66,0,0,1,.52-.79.68.68,0,0,1,.8.53l2.32,11.57a4.27,4.27,0,0,1-8.37,1.68L366.35,338a5,5,0,0,1,3.89-5.84,5,5,0,0,1,5.84,3.88l5.06,25.26a5.66,5.66,0,0,1-4.43,6.66A6,6,0,0,1,375.6,368Z"/><polygon class="cls-17" points="338.21 146.58 311.21 151.99 197.11 158.93 164.41 146.45 254.38 116.94 338.21 146.58"/><path class="cls-12" d="M338.89,142.15l-83.15-27.32-.16-.06a1.57,1.57,0,0,0-.23-.09l-.22-.05a.85.85,0,0,0-.23,0h-.46l-.26,0-.15,0-90.24,27.19a2.35,2.35,0,0,0,.62,4.61,2.27,2.27,0,0,0,.62-.09l89.36-26.94,82.33,26.89a2.35,2.35,0,1,0,2.17-4.16Z"/><polygon class="cls-18" points="240.98 124.22 240.98 119.31 237.46 120.56 237.46 125.47 240.98 124.22"/><path class="cls-19" d="M311.22,195.2s-34.16,3.69-56.84,3.69c-26.68,0-57.27-3.69-57.27-3.69V146.84a184.16,184.16,0,0,1,57.27-9.42c29.95,0,56.84,9.42,56.84,9.42Z"/><path class="cls-17" d="M223.91,197.68c-16.56-1.09-26.8-2.48-26.8-2.48V146.84a146.08,146.08,0,0,1,27.45-8.28Z"/><path class="cls-18" d="M254.49,199.71c-37,0-53-2.61-57.38-3.51V192c2.22.5,17.57,3.61,57.38,3.61,20.75,0,51.44-3.1,56.73-3.65v4.08C304.84,196.74,274.93,199.71,254.49,199.71Z"/><path class="cls-12" d="M254.38,200.89c-43.11,0-57.2-3.6-57.78-3.76a2,2,0,1,1,1-3.86c.14,0,14.35,3.62,56.76,3.62,22.31,0,56.28-3.64,56.62-3.68a2,2,0,0,1,.43,4C311.09,197.23,276.91,200.89,254.38,200.89Z"/><path class="cls-12" d="M240.41,142.6a11.92,11.92,0,0,1-.75-2.82h0V120a1.76,1.76,0,1,0-3.52,0v19.82a.22.22,0,0,0,0,.08,32.28,32.28,0,0,1-.62,3.62,27.15,27.15,0,0,0-.65,4.05.88.88,0,0,0,1.76,0,24.68,24.68,0,0,1,.57-3.44v0c.09,1.72.18,3.5.18,4.25a.88.88,0,0,0,1.76,0c0-.8-.09-2.52-.19-4.34v-.24a9,9,0,0,1,.54,2.2.88.88,0,0,0,1.76,0A12.16,12.16,0,0,0,240.41,142.6Z"/><path class="cls-17" d="M254.16,176.41a.5.5,0,0,1-.5-.5V160.72a.5.5,0,0,1,.5-.5.5.5,0,0,1,.5.5v15.19A.5.5,0,0,1,254.16,176.41Z"/><path class="cls-12" d="M127.47,157.86c-10.87,0-22.56-2-22.56-6.5s11.69-6.5,22.56-6.5,22.56,2,22.56,6.5S138.33,157.86,127.47,157.86Zm0-10.71c-13.12,0-20.27,2.78-20.27,4.21s7.15,4.21,20.27,4.21,20.27-2.78,20.27-4.21S140.58,147.15,127.47,147.15Z"/><path class="cls-12" d="M137.41,171.25c-1.68,0-3.85-1.37-6.47-4.08a66.43,66.43,0,0,1-9.1-12.56c-5.44-9.41-9.52-20.55-5.65-22.79,1.79-1,4.41.23,7.81,3.74a66.77,66.77,0,0,1,9.1,12.55c5.43,9.41,9.52,20.56,5.65,22.79A2.56,2.56,0,0,1,137.41,171.25Zm-19.87-37.48a.39.39,0,0,0-.21,0c-1.23.71-.07,8.3,6.49,19.66a65.18,65.18,0,0,0,8.76,12.11c3.16,3.26,4.73,3.51,5,3.34h0c1.24-.72.07-8.3-6.48-19.66a64.07,64.07,0,0,0-8.77-12.11C119.64,134.35,118.11,133.77,117.54,133.77Z"/><path class="cls-12" d="M117.53,171.25a2.56,2.56,0,0,1-1.34-.35h0c-1.79-1-2-3.94-.67-8.63a66.1,66.1,0,0,1,6.32-14.16c5.43-9.41,13-18.52,16.91-16.29s-.22,13.38-5.65,22.79a66.87,66.87,0,0,1-9.1,12.56C121.37,169.88,119.2,171.25,117.53,171.25Zm19.78-37.51c-1.72,0-7.35,4.89-13.49,15.52a64.26,64.26,0,0,0-6.1,13.64c-1.25,4.37-.68,5.85-.39,6h0c.3.17,1.86-.08,5-3.34a64.73,64.73,0,0,0,8.77-12.11c6.55-11.36,7.72-18.95,6.48-19.66A.54.54,0,0,0,137.31,133.74Z"/><circle class="cls-11" cx="127.47" cy="151.36" r="2.05"/><path class="cls-8" d="M437.89,244.8a16.87,16.87,0,1,0-7.58,32,17,17,0,0,0,5.34-.87,16.88,16.88,0,0,0,2.24-31.1Zm5.94,20.57L441.16,264a16.68,16.68,0,0,0,1.29-5.34l2.44,1.23A14.43,14.43,0,0,1,443.83,265.37Zm-9.46,3.8-5.93-3,2.4-4.78,7.25,3.64A14.11,14.11,0,0,1,434.37,269.17Zm-18.61-9.33a14.45,14.45,0,0,1,1.07-5.44l2.67,1.34a16.63,16.63,0,0,0-1.29,5.33Zm5.78-3.08,7.25,3.64-2.39,4.78-5.93-3A14.21,14.21,0,0,1,421.54,256.76Zm4.71-6.18,6,3-2.39,4.78-7.25-3.63A14.13,14.13,0,0,1,426.25,250.58Zm11-1.93A16,16,0,0,1,440,254.9l-4.69-2.35Zm-4,2.87-4.69-2.34a16,16,0,0,1,6.64-1.55Zm-7.87,15.7-1.95,3.9a16.09,16.09,0,0,1-2.69-6.22Zm2.05,1,4.64,2.32a16.06,16.06,0,0,1-6.59,1.57Zm4.45-8.87,2.39-4.78,6,3a14.43,14.43,0,0,1-1.11,5.42Zm12.78-2.14-2.22-1.11a17.51,17.51,0,0,0-2.1-6.85A14.62,14.62,0,0,1,444.65,257.24Zm-14.3-11.93a14.39,14.39,0,0,1,2.44.23A17.48,17.48,0,0,0,426.1,248l-2.23-1.12A14.69,14.69,0,0,1,430.35,245.31Zm-8.77,2.93,2.45,1.23a16.77,16.77,0,0,0-3.51,4.22l-2.67-1.34A14.3,14.3,0,0,1,421.58,248.24Zm-5.09,16.24a15,15,0,0,1-.48-2l2.22,1.11a17.46,17.46,0,0,0,2.12,6.88A14.56,14.56,0,0,1,416.49,264.48Zm11.32,9.76a17.7,17.7,0,0,0,6.75-2.41l2.22,1.11A14.64,14.64,0,0,1,427.81,274.24Zm11.27-2.71-2.45-1.22a16.78,16.78,0,0,0,3.51-4.23l2.66,1.34A14.41,14.41,0,0,1,439.08,271.53Z"/><path class="cls-20" d="M401.35,383.25l4.63-.49a.56.56,0,0,1,.62.6l-1,12.88a.57.57,0,0,1-1.11.12L400.87,384A.56.56,0,0,1,401.35,383.25Z"/><path class="cls-7" d="M389.41,250.18a1.88,1.88,0,0,1-2.06-1.66l-1.56-14a1.87,1.87,0,0,1,1.65-2.07h0a1.87,1.87,0,0,1,2.06,1.66l1.57,14a1.88,1.88,0,0,1-1.66,2.07Z"/><path class="cls-20" d="M403.74,383.41h0a7.09,7.09,0,0,1-7.79-6.25l-14.58-134c-.42-3.85,13.61-5.39,14-1.53l14.59,134A7.08,7.08,0,0,1,403.74,383.41Z"/><path class="cls-16" d="M403.74,383.41h0L388.07,239.48c3.51-.38,7.12.2,7.33,2.13l14.59,134A7.08,7.08,0,0,1,403.74,383.41Z"/><path class="cls-7" d="M387.19,296.45a1.34,1.34,0,1,1-.29-2.67l14-1.57h0a1.34,1.34,0,0,1,1.48,1.19,1.35,1.35,0,0,1-1.19,1.49l-14,1.56Z"/><path class="cls-7" d="M402.41,278a1.35,1.35,0,0,1-1.48-1.19l-2-18.09a1.35,1.35,0,0,1,1.19-1.49h0a1.34,1.34,0,0,1,1.48,1.19l2,18.09a1.35,1.35,0,0,1-1.19,1.49Z"/><path class="cls-7" d="M396.41,250.9a1.37,1.37,0,0,1-1.48-1.19,1.35,1.35,0,0,1,1.19-1.49l5.47-.63h0a1.35,1.35,0,0,1,.29,2.68l-5.47.62Z"/><path class="cls-7" d="M382.45,253.08a2,2,0,0,1-.43-4l14-1.53h0a2,2,0,0,1,.43,4l-14,1.53Z"/><path class="cls-7" d="M400.37,259.88a1.37,1.37,0,0,1-.81-.17,1.34,1.34,0,0,1-.49-1.84l2.13-3.7a1.35,1.35,0,1,1,2.34,1.34l-2.14,3.7A1.37,1.37,0,0,1,400.37,259.88Z"/><path class="cls-7" d="M402.51,256.18A1.35,1.35,0,0,1,401,255l-.63-5.91a1.35,1.35,0,1,1,2.68-.28l.63,5.91A1.35,1.35,0,0,1,402.51,256.18Z"/><path class="cls-8" d="M408.13,371.31l-11.29,1.2a1.47,1.47,0,0,0-1.19,1.77c1.87,17.64,7.56,17.42,7.56,17.42l2.72-.29s5.61-1,3.74-18.62A1.47,1.47,0,0,0,408.13,371.31Z"/><path class="cls-7" d="M395.38,373.64a.94.94,0,0,1-.21-1.86l14-1.57h0a1,1,0,0,1,1,.83,1,1,0,0,1-.83,1l-14,1.56Z"/><path class="cls-7" d="M405.12,396.74a.46.46,0,0,1-.34-.1.43.43,0,0,1-.17-.32.42.42,0,0,1,.1-.34.47.47,0,0,1,.65-.07.31.31,0,0,1,.12.14.39.39,0,0,1,.06.17.45.45,0,0,1-.11.35.5.5,0,0,1-.13.12A.53.53,0,0,1,405.12,396.74Z"/><polygon class="cls-13" points="379.63 393.87 355.11 388.03 355.08 399.64 379.63 393.87"/><polygon class="cls-14" points="379.63 393.87 373.36 392.37 373.35 395.34 379.63 393.87"/><path class="cls-5" d="M354.86,399.64a4.33,4.33,0,0,1,1.95-5.8,1.94,1.94,0,1,1,0-3.87,1.93,1.93,0,0,0-1.93-1.94l-159.74-.12v0H190a3.53,3.53,0,0,0-3.55,3.52V396a3.53,3.53,0,0,0,3.53,3.54h1.89v0Z"/><path class="cls-6" d="M354.86,399.64a1.94,1.94,0,0,0,0-3.87c1,0-152.6-.41-168.41-.4V396a3.53,3.53,0,0,0,3.53,3.54h1.89v0Z"/><path class="cls-7" d="M220.24,387.94l-25.09,0H190a3.54,3.54,0,0,0-3.55,3.53V396a3.54,3.54,0,0,0,3.53,3.55h1.89l28.39,0Z"/><polygon class="cls-16" points="220.24 387.93 217.1 387.92 217.13 399.54 220.26 399.55 220.24 387.93"/><polygon class="cls-7" points="240.02 394.61 240.03 393.03 228.41 393.06 228.39 394.64 240.02 394.61"/><polygon class="cls-16" points="212.81 394.68 212.82 393.1 207.01 393.11 207 394.69 212.81 394.68"/><g class="cls-21"><circle class="cls-8" cx="305.61" cy="122.37" r="26.63"/></g><path class="cls-14" d="M291,148a29.51,29.51,0,1,1,22.41,2.82A29.49,29.49,0,0,1,291,148Zm26.34-46.26a23.72,23.72,0,1,0,11.15,14.33A23.66,23.66,0,0,0,317.35,101.76Z"/><path class="cls-22" d="M289.59,111.74l-.11-.07a1.43,1.43,0,0,1-.36-2,27.31,27.31,0,0,1,4.16-4.75,1.44,1.44,0,0,1,2,2.13,25.34,25.34,0,0,0-3.74,4.27A1.44,1.44,0,0,1,289.59,111.74Z"/><path class="cls-22" d="M286.26,118.33a1.44,1.44,0,0,1-.65-1.73,26.7,26.7,0,0,1,1.38-3.32,1.43,1.43,0,0,1,1.93-.66,1.46,1.46,0,0,1,.66,1.93,26.89,26.89,0,0,0-1.24,3,1.44,1.44,0,0,1-1.84.9Z"/><path class="cls-14" d="M322.76,195.92a4.31,4.31,0,0,1-2-2.62l-11.86-42.71a4.33,4.33,0,1,1,8.36-2.29L329.09,191a4.34,4.34,0,0,1-6.33,4.92Z"/><path class="cls-12" d="M308.93,156.66a2.16,2.16,0,0,1,.5-4l8.37-2.3a2.17,2.17,0,0,1,1.15,4.18l-8.37,2.3A2.14,2.14,0,0,1,308.93,156.66Z"/><path class="cls-12" d="M254.16,89.09a1.5,1.5,0,0,1-1.5-1.5v-12a1.5,1.5,0,0,1,3,0v12A1.5,1.5,0,0,1,254.16,89.09Z"/><path class="cls-12" d="M229.24,93.72a1.48,1.48,0,0,1-1.06-.43l-8.5-8.5a1.51,1.51,0,0,1,0-2.12,1.49,1.49,0,0,1,2.12,0l8.5,8.49a1.5,1.5,0,0,1-1.06,2.56Z"/><path class="cls-12" d="M279.09,93.72a1.48,1.48,0,0,1-1.06-.43,1.5,1.5,0,0,1,0-2.13l8.49-8.49a1.5,1.5,0,0,1,2.12,2.12l-8.49,8.5A1.5,1.5,0,0,1,279.09,93.72Z"/></g></svg>