<svg xmlns="http://www.w3.org/2000/svg" viewBox="0 0 750 500"><defs><style>.cls-1{opacity:0.31;}.cls-2{fill:#c5e1f9;}.cls-3{fill:none;}.cls-4{fill:#00aed6;}.cls-5{fill:#00b7d8;}.cls-6{fill:#fff;}.cls-7{fill:#4b3c51;}.cls-8{fill:#04a2bc;}.cls-9{fill:#3e3244;}.cls-10{fill:#e8a17e;}.cls-11{fill:#d88d6c;}.cls-12{fill:#161119;}.cls-13{fill:#f27b53;opacity:0.45;}.cls-14,.cls-20,.cls-21{fill:#26476d;}.cls-14{opacity:0.07;}.cls-15{fill:#ffce45;}.cls-16,.cls-19{fill:#345d95;}.cls-16{opacity:0.11;}.cls-17{opacity:0.38;}.cls-18{fill:#ffa748;}.cls-21{opacity:0.27;}</style></defs><title>Contact</title><g id="OBJECTS"><g class="cls-1"><path class="cls-2" d="M123.2,500c-42.61-1.93-84.44-19.82-104.89-50.56C-.6,421-4.12,377,4.34,345.35c7.11-26.57,27.4-49.55,50.54-69,46.77-39.32,107-67.84,146.54-112.19,22-24.65,36.58-53.22,57.7-78.36C300.18,36.91,368.19,2.22,440.5.1S586.83,31.35,616.88,85.36C642.72,131.83,636,188.14,667.81,232c14.62,20.18,36.43,36.21,52.49,55.64,28.59,34.56,37.22,79.75,22.91,119.84s-51.3,74.31-98.1,90.76" transform="translate(0 0)"/></g><g class="cls-1"><path class="cls-2" d="M591.59,496.15c29.72-1.27,58.89-13.06,73.15-33.32,13.19-18.73,15.64-47.76,9.74-68.61-5-17.5-19.11-32.65-35.25-45.48C606.62,322.83,564.6,304,537,274.8c-15.32-16.24-33.64-53.76-48.37-70.33C460,172.25,426,151.09,375.84,145.82c-64.68-6.81-107.61,41.46-128.57,77.06-18,30.62-13.32,67.74-35.52,96.67-10.2,13.3-25.41,23.86-36.61,36.67-19.94,22.78-26,52.56-16,79s35.78,49,68.42,59.81" transform="translate(0 0)"/></g><path class="cls-3" d="M142.3,471.14l-.94,7.18c2.83-.15,4.89-1.14,5.81-2.27a2.14,2.14,0,0,0,.42-2.23C147,472.14,144.61,471.42,142.3,471.14Z" transform="translate(0 0)"/><path class="cls-4" d="M181.14,458.93c-2.21-6.22-8.75-8.61-14.59-9.49-12.79,19.78-28.76,23.72-37.51,24.24l2.54,14.82H160.4l1.54-11.83c7.3-.13,13.77-2.6,17.23-6.83A10.9,10.9,0,0,0,181.14,458.93Zm-7.5,6.48c-1.72,2.09-5.54,3.92-10.78,4.2l1.74-13.31c4.28.51,8.71,1.85,9.81,5A4,4,0,0,1,173.64,465.41Z" transform="translate(0 0)"/><path class="cls-5" d="M166.55,449.44l-1-.16,1.74-13.36a1.33,1.33,0,0,0-1.32-1.49H124.06a1.48,1.48,0,0,0-1.47,1.72L129,473.68C137.79,473.16,153.76,469.22,166.55,449.44Z" transform="translate(0 0)"/><path class="cls-6" d="M147.34,428.88c-4.17-2.18-8.14-10.07-9.78-13.72s-2.11-8-.3-11.57c1.54-3,4.48-5.09,6.31-7.93a12.76,12.76,0,0,0,1.6-10c-1.25-4.74-5.18-8.52-6.09-13.34-1.05-5.65,2.27-11.09,3.73-16.65a26.33,26.33,0,0,0-.75-15.61c4.06,2.38,6.49,6.69,8.73,10.8,2,3.75,4.15,7.77,3.86,12-.19,2.67-1.32,5.18-2.27,7.69-1.72,4.55-2.89,9.53-1.67,14.23,1.86,7.11,8.93,12.66,8.66,20-.17,4.35-3,8.2-6.45,10.92-2.24,1.77-4.82,3.24-6.39,5.61s-1.62,6.08.81,7.58" transform="translate(0 0)"/><path class="cls-7" d="M403.26,214a94.87,94.87,0,0,0-7.13,22.63c-1.24,7.6-1.67,15.34-3.58,22.8A97.07,97.07,0,0,1,385,278.37a4.09,4.09,0,0,0-.56,1.75c0,1.21,1.06,2.14,2.05,2.85a56,56,0,0,0,53,6.24" transform="translate(0 0)"/><ellipse class="cls-5" cx="399.26" cy="247.03" rx="14.8" ry="18.19"/><ellipse class="cls-8" cx="406.22" cy="249.6" rx="14.8" ry="18.19"/><path class="cls-9" d="M439.52,289.27l-30.88-64c-3.42,11.25-6.83,22.51-10.06,33.81a63.76,63.76,0,0,0-2.49,11.45,32.38,32.38,0,0,0,.7,10.2,19.05,19.05,0,0,0,4.37,8.88,13.84,13.84,0,0,0,1.35,1.19A55.89,55.89,0,0,0,439.52,289.27Z" transform="translate(0 0)"/><path class="cls-10" d="M433,287.06c1.39,7.78,2.55,16.6-2.33,22.85-1.07,1.37-2.47,2.71-2.54,4.44-.1,2.27,2.09,3.94,4.14,4.95a33,33,0,0,0,25.84,1.32A4.07,4.07,0,0,0,460,319.5c1.05-1.28.38-3.15-.27-4.67a55.73,55.73,0,0,1,.46-44" transform="translate(0 0)"/><path class="cls-11" d="M432.33,284.8c1.36,5.46,2.26,10.72,1.66,16.31a.69.69,0,0,0,.09.55c.18.19.5.11.74,0a20.25,20.25,0,0,0,12.46-10.42,23.67,23.67,0,0,0,2.5-12.37" transform="translate(0 0)"/><path class="cls-10" d="M414.15,215.05c-5.61,6.19-6.92,15-7.66,23.28-.65,7.29-1,14.66,0,21.91s3.62,14.42,8.36,20a30.85,30.85,0,0,0,7,6.11,17.76,17.76,0,0,0,5.86,2.58c4,.85,8.13-.28,12-1.53,8.86-2.84,18-6.68,23.45-14.13,7.13-9.71,11.84-35.27,13.69-47.13" transform="translate(0 0)"/><path class="cls-11" d="M403,222.59a60.44,60.44,0,0,0,29.37,13.61,103.86,103.86,0,0,0,19,.91,33,33,0,0,0,7.09-.68,13,13,0,0,0,8-5.33,8.56,8.56,0,0,0,.12-9.24" transform="translate(0 0)"/><path class="cls-7" d="M474.48,190.2c-15.79-7.54-38.66-6-50.15.52s-16.26,12.33-22.26,25.88c-.35.81-2.43,5.79-2.11,6.62a2.38,2.38,0,0,0,1.54,1.59c14.19,5.36,26.67,6.32,41.85,7.06a53.42,53.42,0,0,0,15.1-.92c6.95,23.05,3.33,39.57-8.26,60.72,7.54,3.15,36.87,5,50.83-5.73a33.22,33.22,0,0,0,9.08-10c5.55-10,3.17-22.37.15-33.4-2.25-8.2-4.79-16.4-8.87-23.88-6.26-11.5-14.77-23.31-26.9-28.49" transform="translate(0 0)"/><path class="cls-6" d="M419.16,265.84c1.15,3.52,2.48,6.76,5.63,8.76s7.3,1.74,10.66.19,6.55-5.46,8.9-8.29a98.79,98.79,0,0,1-25.19-.66" transform="translate(0 0)"/><path class="cls-9" d="M484.64,284.36a7.17,7.17,0,0,1-2.28-2.79c-.89-2.18-.11-4.63.57-6.89a36.23,36.23,0,0,0,1.91-11.74,17.15,17.15,0,0,0-4.09-11c-3.91-4.29-10-5.64-15.76-6.78l-3.61-.71c2.14,16.52-1.93,30.43-11.13,47.21,7.55,3.15,36.88,5,50.84-5.73.51-.39,1-.82,1.49-1.23a19.65,19.65,0,0,1-2.64,1.31C494.94,288,488.85,287.66,484.64,284.36Z" transform="translate(0 0)"/><path class="cls-12" d="M433.19,245.05a7.07,7.07,0,0,0-7-.06l-.76-1.11a8.38,8.38,0,0,1,8.38,0Z" transform="translate(0 0)"/><polygon class="cls-12" points="461.44 244.68 457.92 244.62 457.92 243.28 461.26 243.28 461.44 244.68"/><polyline class="cls-11" points="428.65 247.46 424.37 260.4 431.1 260.94"/><path class="cls-9" d="M442,237.16a6.84,6.84,0,0,1,.85-.44l.52-.23-.19.08c.44-.18.89-.35,1.34-.49a16.48,16.48,0,0,1,1.71-.44c.37-.08.75-.14,1.12-.19l-.21,0a16.14,16.14,0,0,1,3.26-.1c.33,0,.67.05,1,.1l-.21,0a16.36,16.36,0,0,1,3.23.78c.32.11.64.23.95.36l-.19-.08a18.93,18.93,0,0,1,3.34,1.82.78.78,0,0,0,.63.08.79.79,0,0,0,.56-1,.88.88,0,0,0-.37-.48,19,19,0,0,0-5.4-2.56,16.93,16.93,0,0,0-4.85-.65,17.34,17.34,0,0,0-4,.52,17.13,17.13,0,0,0-2.8,1,10.1,10.1,0,0,0-1.09.55h0a.89.89,0,0,0-.37.48.81.81,0,0,0,1.19.9Z" transform="translate(0 0)"/><path class="cls-9" d="M420.22,237.26a7,7,0,0,0-.76-.59l-.47-.32.18.11q-.6-.39-1.23-.72c-.52-.27-1.06-.52-1.6-.74-.36-.14-.71-.27-1.07-.39l.2.07a15.69,15.69,0,0,0-3.18-.69c-.34,0-.67-.06-1-.08h.22a16.73,16.73,0,0,0-3.32.18c-.34.05-.67.12-1,.19l.21,0c-1.25.28.41,1.11-1.88.52-.21,0,1.49-2.18,3.49-2.37a16.72,16.72,0,0,1,4.89.23,17.09,17.09,0,0,1,3.83,1.22,17.27,17.27,0,0,1,2.58,1.46,8.78,8.78,0,0,1,1,.73l0,0a.8.8,0,0,1,.08,1.12.82.82,0,0,1-.54.28.85.85,0,0,1-.6-.19Z" transform="translate(0 0)"/><path class="cls-9" d="M442.31,246l0,0,0-.05s-.06.07,0,0v0l0,0c.1-.13.21-.25.32-.37a6.14,6.14,0,0,1,.51-.51l.33-.28.09-.07s-.05,0,0,0l0,0,.05,0,.19-.14a7.14,7.14,0,0,1,.89-.52l.24-.12.06,0,0,0c-.09,0,0,0,0,0l.13,0a4.88,4.88,0,0,1,.54-.18,5.43,5.43,0,0,1,.58-.13h.11c.05,0-.06,0,0,0l.15,0,.32,0a4.73,4.73,0,0,1,.65,0h.25s.07,0,0,0h0a2,2,0,0,1,.35.06c.24.05.49.12.72.19l.37.14.09,0c-.08,0,0,0,0,0l.05,0,.19.09a9.26,9.26,0,0,1,1.59,1l.05,0,0,0h0l.1.08.21.17a.26.26,0,0,0,.17.07.27.27,0,0,0,.18-.07.25.25,0,0,0,0-.36,10.1,10.1,0,0,0-1.67-1.15,7.4,7.4,0,0,0-1.57-.64,6.26,6.26,0,0,0-1.44-.21,5.68,5.68,0,0,0-1.3.13,6.46,6.46,0,0,0-1.15.38,6.56,6.56,0,0,0-.94.51,6.68,6.68,0,0,0-.8.6,7.27,7.27,0,0,0-.57.54c-.13.13-.26.27-.38.41s-.14.17-.2.26h0a.26.26,0,0,0,.09.34.25.25,0,0,0,.34-.09Z" transform="translate(0 0)"/><path class="cls-9" d="M408.8,244.77l0,0,0,0,0,0h0l0,0,.32-.37c.16-.17.33-.34.52-.51a4.15,4.15,0,0,1,.32-.27l.1-.08,0,0,0,0,.05,0,.2-.14a6,6,0,0,1,.88-.53l.24-.11.06,0h0c-.08,0,0,0,0,0l.13-.05a4.88,4.88,0,0,1,.54-.18,5.41,5.41,0,0,1,.58-.12l.07,0h0l.16,0,.31,0c.22,0,.43,0,.65,0l.17,0h.12l.34.06a5.44,5.44,0,0,1,.72.2l.37.14.09,0c-.08,0,0,0,0,0l.05,0,.19.09a8.94,8.94,0,0,1,1.59,1l.05,0,0,0s-.05,0,0,0l.09.07.21.17a.27.27,0,0,0,.18.07.22.22,0,0,0,.17-.07.24.24,0,0,0,0-.35,10.16,10.16,0,0,0-1.67-1.16,7.36,7.36,0,0,0-1.57-.63,5.76,5.76,0,0,0-1.44-.21,5.75,5.75,0,0,0-2.45.51,6.5,6.5,0,0,0-.94.5,9.81,9.81,0,0,0-.8.6,7.27,7.27,0,0,0-.57.54,5.14,5.14,0,0,0-.38.42,2.56,2.56,0,0,0-.2.26h0a.27.27,0,0,0,.09.35.28.28,0,0,0,.35-.09Z" transform="translate(0 0)"/><ellipse class="cls-13" cx="452.7" cy="257.88" rx="5.78" ry="5.72"/><ellipse class="cls-13" cx="411.1" cy="255.65" rx="4.87" ry="4.82"/><path class="cls-12" d="M413.52,257.57a12.64,12.64,0,1,1,12.78-12.63A12.71,12.71,0,0,1,413.52,257.57Zm0-23.81a11.18,11.18,0,1,0,11.31,11.18A11.26,11.26,0,0,0,413.52,233.76Z" transform="translate(0 0)"/><path class="cls-12" d="M445.67,257.57a12.64,12.64,0,1,1,12.78-12.63A12.71,12.71,0,0,1,445.67,257.57Zm0-23.81A11.18,11.18,0,1,0,457,244.94,11.26,11.26,0,0,0,445.67,233.76Z" transform="translate(0 0)"/><ellipse class="cls-12" cx="432.48" cy="281.8" rx="4.45" ry="3.44" transform="translate(-24.04 40.89) rotate(-5.27)"/><path class="cls-12" d="M440.53,282.48a44.42,44.42,0,0,1-6,.17l.08-1.89c23.17.91,41-17.6,41.16-17.78l1.4,1.3C477,264.45,461.56,280.47,440.53,282.48Z" transform="translate(0 0)"/><path class="cls-5" d="M400.43,230.08c1.85-12.83,8.66-27,19.8-34.23,10-6.5,23.34-6.91,34.34-2.74,9.48,3.59,15.76,11.6,18.85,20.94,2.63,8,3,16.13,3.6,24.39.2,2.73,4.52,2.75,4.32,0-.58-7.86-.91-15.7-3.08-23.35-2.84-10-8.65-19.09-18.05-24.09-11.2-5.95-26-6.59-37.6-1.34-9.4,4.27-16.28,12.58-20.64,21.67a61.51,61.51,0,0,0-5.7,17.62c-.39,2.69,3.77,3.85,4.16,1.13Z" transform="translate(0 0)"/><ellipse class="cls-5" cx="476.84" cy="252.16" rx="14.8" ry="18.19"/><ellipse class="cls-8" cx="479.17" cy="252.16" rx="14.06" ry="17.28"/><rect class="cls-14" x="503.46" y="111.45" width="90.09" height="59.68" rx="4.76"/><rect class="cls-6" x="501.35" y="109.45" width="90.09" height="59.68" rx="4.76"/><path class="cls-15" d="M552.5,120.37a10.65,10.65,0,0,1,4.34,3.6,8.87,8.87,0,0,1,1.58,5.11,9.11,9.11,0,0,1-.72,3.74,10.25,10.25,0,0,1-1.77,2.75,28.08,28.08,0,0,1-2.76,2.57,22,22,0,0,0-3.43,3.5,6.26,6.26,0,0,0-1.12,3.81v.74a1.37,1.37,0,0,1-.43,1,1.4,1.4,0,0,1-1,.42h-2a1.45,1.45,0,0,1-1.45-1.43v-1.11a8.75,8.75,0,0,1,.76-3.73,10.09,10.09,0,0,1,1.79-2.73c.7-.74,1.63-1.64,2.81-2.7a21.79,21.79,0,0,0,3.35-3.37,5.6,5.6,0,0,0,1.1-3.47,4.65,4.65,0,0,0-2.15-4,8.77,8.77,0,0,0-5.14-1.48,7.83,7.83,0,0,0-4.82,1.43,7.56,7.56,0,0,0-2.68,4.39,1.4,1.4,0,0,1-.5.85,1.43,1.43,0,0,1-.89.32h-2.3a1.24,1.24,0,0,1-.86-.35.91.91,0,0,1-.32-.82,10.79,10.79,0,0,1,1.58-4.87,10.94,10.94,0,0,1,4.18-3.92,13.43,13.43,0,0,1,6.61-1.53A14.57,14.57,0,0,1,552.5,120.37Zm-3.77,35.88a1.39,1.39,0,0,1-1,.43h-3.05a1.36,1.36,0,0,1-1-.43,1.33,1.33,0,0,1-.43-1v-3a1.35,1.35,0,0,1,.43-1,1.39,1.39,0,0,1,1-.42h3.05a1.42,1.42,0,0,1,1,.42,1.38,1.38,0,0,1,.42,1v3A1.36,1.36,0,0,1,548.73,156.25Z" transform="translate(0 0)"/><path class="cls-14" d="M401.38,55.67h-71.8a9.1,9.1,0,0,0-9.15,9v41.61a9.1,9.1,0,0,0,9.15,9h50.93L399.8,128.9V115.36h1.58a9.1,9.1,0,0,0,9.15-9V64.71A9.1,9.1,0,0,0,401.38,55.67Z" transform="translate(0 0)"/><path class="cls-6" d="M399.23,53.74H327.42a9.09,9.09,0,0,0-9.15,9v41.6a9.1,9.1,0,0,0,9.15,9h50.93L397.65,127V113.42h1.58a9.09,9.09,0,0,0,9.14-9V62.78A9.08,9.08,0,0,0,399.23,53.74Z" transform="translate(0 0)"/><path class="cls-15" d="M327.72,60.58" transform="translate(0 0)"/><path class="cls-15" d="M398.93,69.15H327.72a.71.71,0,0,0,0,1.42h71.21a.71.71,0,0,0,0-1.42Z" transform="translate(0 0)"/><path class="cls-15" d="M398.93,78.43H327.72a.71.71,0,0,0,0,1.42h71.21a.71.71,0,0,0,0-1.42Z" transform="translate(0 0)"/><path class="cls-15" d="M377.65,87.7H327.72a.72.72,0,0,0,0,1.43h49.93a.72.72,0,0,0,0-1.43Z" transform="translate(0 0)"/><path class="cls-15" d="M377.65,97H327.72a.72.72,0,0,0,0,1.43h49.93a.72.72,0,0,0,0-1.43Z" transform="translate(0 0)"/><path class="cls-14" d="M362.92,129.83H316.28a5.9,5.9,0,0,0-5.94,5.87v27a5.89,5.89,0,0,0,5.94,5.87h33.08l12.54,8.8v-8.8h1a5.9,5.9,0,0,0,5.94-5.87v-27A5.91,5.91,0,0,0,362.92,129.83Z" transform="translate(0 0)"/><path class="cls-6" d="M361.52,128.57H314.87a5.91,5.91,0,0,0-5.94,5.88v27a5.91,5.91,0,0,0,5.94,5.88H348l12.54,8.79v-8.79h1a5.91,5.91,0,0,0,5.94-5.88v-27A5.91,5.91,0,0,0,361.52,128.57Z" transform="translate(0 0)"/><path class="cls-15" d="M315.07,133" transform="translate(0 0)"/><path class="cls-15" d="M361.33,138.58H315.07a.47.47,0,0,0,0,.93h46.26a.47.47,0,0,0,0-.93Z" transform="translate(0 0)"/><path class="cls-15" d="M361.33,144.61H315.07a.47.47,0,0,0,0,.93h46.26a.47.47,0,0,0,0-.93Z" transform="translate(0 0)"/><path class="cls-15" d="M347.51,150.64H315.07a.46.46,0,0,0,0,.92h32.44a.46.46,0,0,0,0-.92Z" transform="translate(0 0)"/><path class="cls-15" d="M347.51,156.67H315.07a.46.46,0,0,0,0,.92h32.44a.46.46,0,0,0,0-.92Z" transform="translate(0 0)"/><rect class="cls-14" x="189.95" y="196.56" width="90.09" height="59.68" rx="4.76"/><rect class="cls-6" x="187.28" y="194.19" width="90.09" height="59.68" rx="4.76"/><path class="cls-15" d="M224.1,208.29C224.74,215,232,214,232,214c4.46.65,3.79,10.29,3.79,10.29s-.47,9.65-5,9.78c0,0-7.12-1.9-8.55,4.73s2.61,10,9.21,9.59c0,0,9.14-.88,10.5-24,.75-23.39-7.63-24.58-7.63-24.58C227.88,198.62,223.46,201.53,224.1,208.29Z" transform="translate(0 0)"/><path class="cls-5" d="M514.76,488c21.6-10.45,36.54-30.37,48.08-50.84C583.76,400,596.38,357,589.38,315.3,588,307.11,585,298,577.13,294.61a18.07,18.07,0,0,0-11.93-.43c-7.7,2.2-13.65,8.34-17.24,15.27s-5.12,14.64-6.56,22.25c-10.16,53.95-17.34,108.86-36.81,160.38" transform="translate(0 0)"/><path class="cls-16" d="M511,488.85c16.71-7.68,35.84-31.23,45.13-47,16.84-28.53,29.33-58.15,25-90.88-.85-6.41-2.91-13.62-8.82-16.41a13.49,13.49,0,0,0-9.08-.61c-5.92,1.55-10.61,6.22-13.51,11.54s-4.26,11.32-5.54,17.23c-9.06,41.89-15.86,84.6-32,124.38" transform="translate(0 0)"/><path class="cls-6" d="M569.75,317.08c-1.79,12.91-3.65,25.82-5.9,38.66s-4.85,25.41-8.15,37.94a255.66,255.66,0,0,1-11.31,34,247.1,247.1,0,0,1-16.1,31.76A221,221,0,0,1,508,488q-1.38,1.63-2.79,3.24c-.2.22.14.55.34.33a215.2,215.2,0,0,0,20.72-27.93,241.52,241.52,0,0,0,28.61-65.09c3.5-12.59,6.27-25.35,8.62-38.18s4.27-25.77,6.08-38.69c.22-1.53.43-3.05.64-4.58,0-.29-.44-.29-.48,0Z" transform="translate(0 0)"/><path class="cls-5" d="M523.18,485.66A317,317,0,0,0,573.54,493c27.66,1.58,61.55.59,83.51-16.1,7.12-5.42,13.34-14.29,10.43-22.7-1.85-5.33-7.08-9-12.6-10.43s-11.34-1-17-.35a258.17,258.17,0,0,0-114.69,42.25" transform="translate(0 0)"/><path class="cls-16" d="M529.41,484.34a259.37,259.37,0,0,0,39.08,5.31c21.46,1.12,47.76.34,64.83-11.95,5.54-4,10.38-10.51,8.13-16.67-1.43-3.92-5.48-6.6-9.76-7.65s-8.8-.71-13.21-.23a208.39,208.39,0,0,0-89.07,31.19" transform="translate(0 0)"/><path class="cls-6" d="M644.79,461.83q-11.53,2.57-23.07,5.13-11.79,2.6-23.61,5.09t-23.85,4.83q-11.88,2.3-23.8,4.33c-7.84,1.32-15.71,2.54-23.59,3.6l-2.86.38c-.34.05-.33.58,0,.54q11.78-1.55,23.48-3.5c7.93-1.3,15.83-2.73,23.72-4.23s15.93-3.12,23.87-4.77,15.86-3.37,23.77-5.1,15.51-3.43,23.27-5.16l2.81-.63c.34-.08.18-.59-.16-.51Z" transform="translate(0 0)"/><path class="cls-5" d="M516.57,483.43c31.39-1.62,66.41-20,91.56-38.69,16.55-12.27,32.9-25.3,45.12-41.8a116.76,116.76,0,0,0,20.45-45.6c2.23-10.76,1.85-24.13-7.54-30-5.07-3.17-11.69-3.18-17.34-1.2s-10.48,5.75-14.86,9.8c-12.49,11.55-22.06,25.77-31.79,39.67-25.33,36.21-56.77,74.27-85.6,107.82" transform="translate(0 0)"/><path class="cls-16" d="M525,479.06c24.24-1.2,51.29-14.77,70.71-28.5,12.79-9,25.42-18.63,34.86-30.79a84.09,84.09,0,0,0,15.79-33.58c1.72-7.92,1.42-17.76-5.82-22.09-3.92-2.33-9-2.34-13.4-.88s-8.09,4.23-11.47,7.22c-9.65,8.5-17,19-24.56,29.21-19.56,26.67-43.85,54.7-66.11,79.41" transform="translate(0 0)"/><path class="cls-6" d="M654,353.31l-27.59,33.33c-8.16,9.87-16.27,19.79-24.6,29.51-7.67,9-15.57,17.73-24,26a218.46,218.46,0,0,1-26.71,22.71,144.84,144.84,0,0,1-30.55,16.79c-1.33.52-2.67,1-4,1.51-.33.11-.19.63.14.51a140.4,140.4,0,0,0,30.93-15.75,204,204,0,0,0,27.09-22c8.6-8.18,16.65-16.92,24.42-25.86,8.21-9.44,16.13-19.12,24.1-28.75l27.68-33.44,3.48-4.2c.21-.26-.17-.64-.39-.37Z" transform="translate(0 0)"/><g class="cls-17"><path class="cls-5" d="M617.83,452.24c6.32-1.92,11.95-5.43,17.25-9.26,2.81-2,5.55-4.14,8.3-6.24,3-2.29,6-4.59,9-6.94q8.46-6.69,16.56-13.82t15.86-14.71q7.74-7.56,15.07-15.51l1.77-1.93c.42-.46-.26-1.14-.68-.68q-7.23,7.94-14.85,15.49t-15.65,14.7q-8,7.16-16.39,13.89c-5.71,4.58-11.53,9-17.4,13.41-5.21,3.88-10.67,7.63-16.81,9.92-.75.27-1.5.53-2.26.76-.6.18-.35,1.11.25.92Z" transform="translate(0 0)"/><path class="cls-5" d="M698.89,385.63a13,13,0,0,1,6.5-10c1.47-.81,3.47-1.26,4.7-.12a3.08,3.08,0,0,1,.53,3.4,7.57,7.57,0,0,1-2.34,2.79,28.85,28.85,0,0,1-9.58,5.18" transform="translate(0 0)"/><path class="cls-5" d="M694.92,390.53c-1.75-1.13-2.53-3.26-2.92-5.29a9.69,9.69,0,0,1,0-4.32,4.73,4.73,0,0,1,2.7-3.24,1.22,1.22,0,0,1,.65-.1,1.24,1.24,0,0,1,.57.29,4.09,4.09,0,0,1,1.34,2.83,9.46,9.46,0,0,1-.39,3.16,33,33,0,0,1-2.55,6.85" transform="translate(0 0)"/><path class="cls-5" d="M685.89,399a4.79,4.79,0,0,1-1.82-1.34c-1.45-1.47-3-3.09-3.26-5.12a7.47,7.47,0,0,1,.35-3.07,6.08,6.08,0,0,1,2.69-3.92,2.28,2.28,0,0,1,1.57-.26,2.15,2.15,0,0,1,1.4,1.31,5.35,5.35,0,0,1,.3,1.95A34.13,34.13,0,0,1,685.89,399" transform="translate(0 0)"/><path class="cls-5" d="M675.86,409.24c-.19.17-.48,0-.68-.13a14.67,14.67,0,0,1-4.41-5.12,9.73,9.73,0,0,1-.82-6.61,3.77,3.77,0,0,1,1.68-2.49,3.19,3.19,0,0,1,3.63.81,6.46,6.46,0,0,1,1.48,3.61c.49,3.52-.32,7.07-1.13,10.52" transform="translate(0 0)"/><path class="cls-5" d="M664.61,419.55a5.91,5.91,0,0,1-2.49-2,18,18,0,0,1-4-6.69,8.25,8.25,0,0,1,1.25-7.42,3.16,3.16,0,0,1,2.71-1.34,3.22,3.22,0,0,1,1.95,1.28c2.05,2.53,2.12,6.08,1.79,9.3a52.92,52.92,0,0,1-1,6" transform="translate(0 0)"/><path class="cls-5" d="M650.13,431a19,19,0,0,1-7.26-14.31c0-2.12.54-4.63,2.54-5.41a4,4,0,0,1,3.87.83,7.55,7.55,0,0,1,2.11,3.5c1.47,4.61.56,9.6-.37,14.35" transform="translate(0 0)"/><path class="cls-5" d="M686.32,399.57c3.22-1.39,6.9-1,10.37-.5.85.12,1.82.35,2.17,1.11a2,2,0,0,1-.53,2.08,5.25,5.25,0,0,1-3.55,1.61,9.4,9.4,0,0,1-3.92-.67,12,12,0,0,1-5.15-3.48" transform="translate(0 0)"/><path class="cls-5" d="M695.11,390.22c3.22-1.39,6.91-1,10.38-.5.84.12,1.81.35,2.17,1.11a2,2,0,0,1-.54,2.08,5.23,5.23,0,0,1-3.55,1.61,9.43,9.43,0,0,1-3.92-.67,12,12,0,0,1-5.14-3.48" transform="translate(0 0)"/><path class="cls-5" d="M676,409.06a15,15,0,0,1,13,.13,3.54,3.54,0,0,1,2,2,2.46,2.46,0,0,1-.76,2.32,4.66,4.66,0,0,1-2.3,1.1,10.35,10.35,0,0,1-5.84-.65,19.69,19.69,0,0,1-5-3.09,3.51,3.51,0,0,1-1.42-1.82" transform="translate(0 0)"/><path class="cls-5" d="M664.74,418.89c3.91-1.35,8.22-.57,12.23.48,1.55.41,3.25,1,4,2.35,1,1.74-.1,4.07-1.86,5a7.39,7.39,0,0,1-5.82.09,16.67,16.67,0,0,1-8.42-7.12" transform="translate(0 0)"/><path class="cls-5" d="M650.84,430a14.66,14.66,0,0,1,9.29.47,43,43,0,0,1,8.35,4.4c1.3.81,2.73,1.84,2.85,3.35A3.1,3.1,0,0,1,670,440.9a6.38,6.38,0,0,1-2.93,1c-5.38.72-10.84-2.11-14.16-6.36-1.41-1.81-2.53-4-2.3-6.29" transform="translate(0 0)"/><path class="cls-5" d="M633.72,443.93c-.17.27-.59.08-.82-.14a17.2,17.2,0,0,1-5.19-15.06,7.64,7.64,0,0,1,1-3,8.27,8.27,0,0,1,3.9-2.86,2.06,2.06,0,0,1,1.13-.23,2,2,0,0,1,1.18.88,13.73,13.73,0,0,1,2.43,10,24.85,24.85,0,0,1-3.74,9.82" transform="translate(0 0)"/><path class="cls-5" d="M632.73,443.87a14,14,0,0,1,7.48-.8,36.75,36.75,0,0,1,7.33,2,11.85,11.85,0,0,1,4.85,2.68c1.28,1.35,1.84,3.55.78,5.07s-3.13,1.78-4.95,1.74a18.43,18.43,0,0,1-10.14-3,11.8,11.8,0,0,1-5.23-8.86" transform="translate(0 0)"/></g><g class="cls-17"><path class="cls-5" d="M587.4,401.21c4-5.19,6.56-11.28,8.63-17.43,1.1-3.26,2.1-6.55,3.12-9.84,1.11-3.59,2.21-7.18,3.25-10.8q3-10.29,5.41-20.74t4.33-21.08q1.88-10.59,3.2-21.27c.1-.86.21-1.73.31-2.59.07-.61-.89-.78-1-.17q-1.25,10.6-3,21.14t-4.14,20.94q-2.34,10.42-5.24,20.71c-2,7-4.1,14-6.33,20.89-2,6.15-4.22,12.33-7.9,17.71-.44.66-.91,1.29-1.4,1.92s.38,1.1.76.61Z" transform="translate(0 0)"/><path class="cls-5" d="M614.48,300.49a12.83,12.83,0,0,1-.57-11.89c.72-1.5,2.09-3,3.76-2.79a3.15,3.15,0,0,1,2.43,2.47,7.41,7.41,0,0,1-.28,3.61A28.15,28.15,0,0,1,615,301.6" transform="translate(0 0)"/><path class="cls-5" d="M614.11,306.75c-2.09.09-4-1.2-5.47-2.63a9.76,9.76,0,0,1-2.55-3.51,4.65,4.65,0,0,1,.3-4.19,1.3,1.3,0,0,1,.47-.46,1.26,1.26,0,0,1,.64-.08,4.1,4.1,0,0,1,2.74,1.53,9.69,9.69,0,0,1,1.54,2.8,33.77,33.77,0,0,1,1.93,7.05" transform="translate(0 0)"/><path class="cls-5" d="M611.71,318.84a4.85,4.85,0,0,1-2.27,0c-2-.37-4.23-.82-5.65-2.32a7.52,7.52,0,0,1-1.52-2.7,6.08,6.08,0,0,1-.1-4.73,2.32,2.32,0,0,1,1.13-1.12,2.2,2.2,0,0,1,1.91.27,5.65,5.65,0,0,1,1.39,1.41,34.61,34.61,0,0,1,5.11,9.23" transform="translate(0 0)"/><path class="cls-5" d="M609.52,332.93c0,.24-.37.29-.62.28a14.93,14.93,0,0,1-6.6-1.66,9.81,9.81,0,0,1-4.54-4.91,3.75,3.75,0,0,1-.09-3,3.18,3.18,0,0,1,3.44-1.42,6.67,6.67,0,0,1,3.32,2.09c2.45,2.59,3.87,5.95,5.24,9.23" transform="translate(0 0)"/><path class="cls-5" d="M606.38,347.77a6,6,0,0,1-3.18-.18,18.36,18.36,0,0,1-7.15-3.19,8.28,8.28,0,0,1-3.32-6.76,3.12,3.12,0,0,1,1.42-2.64,3.2,3.2,0,0,1,2.34-.07c3.15.89,5.28,3.74,6.9,6.55a53.23,53.23,0,0,1,2.74,5.44" transform="translate(0 0)"/><path class="cls-5" d="M601.27,365.36a19.31,19.31,0,0,1-14.3-7.51c-1.29-1.7-2.27-4.08-1.1-5.86a3.93,3.93,0,0,1,3.64-1.54,7.71,7.71,0,0,1,3.77,1.64c3.9,2.92,6.08,7.52,8.1,11.92" transform="translate(0 0)"/><path class="cls-5" d="M612.39,319.05c1.81-3,5-4.77,8.16-6.34a2.66,2.66,0,0,1,2.43-.34,2,2,0,0,1,.77,2,5.17,5.17,0,0,1-2,3.35,9.4,9.4,0,0,1-3.58,1.7,12.23,12.23,0,0,1-6.24.1" transform="translate(0 0)"/><path class="cls-5" d="M614.09,306.39c1.81-3,5-4.77,8.16-6.34a2.67,2.67,0,0,1,2.42-.34,2,2,0,0,1,.78,2,5.17,5.17,0,0,1-2,3.35,9.44,9.44,0,0,1-3.59,1.7,12.19,12.19,0,0,1-6.23.1" transform="translate(0 0)"/><path class="cls-5" d="M609.51,332.72a14.84,14.84,0,0,1,10.63-7.31,3.6,3.6,0,0,1,2.85.47,2.45,2.45,0,0,1,.73,2.33,4.55,4.55,0,0,1-1.23,2.21,10.28,10.28,0,0,1-5.14,2.82,20.31,20.31,0,0,1-5.93.37,3.55,3.55,0,0,1-2.22-.68" transform="translate(0 0)"/><path class="cls-5" d="M606.11,347.15c2.4-3.33,6.37-5.16,10.25-6.6,1.5-.56,3.21-1.07,4.66-.38,1.8.86,2.3,3.37,1.42,5.14a7.36,7.36,0,0,1-4.7,3.41,16.89,16.89,0,0,1-11-1" transform="translate(0 0)"/><path class="cls-5" d="M601.3,364.2a14.5,14.5,0,0,1,7.85-4.94,43.42,43.42,0,0,1,9.38-1.19c1.54-.08,3.31-.07,4.29,1.1a3.09,3.09,0,0,1,.44,2.94,6.22,6.22,0,0,1-1.78,2.52c-4,3.67-10.07,4.49-15.26,2.93a9.29,9.29,0,0,1-5.57-3.82" transform="translate(0 0)"/><path class="cls-5" d="M595.48,385.33c0,.32-.43.4-.75.36a17.51,17.51,0,0,1-13.05-9.3,7.74,7.74,0,0,1-.92-3,8.12,8.12,0,0,1,1.5-4.56,2.13,2.13,0,0,1,.79-.84,2,2,0,0,1,1.48,0,14,14,0,0,1,7.85,6.78,24.83,24.83,0,0,1,2.69,10.15" transform="translate(0 0)"/><path class="cls-5" d="M594.64,385.85a13.87,13.87,0,0,1,5.63-4.93,36.75,36.75,0,0,1,7.16-2.55,12.17,12.17,0,0,1,5.53-.59c1.83.37,3.58,1.84,3.6,3.69s-1.5,3.24-3,4.25a18.48,18.48,0,0,1-10,3.36,12,12,0,0,1-9.45-4.23" transform="translate(0 0)"/></g><g class="cls-17"><path class="cls-5" d="M387.19,412.94c-1-6.46-3.7-12.48-6.76-18.22-1.62-3-3.33-6-5-9-1.85-3.27-3.72-6.55-5.63-9.79q-5.46-9.25-11.41-18.22T346,340q-6.43-8.67-13.32-17L331,321c-.4-.47-1.18.09-.78.57q6.88,8.22,13.33,16.79t12.43,17.45q6,8.88,11.5,18.06c3.75,6.25,7.36,12.59,10.88,19,3.12,5.66,6.08,11.55,7.47,17.9.17.77.31,1.54.43,2.32.1.61,1.06.5,1-.12Z" transform="translate(0 0)"/><path class="cls-5" d="M332.37,323.93a13,13,0,0,1-9.08-7.82c-.6-1.55-.75-3.58.56-4.61a3.16,3.16,0,0,1,3.48,0,7.5,7.5,0,0,1,2.45,2.7,28,28,0,0,1,3.79,10.12" transform="translate(0 0)"/><path class="cls-5" d="M336.68,328.53c-1.38,1.55-3.62,2-5.71,2.09a10.18,10.18,0,0,1-4.32-.61,4.72,4.72,0,0,1-2.85-3.11,1.23,1.23,0,0,1,0-.66,1.18,1.18,0,0,1,.38-.51,4.15,4.15,0,0,1,3-.9,9.92,9.92,0,0,1,3.1.84,34.71,34.71,0,0,1,6.49,3.5" transform="translate(0 0)"/><path class="cls-5" d="M343.85,338.61a4.74,4.74,0,0,1-1.6,1.58c-1.68,1.21-3.52,2.46-5.6,2.44a7.61,7.61,0,0,1-3-.79,6.14,6.14,0,0,1-3.53-3.2,2.21,2.21,0,0,1,0-1.58,2.13,2.13,0,0,1,1.52-1.17,5.54,5.54,0,0,1,2,0,35.4,35.4,0,0,1,10.27,2.74" transform="translate(0 0)"/><path class="cls-5" d="M352.63,349.91c.13.21-.05.47-.23.64a14.82,14.82,0,0,1-5.77,3.57,10,10,0,0,1-6.73-.16,3.8,3.8,0,0,1-2.25-2,3.1,3.1,0,0,1,1.34-3.43,6.67,6.67,0,0,1,3.83-.92c3.59,0,7,1.35,10.36,2.64" transform="translate(0 0)"/><path class="cls-5" d="M361.3,362.42a5.93,5.93,0,0,1-2.34,2.15,18.3,18.3,0,0,1-7.27,2.9,8.47,8.47,0,0,1-7.24-2.31,3.12,3.12,0,0,1-.95-2.84,3.21,3.21,0,0,1,1.57-1.72c2.83-1.64,6.39-1.18,9.57-.39a54.14,54.14,0,0,1,5.85,1.8" transform="translate(0 0)"/><path class="cls-5" d="M370.6,378.25a19.41,19.41,0,0,1-15.37,5c-2.13-.26-4.56-1.21-5.05-3.27a3.87,3.87,0,0,1,1.4-3.67,7.62,7.62,0,0,1,3.81-1.55c4.83-.77,9.69.86,14.31,2.46" transform="translate(0 0)"/><path class="cls-5" d="M344.48,338.27c-.92-3.35,0-6.9,1-10.22.25-.81.61-1.73,1.43-2a2.06,2.06,0,0,1,2,.83,5.13,5.13,0,0,1,1.09,3.71,9,9,0,0,1-1.24,3.74,11.93,11.93,0,0,1-4.23,4.52" transform="translate(0 0)"/><path class="cls-5" d="M336.4,328.3c-.92-3.35,0-6.9,1-10.22.25-.81.61-1.73,1.43-2a2.06,2.06,0,0,1,2,.82,5.14,5.14,0,0,1,1.09,3.71,9.15,9.15,0,0,1-1.24,3.74,12,12,0,0,1-4.23,4.53" transform="translate(0 0)"/><path class="cls-5" d="M352.47,349.78a14.53,14.53,0,0,1,2-12.65,3.6,3.6,0,0,1,2.31-1.71,2.52,2.52,0,0,1,2.21,1.09,4.46,4.46,0,0,1,.76,2.41,10,10,0,0,1-1.49,5.62,19.73,19.73,0,0,1-3.83,4.48,3.59,3.59,0,0,1-2,1.12" transform="translate(0 0)"/><path class="cls-5" d="M360.65,362.19c-.77-4,.64-8.12,2.27-11.89.63-1.45,1.44-3,2.95-3.59,1.87-.69,4.05.69,4.73,2.55a7.19,7.19,0,0,1-.75,5.7,16.65,16.65,0,0,1-8.36,7.21" transform="translate(0 0)"/><path class="cls-5" d="M369.78,377.42a14.22,14.22,0,0,1,1.82-9,42.7,42.7,0,0,1,5.62-7.52c1-1.15,2.24-2.4,3.77-2.3a3.16,3.16,0,0,1,2.45,1.72,6.14,6.14,0,0,1,.61,3c-.06,5.37-3.69,10.29-8.42,12.92a9.35,9.35,0,0,1-6.64,1.33" transform="translate(0 0)"/><path class="cls-5" d="M381.18,396.19c.25.2,0,.59-.25.78a17.7,17.7,0,0,1-15.83,2.89,8,8,0,0,1-2.83-1.43,8.23,8.23,0,0,1-2.3-4.24,2.08,2.08,0,0,1-.07-1.13,2.05,2.05,0,0,1,1.06-1,14.19,14.19,0,0,1,10.39-.92,25.57,25.57,0,0,1,9.27,5.1" transform="translate(0 0)"/><path class="cls-5" d="M381,397.15a13.66,13.66,0,0,1,.29-7.44,35.9,35.9,0,0,1,3.1-6.87,11.83,11.83,0,0,1,3.39-4.35c1.54-1.06,3.82-1.28,5.19,0s1.32,3.31,1,5.09a18.08,18.08,0,0,1-4.48,9.49,12.06,12.06,0,0,1-9.63,3.82" transform="translate(0 0)"/></g><path class="cls-15" d="M458.21,310.77c19.38.81,40.35,6.59,54.53,19.67a9.94,9.94,0,0,1,2.91,3.86c.76,2.25,0,4.69-.75,6.95a140.23,140.23,0,0,0-1.28,81c2,6.9,4.51,13.72,5.19,20.85s-.76,14.87-5.75,20.07a27,27,0,0,1-7.62,5.29c-15.51,7.75-33.73,7.47-51.1,6.75-10.7-.44-21.52-1-31.83-3.89s-20.21-8.37-26.47-17c-6.46-8.87-8.49-20.14-9.31-31-1.86-24.76,1.53-49.59,2-74.42.13-7.22,0-14.66-2.87-21.31,13.23-9,29.05-14.54,44.83-17.65,3.39,4.47,8.14,6.5,13.77,6.78s9.91-1.82,13.74-5.92" transform="translate(0 0)"/><path class="cls-18" d="M510.6,440c-.63-7.14,4.5-15.4,2.67-22.29-4.64-17.53-13.39-34.58-11.51-52.69-4,2-7.59,4.58-9.64,8.47A23.14,23.14,0,0,0,490,384c-.08,7.23,1.29,14.41,1.58,21.63s-.63,14.85-4.75,20.77c-4.75,6.83-12.94,10.28-20.94,12.4a161.9,161.9,0,0,1-16.35,3.26c-6.32,1-12.74,1.81-19.08,1s-12.66-3.41-16.83-8.31c-6.6-7.76-6.41-19-7.59-29.21a90.87,90.87,0,0,0-10-32c-1.58-3-3.44-6-6.3-7.7,0,0,0,0,0,0-1,18.13-11.6,37.16-10.34,55.25.76,10.9,11.91,21.26,17.88,30.13,5.78,8.59,14.92,14.07,24.45,17s19.5,3.45,29.39,3.89c16,.71,32.86,1,47.19-6.75a25.57,25.57,0,0,0,7-5.3C509.9,454.83,511.23,447.1,510.6,440Z" transform="translate(0 0)"/><path class="cls-15" d="M393.94,322.64c6,26.31.83,57.36-5.82,83.51-2,7.77-1.56,16.29,1.26,20.24s7.95,6.54,12.54,8.63c10.69,4.87,18.11,10.61,26.27,19,3.26,3.36,6.26,7.14,7.67,11.59s1,9.67-2,13.26c-2.87,3.44-7.62,4.86-12.13,4.85s-8.91-1.24-13.29-2.25a141.88,141.88,0,0,0-22.37-3.32c-6.51-.43-13.14-.43-19.41-2.25a37.15,37.15,0,0,1-21.27-16.78,43.6,43.6,0,0,1-5.55-26.55,90.81,90.81,0,0,1,3.05-14.45c5.35-19.7,12.73-36.95,19.49-56.23,2.77-7.88,7.86-16.79,12.73-23.6s10.51-14.24,18.83-15.65" transform="translate(0 0)"/><path class="cls-6" d="M396.12,372.74c3.61-16.25,2.33-34.24-1.53-50.28-.2-.83-1.5-.48-1.3.36a123.41,123.41,0,0,1,3.23,34.95,87.69,87.69,0,0,1-1.7,14.62c-.18.84,1.12,1.19,1.3.35Z" transform="translate(0 0)"/><path class="cls-10" d="M445.16,465.79s-17.82-4.38-24.48-.6-16.79,9.28-16.48,16.3v2.87s47.76,1.38,51.63-2.87" transform="translate(0 0)"/><path class="cls-15" d="M498.38,320.66c8.74,1,18.3,11.07,24.34,19.78S532.88,359,537,368.75L559.8,423.6c2.37,5.67,4.74,11.38,5.89,17.4a44.53,44.53,0,0,1,.25,15.19,24.22,24.22,0,0,1-4.53,11.52c-3.68,4.63-9.49,7-15.06,9.09-11.76,4.41-23.82,8.56-36.36,9.41a141.65,141.65,0,0,1-14.86,0c-13.68-.49-27.42-1-40.88-3.46a6.22,6.22,0,0,1-2.75-1,6.34,6.34,0,0,1-1.69-2.49l-4.06-8.77a10.6,10.6,0,0,1-1.38-5.15c.19-2.4,2-4.36,3.77-6a60,60,0,0,1,16.1-10.53c12.13-5.38,26-6.72,37.38-13.5a17.48,17.48,0,0,0,3.83-2.88c4.2-4.41,3.95-11.51,1.6-17.1s-4-10.93-6.32-16.54c-5.15-12.47-7.72-20.61-8-31.27-.4-15.18.75-32.48,5.65-46.87" transform="translate(0 0)"/><path class="cls-18" d="M452.16,456.32a37.84,37.84,0,0,1,3.93,7A58.78,58.78,0,0,1,461,483.28c.06.85,1.41.85,1.35,0a60.39,60.39,0,0,0-4.87-20,37.74,37.74,0,0,0-4.16-7.58c-.51-.69-1.68,0-1.17.67Z" transform="translate(0 0)"/><path class="cls-6" d="M492.8,373.46c-1.12-17.39.23-36.17,6.23-52.62.29-.81-1-1.16-1.3-.36-6,16.55-7.41,35.49-6.28,53,.06.85,1.4.86,1.35,0Z" transform="translate(0 0)"/><rect class="cls-19" x="57.34" y="488.5" width="636.81" height="11.5" rx="3.03"/><rect class="cls-20" x="310.75" y="483.15" width="217.22" height="5.34" rx="0.5"/><polygon class="cls-20" points="406.07 488.5 220.75 488.5 211.8 361.28 393.41 361.28 406.07 488.5"/><polygon class="cls-2" points="399.77 488.5 214.45 488.5 205.5 361.28 387.1 361.28 399.77 488.5"/><ellipse class="cls-21" cx="302.63" cy="424.89" rx="11.07" ry="10.94"/><path class="cls-14" d="M207.05,383.27l7.4,105.12H399.77l-2.47-24.85C299.75,451.07,232.57,404,207.05,383.27Z" transform="translate(0 0)"/></g></svg>