<?xml version="1.0" encoding="utf-8"?>
<!-- Generator: Adobe Illustrator 23.0.5, SVG Export Plug-In . SVG Version: 6.00 Build 0)  -->
<svg version="1.1" id="Layer_1" xmlns="http://www.w3.org/2000/svg" xmlns:xlink="http://www.w3.org/1999/xlink" x="0px" y="0px"
	 viewBox="0 0 456.4 306.4" style="enable-background:new 0 0 456.4 306.4;" xml:space="preserve">
<style type="text/css">
	.st0{fill:#008F57;}
	.st1{clip-path:url(#SVGID_2_);}
	.st2{fill:none;stroke:#79BF4C;stroke-miterlimit:10;}
	.st3{fill:#29BAA3;}
	.st4{clip-path:url(#SVGID_4_);}
	.st5{fill:none;stroke:#4FD3B9;stroke-miterlimit:10;}
	.st6{fill:#79BF4C;}
	.st7{clip-path:url(#SVGID_6_);}
	.st8{fill:none;stroke:#008F57;stroke-miterlimit:10;}
	.st9{fill:#4FD3B9;}
	.st10{clip-path:url(#SVGID_8_);}
	.st11{fill:none;stroke:#29BAA3;stroke-miterlimit:10;}
	.st12{clip-path:url(#SVGID_10_);}
	.st13{clip-path:url(#SVGID_12_);}
	.st14{clip-path:url(#SVGID_14_);}
	.st15{fill:none;stroke:#29BAA3;stroke-miterlimit:10;stroke-dasharray:5.01,5.01;}
	.st16{fill:#FAB594;}
	.st17{fill:#EEAF35;}
	.st18{fill:#FFFFFF;}
	.st19{fill:#1F143F;}
	.st20{fill:#386E8A;}
	.st21{fill:#0091A2;}
	.st22{fill:#FFDB49;}
	.st23{fill:#D99D81;}
	.st24{opacity:0.2;fill:#231F20;enable-background:new    ;}
	.st25{fill:#DFDBDA;}
	.st26{fill:#00A1DD;}
	.st27{fill:#3CB35E;}
	.st28{fill:#009364;}
	.st29{opacity:0.1;fill:#231F20;enable-background:new    ;}
	.st30{fill:#2E3A36;}
	.st31{fill:#D5BFB8;}
	.st32{fill:#938585;}
	.st33{fill:none;stroke:#B8A392;stroke-width:3;stroke-miterlimit:10;}
	.st34{opacity:0.2;fill:#EAEFF2;enable-background:new    ;}
</style>
<title>Daffodil footer</title>
<g id="OBJECTS">
	<path class="st0" d="M188.6,217.3c-2.1,14.9-2.9,30.1-6.2,44.8c-0.7,3.2-1.2,6.8-3.4,9.3c2.3-13.6,2.7-27.5,0-41
		c-1.2-6.2-3.6-12.2-7.9-16.9c-2.7-3-6.1-5.4-8.4-8.8c-2.3-3.4-3.1-8.3-0.3-11.3c-0.4,0.5-4-1.5-4.5-1.8c-1.5-0.9-2.8-2-4-3.3
		c-2.6-2.7-4.1-6.2-4.4-10c-0.1-1.3,0.4-3,1.7-2.9c-1.9-1.5-3.7-3.2-5.3-5.1c-1.8-2.1-2.8-4.8-2.7-7.6c0.1-2.8,1-3.4,3.5-4.4
		c-0.5-1.4-0.9-2.9-1.2-4.3c-0.3-1.5-0.1-3,0.6-4.4c1.2-2.2,4-3.1,6.3-1.9c0.6,0.3,1.2,0.8,1.6,1.4c0.5-1.7,2-2.8,3.8-2.7
		c1.7,0.2,3.3,0.9,4.5,2c3.5,2.9,4.6,6.9,6.2,11c2.2-0.9,4.7-0.3,6.4,1.3c1.6,1.7,2.7,3.8,3.2,6.1c0.7,3.6,0.9,7.4,0.7,11
		c1.6-1.1,3.7-0.9,5.2,0.3c1.4,1.2,2.4,2.9,2.6,4.8c1.1,5-0.6,10.3-2.5,15c1.5-0.7,3.2-0.4,4.4,0.8c4.1,4,1.1,11.8,0.4,16.6
		C188.7,216.2,188.7,216.7,188.6,217.3z"/>
	<g>
		<defs>
			<path id="SVGID_1_" d="M188.6,217.3c-2.1,14.9-2.9,30.1-6.2,44.8c-0.7,3.2-1.2,6.8-3.4,9.3c2.3-13.6,2.7-27.5,0-41
				c-1.2-6.2-3.6-12.2-7.9-16.9c-2.7-3-6.1-5.4-8.4-8.8c-2.3-3.4-3.1-8.3-0.3-11.3c-0.4,0.5-4-1.5-4.5-1.8c-1.5-0.9-2.8-2-4-3.3
				c-2.6-2.7-4.1-6.2-4.4-10c-0.1-1.3,0.4-3,1.7-2.9c-1.9-1.5-3.7-3.2-5.3-5.1c-1.8-2.1-2.8-4.8-2.7-7.6c0.1-2.8,1-3.4,3.5-4.4
				c-0.5-1.4-0.9-2.9-1.2-4.3c-0.3-1.5-0.1-3,0.6-4.4c1.2-2.2,4-3.1,6.3-1.9c0.6,0.3,1.2,0.8,1.6,1.4c0.5-1.7,2-2.8,3.8-2.7
				c1.7,0.2,3.3,0.9,4.5,2c3.5,2.9,4.6,6.9,6.2,11c2.2-0.9,4.7-0.3,6.4,1.3c1.6,1.7,2.7,3.8,3.2,6.1c0.7,3.6,0.9,7.4,0.7,11
				c1.6-1.1,3.7-0.9,5.2,0.3c1.4,1.2,2.4,2.9,2.6,4.8c1.1,5-0.6,10.3-2.5,15c1.5-0.7,3.2-0.4,4.4,0.8c4.1,4,1.1,11.8,0.4,16.6
				C188.7,216.2,188.7,216.7,188.6,217.3z"/>
		</defs>
		<clipPath id="SVGID_2_">
			<use xlink:href="#SVGID_1_"  style="overflow:visible;"/>
		</clipPath>
		<g class="st1">
			<path class="st2" d="M179,271.4c7.9-40.9,3.9-65.8-10.1-91.1c-9.1-16.3-19.1-32.1-29.9-47.3"/>
		</g>
	</g>
	<path class="st3" d="M147.4,191.5c3.1,1.6,6.1,3.3,8.9,5.3c26.9,19,37.4,55.1,35.2,86.9c-6.4-14.8-15.5-29.3-27.6-40.1
		c-7.3-6.5-13.5-13.7-20.5-20.6c-12.4-12.5-18.1-30.1-15.5-47.5C130,184.1,139.6,187.7,147.4,191.5z"/>
	<g>
		<defs>
			<path id="SVGID_3_" d="M147.4,191.5c3.1,1.6,6.1,3.3,8.9,5.3c26.9,19,37.4,55.1,35.2,86.9c-6.4-14.8-15.5-29.3-27.6-40.1
				c-7.3-6.5-13.5-13.7-20.5-20.6c-12.4-12.5-18.1-30.1-15.5-47.5C130,184.1,139.6,187.7,147.4,191.5z"/>
		</defs>
		<clipPath id="SVGID_4_">
			<use xlink:href="#SVGID_3_"  style="overflow:visible;"/>
		</clipPath>
		<g class="st4">
			<path class="st5" d="M191.4,285.3c-5-22.5-16.5-42.7-29.9-61.2c-12.4-17.1-31.3-33.5-36-55"/>
		</g>
	</g>
	<path class="st6" d="M252.3,223.2c6.3,11.4,11.5,23.5,18.6,34.5c1.6,2.4,3,5.1,5.6,6.5c-6.1-10.2-10.3-21.5-12.4-33.2
		c-1-5.4-0.6-10.9,1.2-16.1c1.3-3.3,3.3-6.2,4.1-9.6s0-7.6-3.2-9.2c0.5,0.3,2.8-2.5,3.1-2.9c0.9-1.2,1.7-2.5,2.3-3.9
		c1.3-3,1.5-6.3,0.5-9.4c-0.3-1-1.3-2.3-2.3-1.8c1.1-1.8,2-3.7,2.8-5.7c0.8-2.3,0.8-4.8-0.1-7c-0.9-2.2-1.9-2.5-4.2-2.5
		c0-1.3-0.1-2.6-0.3-3.9c-0.2-1.3-0.8-2.4-1.8-3.4c-1.7-1.5-4.2-1.3-5.6,0.4c-0.4,0.5-0.7,1-0.9,1.6c-0.9-1.2-2.5-1.6-3.9-1
		c-1.3,0.6-2.4,1.7-3,3c-2,3.4-1.6,7-1.7,10.8c-2.1,0-3.9,1.1-4.8,3c-0.8,1.8-1.1,3.9-0.7,5.9c0.5,3.2,1.5,6.3,2.7,9.2
		c-1.6-0.4-3.3,0.4-4.1,1.8c-0.8,1.4-1,3.1-0.7,4.7c0.7,4.4,3.6,8.2,6.6,11.4c-1.4-0.1-2.7,0.7-3.3,2c-2.1,4.5,2.7,9.9,4.8,13.6
		C251.8,222.4,252,222.8,252.3,223.2z"/>
	<g>
		<defs>
			<path id="SVGID_5_" d="M252.3,223.2c6.3,11.4,11.5,23.5,18.6,34.5c1.6,2.4,3,5.1,5.6,6.5c-6.1-10.2-10.3-21.5-12.4-33.2
				c-1-5.4-0.6-10.9,1.2-16.1c1.3-3.3,3.3-6.2,4.1-9.6s0-7.6-3.2-9.2c0.5,0.3,2.8-2.5,3.1-2.9c0.9-1.2,1.7-2.5,2.3-3.9
				c1.3-3,1.5-6.3,0.5-9.4c-0.3-1-1.3-2.3-2.3-1.8c1.1-1.8,2-3.7,2.8-5.7c0.8-2.3,0.8-4.8-0.1-7c-0.9-2.2-1.9-2.5-4.2-2.5
				c0-1.3-0.1-2.6-0.3-3.9c-0.2-1.3-0.8-2.4-1.8-3.4c-1.7-1.5-4.2-1.3-5.6,0.4c-0.4,0.5-0.7,1-0.9,1.6c-0.9-1.2-2.5-1.6-3.9-1
				c-1.3,0.6-2.4,1.7-3,3c-2,3.4-1.6,7-1.7,10.8c-2.1,0-3.9,1.1-4.8,3c-0.8,1.8-1.1,3.9-0.7,5.9c0.5,3.2,1.5,6.3,2.7,9.2
				c-1.6-0.4-3.3,0.4-4.1,1.8c-0.8,1.4-1,3.1-0.7,4.7c0.7,4.4,3.6,8.2,6.6,11.4c-1.4-0.1-2.7,0.7-3.3,2c-2.1,4.5,2.7,9.9,4.8,13.6
				C251.8,222.4,252,222.8,252.3,223.2z"/>
		</defs>
		<clipPath id="SVGID_6_">
			<use xlink:href="#SVGID_5_"  style="overflow:visible;"/>
		</clipPath>
		<g class="st7">
			<path class="st8" d="M276.4,264.2c-18.8-30.7-23.1-52.2-19.5-77c2.5-16,5.7-31.8,9.9-47.4"/>
		</g>
	</g>
	<path class="st9" d="M224.1,165.1c3.2,2,6.3,4.2,9.2,6.7c27.6,23.3,35.5,63.8,30,98.2c-5.5-16.7-14.1-33.5-26.2-46.4
		c-7.3-7.8-13.4-16.3-20.3-24.4c-12.3-14.8-16.9-34.6-12.3-53.3C206,155.2,216,160.1,224.1,165.1z"/>
	<g>
		<defs>
			<path id="SVGID_7_" d="M224.1,165.1c3.2,2,6.3,4.2,9.2,6.7c27.6,23.3,35.5,63.8,30,98.2c-5.5-16.7-14.1-33.5-26.2-46.4
				c-7.3-7.8-13.4-16.3-20.3-24.4c-12.3-14.8-16.9-34.6-12.3-53.3C206,155.2,216,160.1,224.1,165.1z"/>
		</defs>
		<clipPath id="SVGID_8_">
			<use xlink:href="#SVGID_7_"  style="overflow:visible;"/>
		</clipPath>
		<g class="st10">
			<path class="st11" d="M263.1,271.5c-3.3-25-13.9-48.2-26.7-69.7c-11.9-19.9-30.9-39.6-33.9-63.5"/>
		</g>
	</g>
	<path class="st3" d="M277,186.8c-2.4,3.1-4.6,6.3-6.5,9.7c-18.3,32.1-11.7,73.8,5.7,105c-0.6-18,1.8-37.2,8.9-53.8
		c4.3-10.1,7.2-20.4,11-30.6c6.6-18.6,4.1-39.2-6.9-55.6C291,170.9,283,179.2,277,186.8z"/>
	<g>
		<defs>
			<path id="SVGID_9_" d="M277,186.8c-2.4,3.1-4.6,6.3-6.5,9.7c-18.3,32.1-11.7,73.8,5.7,105c-0.6-18,1.8-37.2,8.9-53.8
				c4.3-10.1,7.2-20.4,11-30.6c6.6-18.6,4.1-39.2-6.9-55.6C291,170.9,283,179.2,277,186.8z"/>
		</defs>
		<clipPath id="SVGID_10_">
			<use xlink:href="#SVGID_9_"  style="overflow:visible;"/>
		</clipPath>
		<g class="st12">
			<path class="st5" d="M276.9,303c-5.6-25.2-3.6-51.3,1.2-76.5c4.4-23.3,15.9-49,10.3-73"/>
		</g>
	</g>
	<path class="st3" d="M216.9,192.9c-1.9,2.5-3.6,5.1-5.1,7.8c-14.4,25.8-8.8,59.1,5.3,83.9c-0.6-14.4,1.2-29.7,6.7-43.1
		c3.4-8.1,5.6-16.3,8.6-24.6c5.2-14.9,3-31.4-5.9-44.4C228,180.1,221.7,186.8,216.9,192.9z"/>
	<g>
		<defs>
			<path id="SVGID_11_" d="M216.9,192.9c-1.9,2.5-3.6,5.1-5.1,7.8c-14.4,25.8-8.8,59.1,5.3,83.9c-0.6-14.4,1.2-29.7,6.7-43.1
				c3.4-8.1,5.6-16.3,8.6-24.6c5.2-14.9,3-31.4-5.9-44.4C228,180.1,221.7,186.8,216.9,192.9z"/>
		</defs>
		<clipPath id="SVGID_12_">
			<use xlink:href="#SVGID_11_"  style="overflow:visible;"/>
		</clipPath>
		<g class="st13">
			<path class="st5" d="M217.7,285.8c-4.7-20.1-3.3-41,0.4-61.2c3.4-18.7,12.3-39.3,7.7-58.5"/>
		</g>
	</g>
	<path class="st6" d="M182.3,236.3c3,13.2,4.9,26.8,9,39.8c0.9,2.8,1.6,6,3.8,8.1c-3.3-12-4.3-24.5-3.1-36.8
		c0.6-5.6,2.3-11.3,5.8-15.8c2.2-2.9,5.1-5.3,6.9-8.5c1.8-3.2,2.1-7.7-0.6-10.1c0.4,0.4,3.5-1.7,3.9-2c1.3-0.9,2.4-2,3.4-3.2
		c2.1-2.6,3.2-5.9,3.2-9.3c0-1.1-0.6-2.6-1.8-2.5c1.6-1.5,3.1-3.2,4.4-5c1.4-2,2.1-4.5,1.9-7c-0.3-2.5-1.2-3-3.5-3.7
		c0.4-1.3,0.6-2.6,0.8-4c0.1-1.3-0.2-2.7-0.8-3.9c-1.3-1.9-3.9-2.5-5.8-1.2c-0.5,0.4-1,0.8-1.3,1.4c-0.5-1.5-2-2.3-3.6-2.1
		c-1.5,0.3-2.9,1-3.9,2.2c-2.9,2.9-3.6,6.5-4.8,10.4c-2.1-0.6-4.3,0.1-5.7,1.7c-1.3,1.6-2.2,3.6-2.4,5.7c-0.3,3.3-0.3,6.7,0.2,10
		c-1.5-0.8-3.4-0.6-4.6,0.7c-1.2,1.2-1.9,2.8-2,4.5c-0.6,4.6,1.3,9.2,3.4,13.3c-1.4-0.5-2.9-0.1-3.9,1.1c-3.4,3.9-0.1,10.7,1,14.9
		C182,235.4,182.2,235.8,182.3,236.3z"/>
	<g>
		<defs>
			<path id="SVGID_13_" d="M182.3,236.3c3,13.2,4.9,26.8,9,39.8c0.9,2.8,1.6,6,3.8,8.1c-3.3-12-4.3-24.5-3.1-36.8
				c0.6-5.6,2.3-11.3,5.8-15.8c2.2-2.9,5.1-5.3,6.9-8.5c1.8-3.2,2.1-7.7-0.6-10.1c0.4,0.4,3.5-1.7,3.9-2c1.3-0.9,2.4-2,3.4-3.2
				c2.1-2.6,3.2-5.9,3.2-9.3c0-1.1-0.6-2.6-1.8-2.5c1.6-1.5,3.1-3.2,4.4-5c1.4-2,2.1-4.5,1.9-7c-0.3-2.5-1.2-3-3.5-3.7
				c0.4-1.3,0.6-2.6,0.8-4c0.1-1.3-0.2-2.7-0.8-3.9c-1.3-1.9-3.9-2.5-5.8-1.2c-0.5,0.4-1,0.8-1.3,1.4c-0.5-1.5-2-2.3-3.6-2.1
				c-1.5,0.3-2.9,1-3.9,2.2c-2.9,2.9-3.6,6.5-4.8,10.4c-2.1-0.6-4.3,0.1-5.7,1.7c-1.3,1.6-2.2,3.6-2.4,5.7c-0.3,3.3-0.3,6.7,0.2,10
				c-1.5-0.8-3.4-0.6-4.6,0.7c-1.2,1.2-1.9,2.8-2,4.5c-0.6,4.6,1.3,9.2,3.4,13.3c-1.4-0.5-2.9-0.1-3.9,1.1c-3.4,3.9-0.1,10.7,1,14.9
				C182,235.4,182.2,235.8,182.3,236.3z"/>
		</defs>
		<clipPath id="SVGID_14_">
			<use xlink:href="#SVGID_13_"  style="overflow:visible;"/>
		</clipPath>
		<g class="st14">
			<path class="st8" d="M195,284.1c-10.3-36.1-8.6-58.8,2.1-82.6c6.9-15.3,14.7-30.3,23.2-44.8"/>
		</g>
	</g>
	<path class="st11" d="M287.8,79.5l-2.5,0.3"/>
	<path class="st15" d="M280.3,80.2c-14.1,1.1-28.3,0.7-42.3-1.3c-11.7-1.7-23.8-4.7-32.5-12.7c-3.3-3.1-5.6-8.4-5-12.9
		s4-8.5,8.5-8.9c11.8-1.1,19.4,12.8,21.5,22.5c2.4,11.1,1.2,26.3-9.8,32.6c-5.8,3.3-14.5,2.1-17.7-3.8c-0.8-1.3-1.1-2.8-0.9-4.2
		c0.5-3,4.1-4.9,7-4.1s5.2,3.4,6,6.4c0.7,3,0.6,6.1-0.2,9.1c-0.6,3.3-1.8,6.4-3.6,9.2c-4.6,7-13.7,10.3-22.1,9.8
		c-7.9-0.5-11.8-6.3-16.9-11.5c-7.3-7.5-16.4-10.3-26.7-9.7c-8.1,0.5-15.6,4.1-23.4,6.3s-16.9,2.8-23.3-2.1
		c-2.3-1.7-4.2-4.5-3.6-7.3s3.5-4.6,6.4-4.7s5.6,1,8.1,2.4c2.4,1.1,4.4,2.7,6.1,4.7c2.8,3.7,3,8.8,2.1,13.3
		c-2.4,13.5-12.2,24.7-23.7,32.2c-2.4,1.6-5,3.1-6.5,5.7c-2.6,4.4-0.8,10.2,2.3,14.2s7.3,7.2,10.1,11.5c7.7,11.4,2.3,23.4-5.6,32.7
		c-2.9,3.4-6.8,5.9-11.1,6.9"/>
	<path class="st11" d="M81,216.6c-0.8,0.1-1.7,0.1-2.5,0.1"/>
	<path class="st16" d="M61,199.4l0.2,0.3l4.7-6.8c1.8-2.6,3.6-5.3,6.4-6.8c0.5-0.4,1.1-0.5,1.7-0.3c1.9,1-0.2,5.2-0.8,6.4
		c-2.3,4.5-4.5,9.4-7.4,13.6s-7.3,0.7-9.7-1.8c-3.4-3.4-8.9-7.1-9.9-12.2c-0.3-1.3,0.5-3.1,1.8-3c0.5,0,1.1,0.2,1.5,0.6
		C53.7,192.1,57.6,195.5,61,199.4z"/>
	<path class="st17" d="M47.6,183.9c2.3,0.7,4.5,2.9,5.6,4.4c0.4,0.6,4.6,4.8,4.6,4.8c-2.2,2.5-4.6,4.8-7.2,6.8
		c-0.1,0.1-0.3,0.2-0.5,0.2c-0.2,0-0.3-0.1-0.4-0.2c-1.9-1.3-3.2-3.4-4.6-5.1c-2.2-2.6-4.2-8.7-0.3-10.8
		C45.6,183.7,46.6,183.6,47.6,183.9z"/>
	<polygon class="st18" points="66.5,171.8 80,163.3 91.6,183.2 80.2,192.2 	"/>
	<path class="st16" d="M74.4,189.5c-0.2,0.2-0.4,0.4-0.6,0.6c-0.6,0.6-1.9,2.5-3,1.5c-0.3-0.3-0.4-0.8-0.7-1.1
		c-0.4-0.4-0.8-0.7-1.3-0.9c-0.1,0-0.2-0.1-0.2-0.2c0-0.1,0-0.2,0.1-0.3c0.6-0.8,1.3-1.5,1.8-2.4c0.3-0.6,0.5-1.3,0.4-2
		c0-2.3,0.9-4.6,1.5-6.8c0.1-0.5,0.5-1.8,1.2-1.6c0.2,0.1,0.4,0.2,0.4,0.4c0.1,0.2,0.2,0.3,0.2,0.5c0.3,1.4-0.7,2.6-0.8,3.9
		c0,0.9,0.4,1.7,1,2.4c0.7,1.1,1.6,2.2,2.5,3.2c0.1,0.1,0.1,0.2,0.2,0.3c0,0.1-0.1,0.3-0.2,0.4c-0.3,0.5-0.6,0.9-1,1.3
		C75.5,189.1,74.9,189.1,74.4,189.5z"/>
	<path class="st19" d="M55.4,287.9c0.3,0,0.5,0,0.8,0.1c0.2,0.1,0.4,0.3,0.4,0.6c0,0.2-0.1,0.3-0.2,0.4c-0.6,0.5-1.4,0.8-2.2,0.6
		l-8.7-0.2c-0.1,0-0.3,0-0.4-0.1c-0.1-0.1-0.2-0.2-0.3-0.3c-0.5-0.9-0.6-2-0.3-3c0.3-1,0.5-2,0.6-3c0-0.4-0.1-0.8,0.2-1
		c0.1-0.1,0.3-0.2,0.5-0.2c0.9-0.2,1.9-0.3,2.8-0.3c-0.1,1.1-0.1,2.2,0,3.3C49.5,287.4,53.1,287.8,55.4,287.9z"/>
	<path class="st19" d="M43,287.9c0.3,0,0.5,0,0.8,0.1c0.3,0.1,0.5,0.5,0.4,0.8c0,0.1-0.1,0.1-0.1,0.2c-0.6,0.5-1.4,0.8-2.2,0.6
		l-8.7-0.2c-0.1,0-0.3,0-0.4-0.1c-0.1-0.1-0.2-0.2-0.3-0.3c-0.5-0.9-0.6-2-0.3-3c0.3-1,0.5-2,0.6-3c0-0.4-0.1-0.8,0.2-1
		c0.1-0.1,0.3-0.2,0.5-0.2c0.9-0.2,1.9-0.3,2.8-0.3c-0.1,1.1-0.1,2.2,0,3.3C37.1,287.4,40.7,287.8,43,287.9z"/>
	<path class="st20" d="M40.9,218c-1.8,0.1-3.5,0.6-5.1,1.3c-4.3,1.8-1.2,11.1-0.3,14.5c1.2,4.2,2.3,8.4,3.5,12.7
		c1.8,6.9,3,14,3.4,21.1c0.1,1.3,0.9,16,1.1,16l5.8,0.1c0.5,0,1.2-7.8,1.2-8.5c0.2-2.9,0.3-5.8,0.4-8.7c0.8-13.2,0-26.8-0.5-40.1
		c0.1-2.2-0.6-4.4-1.8-6.3c-0.6-0.7-2.1-0.9-3-1.2c-1.1-0.5-2.3-0.8-3.6-0.8C41.6,217.9,41.3,218,40.9,218z"/>
	<path class="st21" d="M28.6,218.4c-0.2,1.3-0.4,2.6-0.4,3.9c-0.8,11.9,0.4,23.9,1.2,35.8c0.6,8.5,1.2,16.9,1.7,25.4l5.8,0.1
		c0.5,0,1.2-7.8,1.2-8.5c0.2-2.9,0.3-5.8,0.4-8.7c0-4.6,0.5-9.3,0.7-13.9c0.3-5.5,0.6-11,1.3-16.4c0.4-3.2,0.9-6.5,1.2-9.7
		c0.3-3,1.2-6.5-0.2-9.3c-0.7-1.5-2-2.7-3.6-3.3c-1.5-0.5-3-0.6-4.5-0.5c-0.8,0-1.7,0.1-2.5,0.3C29.2,214.2,28.9,216.7,28.6,218.4z"
		/>
	<path class="st22" d="M48.8,187.5c0.9,3,0.8,6.7,0.8,9.6l0.6,23.6c0.1,0.5,0,0.9-0.2,1.4c-0.4,0.5-0.9,0.8-1.4,0.9
		c-4.4,1.3-9.1,1.2-13.6,1c-2,0.1-4.1-0.2-6-0.9c-0.4-0.1-0.7-0.3-0.9-0.6c-0.2-0.4-0.3-0.8-0.2-1.2c0.2-6.5,0.7-13,1.6-19.4
		c0.7-5.1,0.4-10.6,2.7-15.3c2.2-4.5,7.5-5.9,12-4.2c1.4,0.5,2.6,1.4,3.4,2.5C48.1,185.7,48.6,186.6,48.8,187.5z"/>
	<path class="st23" d="M42.4,184.1c-1.1,0.5-2.3,0.7-3.5,0.4c-1.9-0.4-1.9-2.5-1.7-4c0.2-1.2,0.8-4.6,2.3-4.8
		c1.6-0.2,3.2,0.6,3.8,2.1c0.2,0.7,0.3,1.4,0.2,2.2c0,1.1,0,3-0.9,3.9C42.6,184,42.5,184,42.4,184.1z"/>
	<path class="st16" d="M37.4,171.6c0.3,1.3,0,2.5-0.7,2.7s-1.6-0.7-1.9-2s0-2.5,0.7-2.7S37,170.3,37.4,171.6z"/>
	<path class="st16" d="M19.5,201.5c-0.6,1.3-1.2,2.5-1.8,3.8c-0.3,0.5-0.4,1-0.2,1.6c0.2,0.7,0.5,1.4,0.8,2c1.2,2.5,2.8,4.9,4.5,7.1
		c1.4,1.7,2.6,3.5,3.9,5.4s2.8,3.3,3.3,5.3c1.3,0.1,2.7-0.3,3.8-1.1h0.1c0.1-0.1-0.1-0.2-0.2-0.2c-0.8-0.4-1.4-1.1-1.6-2
		c-0.5-1.1-1-2.2-1.5-3.3c-1-2.1-2.2-4.2-3.3-6.3c-1-1.8-2-3.6-2.9-5.4c-0.4-0.8-0.8-1.2-0.5-2.1c0.3-0.7,0.7-1.3,1.2-1.9
		c1.4-2,2.7-4,4.1-6c0.6-0.7,1.1-1.5,1.4-2.4c0.3-0.9,0.2-1.9-0.3-2.7C27.1,188.5,22.3,195.8,19.5,201.5z"/>
	<path class="st22" d="M38.3,188.1c-0.2,2.4-1.8,5-3.1,6.4c-0.5,0.5-3.7,5.5-3.6,5.5c-2.9-1.5-5.7-3.4-8.3-5.4
		c-0.2-0.1-0.3-0.3-0.3-0.4c0-0.2,0-0.3,0.1-0.5c0.9-2.1,2.6-3.9,4-5.7c2-2.7,7.5-6,10.4-2.7C38.1,186,38.4,187.1,38.3,188.1z"/>
	<path class="st19" d="M33,161.5c0,0.3-0.1,0.5-0.2,0.8c-0.5,1.1-1.2,2.2-2,3c-0.6,0.9-0.8,1.9-0.7,2.9c0.4,2.2,1.3,4.3,2.8,6
		c0.3,0.4,0.6,0.8,1,1.1c0.5,0.3,1,0.5,1.6,0.7c1.4,0.6,2.9,0.9,4.4,1.2c0.7,0.1,1.5,0.2,2.2,0.2c0.7,0,1.4-0.2,2-0.6
		c0.7-0.3,1.4-0.7,2-1.2c0.6-0.6,1.2-1.2,1.7-1.9c0.4-0.5,0.8-1.1,1-1.7c0.1-0.8,0.2-1.5,0.4-2.3c0.2-0.4,0.5-0.8,0.9-1.2
		c1-1.3-0.2-3.1,0.6-4.5c0.5-0.9,1.4-1.4,1.9-2.3c0.4-0.9,0.5-1.9,0.1-2.8c-0.6-1.5-1.8-2.6-3.2-3.3c-1.6-0.8-3.7-1.1-5.1-0.1
		c-0.3,0.2-0.6,0.5-0.9,0.8c-2.3,2-5.1,0.2-7.7,1c-1.1,0.3-2,1.1-2.4,2.2C33.2,160.3,33.1,160.9,33,161.5z"/>
	<path class="st16" d="M34.9,172.1c0.2,2.9,1.7,5.5,4,7.2c1.8,1.3,4.4,2,6.5,0.9c2.7-1.5,3.4-5.3,3.5-8.1c0.1-3.3-1-7.1-4.2-8.7
		c-2.2-1.1-5.7-1.4-7.4,0.6C35.4,166.3,34.6,169.2,34.9,172.1z"/>
	<path class="st19" d="M45.5,163.2c-0.7,0-1.4,0.3-2,0.6c-1.2,0.7-2,2-3,2.8c-1.1,0.8-2.2,1.4-3.4,1.8c-0.2,0.1-0.4,0.2-0.6,0.4
		c-0.2,0.3-0.3,0.6-0.3,0.9c0,1.8,1.1,3.4,0.1,5.1c-0.1,0.2-0.2,0.3-0.4,0.5c-1,0.7-1.9-1.2-2.2-2c-0.5-1.1-0.8-2.2-0.8-3.4
		c-0.1-2.3,0.5-5.4,2.4-6.9c1.9-1.5,4.2-2.3,6.6-2.2c0.8,0,1.6,0.2,2.4,0.5c0.4,0.1,0.8,0.4,1.1,0.7c0.2,0.2,0.4,0.4,0.6,0.6
		c0,0,0.3,0.6,0.2,0.6C46,163.2,45.7,163.2,45.5,163.2z"/>
	<path class="st18" d="M41.3,175.7c1,0,2,0,3-0.1c1-0.2,2-0.5,3-0.9c0,0-0.2,1.1-0.2,1.2c-0.2,0.4-0.4,0.8-0.7,1.2
		c-1.1,1.1-2.8,1.4-4.1,0.5c-0.3-0.2-0.6-0.5-0.8-0.9C41.5,176.6,41.1,175.7,41.3,175.7z"/>
	<path class="st19" d="M45.2,168.3c0.8-0.4,1.7-0.3,2.3,0.3c0.4,0.5,1.1-0.2,0.7-0.7c-0.9-0.9-2.2-1.1-3.3-0.5
		C44.3,167.5,44.6,168.5,45.2,168.3L45.2,168.3z"/>
	<path class="st16" d="M36.1,174.2c0.6,1.1,0.5,2.3-0.2,2.7s-1.7-0.3-2.3-1.4s-0.5-2.3,0.2-2.7S35.5,173.1,36.1,174.2z"/>
	<path class="st19" d="M41,171.4c0.1,0.7-0.1,1.4-0.5,1.4s-0.8-0.5-0.9-1.2s0.1-1.4,0.5-1.4S40.8,170.7,41,171.4z"/>
	<path class="st19" d="M47,170.5c0,0.7-0.3,1.3-0.7,1.3s-0.7-0.6-0.7-1.3s0.3-1.3,0.7-1.3S47,169.8,47,170.5z"/>
	<path class="st19" d="M40.8,168c-1.4-0.2-2.7,0.5-3.2,1.8c-0.3,0.6,0.6,1.1,0.9,0.5c0.3-0.9,1.2-1.4,2.1-1.3
		C41.2,169.1,41.4,168.1,40.8,168L40.8,168z"/>
	<path class="st21" d="M288.9,257.8h141.2c9.3-10.2,10.3-23.3,0-31H288.9v3.7h4.5v23.2h-4.5V257.8z"/>
	<path class="st18" d="M293.4,253.6h134.1c6.5-5.1,6.6-18.5,0-23.2H293.4V253.6z"/>
	<path class="st24" d="M424,234.8H293.4v-4.3h134.1c6.6,4.7,6.5,18,0,23.2h-0.1C430.3,247.5,429.3,238.5,424,234.8z"/>
	<path class="st25" d="M422.2,239.4c-8.4,0.4-16.9,0.6-25.3,0.8c-8.4,0.2-16.9,0.2-25.3,0.2s-16.9-0.1-25.3-0.2s-16.9-0.4-25.3-0.8
		c8.5-0.4,16.9-0.6,25.3-0.8c8.4-0.2,16.9-0.2,25.3-0.2s16.9,0.1,25.3,0.2S413.7,239,422.2,239.4z"/>
	<path class="st25" d="M407.4,246.4c-8.4,0.4-16.9,0.6-25.3,0.8c-8.5,0.2-16.9,0.2-25.3,0.2s-16.9-0.1-25.3-0.2s-16.9-0.4-25.3-0.8
		c8.4-0.4,16.9-0.6,25.3-0.8c8.4-0.2,16.9-0.2,25.3-0.2s16.9,0.1,25.3,0.2S399,246,407.4,246.4z"/>
	<path class="st26" d="M428.4,195.8H287.2c-9.3-10.2-10.3-23.3,0-31h141.2v3.7H424v23.2h4.5V195.8z"/>
	<path class="st18" d="M424,191.7H289.8c-6.5-5.1-6.6-18.5,0-23.2H424V191.7z"/>
	<path class="st24" d="M293.2,172.8H424v-4.3H289.8c-6.6,4.7-6.5,18,0,23.2h0.1C287,185.5,288,176.5,293.2,172.8z"/>
	<path class="st25" d="M295.1,177.4c8.4-0.4,16.9-0.6,25.3-0.8c8.4-0.2,16.9-0.2,25.3-0.2s16.9,0.1,25.3,0.2s16.9,0.4,25.3,0.8
		c-8.5,0.4-16.9,0.6-25.3,0.8c-8.5,0.1-16.9,0.2-25.3,0.2s-16.9-0.1-25.3-0.2S303.6,177.8,295.1,177.4z"/>
	<path class="st25" d="M309.9,184.4c8.5-0.4,16.9-0.6,25.3-0.8c8.4-0.2,16.9-0.2,25.3-0.2s16.9,0.1,25.3,0.2s16.9,0.4,25.3,0.8
		c-8.5,0.4-16.9,0.6-25.3,0.8c-8.4,0.2-16.9,0.2-25.3,0.2s-16.9-0.1-25.3-0.2S318.3,184.8,309.9,184.4z"/>
	<path class="st17" d="M294.4,288.8h141.2c9.3-10.2,10.3-23.3,0-31H294.4v3.7h4.5v23.2h-4.5V288.8z"/>
	<path class="st22" d="M277.6,288.8h141.2c9.3-10.2,10.3-23.3,0-31H277.6v3.7h4.5v23.2h-4.5L277.6,288.8z"/>
	<path class="st18" d="M282,284.7h134.1c6.5-5.1,6.6-18.5,0-23.2H282V284.7z"/>
	<path class="st24" d="M412.7,265.8H282v-4.3h134.1c6.6,4.7,6.5,18,0,23.2H416C418.9,278.5,417.9,269.5,412.7,265.8z"/>
	<path class="st25" d="M410.8,270.4c-8.4,0.4-16.9,0.6-25.3,0.8c-8.5,0.2-16.9,0.2-25.3,0.2s-16.9-0.1-25.3-0.2s-16.9-0.4-25.3-0.8
		c8.4-0.4,16.9-0.7,25.3-0.8c8.5-0.2,16.9-0.2,25.3-0.2s16.9,0.1,25.3,0.2S402.4,270,410.8,270.4z"/>
	<path class="st25" d="M396.1,277.4c-8.5,0.4-16.9,0.6-25.3,0.8c-8.4,0.2-16.9,0.2-25.3,0.2s-16.9-0.1-25.3-0.2s-16.9-0.4-25.3-0.8
		c8.5-0.4,16.9-0.7,25.3-0.8c8.4-0.2,16.9-0.2,25.3-0.2s16.9,0.1,25.3,0.2S387.6,277,396.1,277.4z"/>
	<path class="st27" d="M294.3,165.1h141.2c9.3-10.2,10.3-23.3,0-31H294.3v3.7h4.5V161h-4.5V165.1z"/>
	<path class="st28" d="M277.4,165.1h141.2c9.3-10.2,10.3-23.3,0-31H277.4v3.7h4.5V161h-4.5V165.1z"/>
	<path class="st18" d="M281.9,161H416c6.5-5.1,6.6-18.5,0-23.2H281.9V161z"/>
	<path class="st24" d="M412.6,142.1H281.9v-4.3H416c6.6,4.7,6.5,18,0,23.2h-0.1C418.8,154.8,417.8,145.8,412.6,142.1z"/>
	<path class="st25" d="M410.7,146.7c-8.5,0.4-16.9,0.6-25.3,0.8c-8.4,0.2-16.9,0.2-25.3,0.2c-8.4,0-16.9-0.1-25.3-0.2
		s-16.9-0.4-25.3-0.8c8.5-0.4,16.9-0.7,25.3-0.8c8.4-0.2,16.9-0.2,25.3-0.2c8.4,0,16.9,0.1,25.3,0.2S402.3,146.3,410.7,146.7z"/>
	<path class="st25" d="M396,153.7c-8.5,0.4-16.9,0.6-25.3,0.8c-8.5,0.2-16.9,0.2-25.3,0.2s-16.9-0.1-25.3-0.2s-16.9-0.4-25.3-0.8
		c8.4-0.4,16.9-0.6,25.3-0.8c8.4-0.2,16.9-0.2,25.3-0.2c8.4,0,16.9,0.1,25.3,0.2S387.5,153.3,396,153.7z"/>
	<path class="st22" d="M432.8,226.9H282c-1.1,0-2-0.9-2-2v-27.4c0-1.1,0.9-2,2-2h150.8c1.1,0,2,0.9,2,2v27.4
		C434.8,226.1,433.9,226.9,432.8,226.9z"/>
	<path class="st29" d="M432.3,202.7c0-0.8-0.7-1.5-1.5-1.5H280V197c0-0.8,0.7-1.5,1.5-1.5c0,0,0,0,0,0h151.7c0.8,0,1.5,0.7,1.5,1.5
		v28.4c0,0.8-0.7,1.5-1.5,1.5h-1L432.3,202.7z"/>
	<rect x="396.1" y="195.5" class="st17" width="18.5" height="31.2"/>
	<rect x="377.8" y="199.8" class="st17" width="12" height="22.7"/>
	<path class="st21" d="M432.8,134.1H282c-1.1,0-2-0.9-2-2v-27.4c0-1.1,0.9-2,2-2h150.8c1.1,0,2,0.9,2,2v27.4
		C434.8,133.2,433.9,134.1,432.8,134.1z"/>
	<path class="st29" d="M432.3,109.8c0-0.8-0.7-1.5-1.5-1.5H280v-4.1c0-0.8,0.7-1.5,1.5-1.5l0,0h151.7c0.8,0,1.5,0.7,1.5,1.5v28.4
		c0,0.8-0.7,1.5-1.5,1.5h-1L432.3,109.8z"/>
	<rect x="396.1" y="102.7" class="st20" width="18.5" height="31.2"/>
	<rect x="377.8" y="106.9" class="st20" width="12" height="22.7"/>
	<rect x="209.9" y="274.3" class="st30" width="111.2" height="13.4"/>
	<path class="st31" d="M333.3,291.3c-22,6.4-97.6-20.1-122.5-6.1c-10.8,3.1-19.3,5.6-13.9-10.9c31.8-47.3,82.8,0,125.9-3
		C325.6,277.7,329,285.2,333.3,291.3z"/>
	<path class="st32" d="M206.4,273c3.3-3.5,7.4-6.2,11.9-7.9c4.5-1.7,9.2-2.8,14-3.3c9.7-1,19.3,0.7,28.6,3s18.3,5.7,27.4,8.4
		s18.4,4.8,28,4.9c-4.8,0.3-9.6,0.1-14.3-0.5c-4.7-0.7-9.4-1.6-14.1-2.8c-9.3-2.4-18.3-5.6-27.4-7.9c-4.6-1.2-9.2-2.2-13.9-2.8
		c-4.7-0.7-9.4-0.9-14.1-0.6c-2.3,0.2-4.7,0.4-7,0.9c-2.3,0.4-4.6,1-6.8,1.8C214,267.4,209.9,269.8,206.4,273z"/>
	<path class="st32" d="M209.4,279.2c1.9-1.4,4-2.5,6.1-3.4c2.2-0.9,4.4-1.6,6.7-2.2c4.6-1.1,9.2-1.8,13.9-2.1c9.4-0.6,18.8,0.5,28,2
		s18.3,3.8,27.4,5.6c9.1,1.9,18.4,3.1,27.7,3.4c-9.4,0.4-18.7-0.2-27.9-1.9c-9.2-1.5-18.3-3.6-27.5-5.1c-9.1-1.7-18.4-2.5-27.6-2.4
		c-4.6,0.1-9.2,0.6-13.8,1.4C217.8,275.3,213.4,276.9,209.4,279.2z"/>
	<path class="st18" d="M84.8,253.2c-4.2,5.2-6.7,9.2-12,14.7c21.8,6.4,85.6-18.4,111.4,0.8c10,2.9,12.8-1.9,12.9-10.3"/>
	<rect x="72.7" y="274.3" class="st30" width="111.2" height="13.4"/>
	<path class="st31" d="M60.5,291.3c22,6.4,97.6-20.1,122.5-6.1c10.8,3.1,19.3,5.6,13.9-10.9c-31.7-47.3-82.7,0-125.9-3
		C68.2,277.7,64.9,285.2,60.5,291.3z"/>
	<path class="st32" d="M187.5,273c-3.5-3.2-7.7-5.6-12.2-7c-2.2-0.8-4.5-1.4-6.8-1.8c-2.3-0.4-4.7-0.7-7-0.9
		c-4.7-0.3-9.4-0.1-14.1,0.6c-4.7,0.7-9.3,1.6-13.9,2.8c-9.2,2.4-18.2,5.5-27.4,7.9c-4.6,1.2-9.3,2.1-14.1,2.8
		c-4.7,0.6-9.5,0.8-14.3,0.5c9.6-0.1,18.9-2.2,28-4.9s18.1-5.9,27.4-8.4s18.9-4,28.6-3c4.8,0.4,9.5,1.5,14,3.3
		C180.1,266.8,184.2,269.5,187.5,273z"/>
	<path class="st32" d="M184.5,279.2c-4-2.3-8.4-3.8-13-4.6c-4.5-0.9-9.1-1.4-13.8-1.5c-9.3-0.1-18.5,0.7-27.7,2.5
		c-9.2,1.6-18.3,3.7-27.5,5.1c-9.2,1.7-18.6,2.3-27.9,1.9c9.3-0.3,18.6-1.5,27.7-3.4c9.1-1.8,18.2-4,27.4-5.6c9.2-1.6,18.6-2.6,28-2
		c4.7,0.2,9.4,0.9,13.9,2.1c2.3,0.6,4.5,1.3,6.7,2.2C180.5,276.7,182.6,277.8,184.5,279.2z"/>
	<path class="st30" d="M211,285.2l-8.7-8.7c-2.9-2.9-7.5-2.9-10.4,0l-8.7,8.7l13.9,7.6L211,285.2z"/>
	<path class="st33" d="M210.8,285.2l-8.7-8.7c-2.9-2.9-7.5-2.9-10.4,0c0,0,0,0,0,0l-8.7,8.7"/>
	<path class="st21" d="M333.3,288.8L226,283.5l-15.2-0.8c-1.1,0-2.1,0.8-2.4,1.8c-1.1,3-7.9,4.2-11.5,4.3c-3.2,0.1-3.2,5.1,0,5
		c5.9-0.1,14-1.6,16.3-8l-2.4,1.8l107.3,5.4l15.2,0.8C336.5,294,336.5,289,333.3,288.8L333.3,288.8z"/>
	<path class="st21" d="M60.5,293.8l107.3-5.4l15.2-0.8l-2.4-1.8c2.3,6.4,10.5,7.8,16.3,8c3.2,0.1,3.2-4.9,0-5
		c-3.6-0.1-10.4-1.3-11.5-4.3c-0.3-1.1-1.3-1.8-2.4-1.8l-107.3,5.4l-15.2,0.8C57.3,289,57.3,294,60.5,293.8L60.5,293.8z"/>
	<path class="st19" d="M289.5,131.9c-0.2-0.1-0.5-0.1-0.8-0.1c-0.3,0-0.5,0.2-0.6,0.4c0,0.1,0,0.3,0,0.4c0.2,0.8,1.1,1.1,1.8,1.3
		l8.2,2.7c0.1,0,0.3,0.1,0.4,0.1c0.1,0,0.3-0.1,0.4-0.2c0.8-0.7,1.3-1.7,1.3-2.7c0-1,0.2-2.1,0.5-3.1c0.1-0.3,0.4-0.7,0.2-1
		c-0.1-0.1-0.2-0.3-0.4-0.3c-0.8-0.5-1.7-0.9-2.5-1.2c-0.3,1-0.7,2-1.1,3C295.1,133.4,291.7,132.5,289.5,131.9z"/>
	<path class="st23" d="M327,54.3c0,0.1,0,0.1,0.1,0.2c0.1,0.1,0.2,0.1,0.3,0.1c2,0.2,4.1,0.1,6-0.4c-0.5-2.3-1.1-4.6-1.8-6.9
		c0-0.1,0-0.1-0.1-0.2c-0.1,0-0.2,0-0.3,0c-1,0.2-2,0.4-3.1,0.6c-0.9,0.2-1.7,0.3-2.6,0.5c0.3,1,0.6,2.1,0.8,3.2
		C326.6,52.3,326.8,53.3,327,54.3z"/>
	<path class="st19" d="M300.5,104.3c0.9-3,2-6,3.3-8.9c0.2-0.6,0.5-1.1,1-1.5c0.4-0.3,0.9-0.4,1.4-0.5l11.3-2.8
		c3.7-1,7.5-1.7,11.3-2.1c2.4-0.2,9.4-0.9,10.3,2c0.2,1,0,2.1-0.5,2.9c-1.8,3.3-5.5,5.1-9,6.3c-5.9,2.1-12.1,3.2-18.4,3.5
		c-3.3,9.3-5.8,18.8-8.7,28.2l-7.4-2c0,0,2.1-11.4,2.4-12.6C298.3,112.7,299.3,108.5,300.5,104.3z"/>
	<path class="st19" d="M311.8,137.5c-0.2,0.1-0.4,0.3-0.6,0.5c-0.2,0.2-0.2,0.5-0.1,0.7c0.1,0.1,0.2,0.2,0.3,0.3
		c0.8,0.2,1.6,0.1,2.2-0.4l7.6-4.2c0.1-0.1,0.2-0.1,0.3-0.2c0.1-0.1,0.1-0.3,0.1-0.4c0-1.1-0.4-2.1-1.2-2.8
		c-0.8-0.7-1.4-1.5-1.9-2.4c-0.1-0.3-0.3-0.7-0.7-0.8c-0.2,0-0.3,0-0.5,0c-0.9,0.3-1.8,0.6-2.6,1.1c0.6,0.9,1.1,1.9,1.5,2.9
		C316.8,134.4,313.7,136.4,311.8,137.5z"/>
	<path class="st16" d="M321.9,50.2c0.8,0.9,2.1,1.4,3.3,1.4c1.5-0.2,2.9-0.8,4.1-1.8c2.6-1.8,4.4-4.5,5-7.6c0.6-4.5-3.2-8.1-7.4-8.8
		c-0.5-0.1-1-0.1-1.5-0.1c-2.6,0-5.2,0.7-6.8,2.9c-1.8,2.4-1.2,6.2-0.2,8.9C319.3,46.9,320.4,48.7,321.9,50.2z"/>
	<path class="st19" d="M313.8,104.5c0.9,2.1,1.6,4.3,2.1,6.5c1.6,6,4.8,17.8,4.8,17.8l-6.6,2c-1.7-4.6-3.6-9.1-5.5-13.6
		c-0.7-1.6-1.3-3.1-2-4.7c-1.2-2.8-2.4-5.6-3.8-8.4c-1.7-3.4-2.7-6.4-2.5-10.3c0.2-2.5,1.1-4.3,3.6-4.8c2.7-0.5,5.4-0.8,8.2-1
		c1.8-0.1,3.6-0.2,5.4-0.2l12.8-0.3l6.6-0.2c1.4,0,3.3-0.5,4.6-0.3c0.6,2.3,1,5.2,0.3,7.5c-2,6.3-7.8,9.4-14.2,9.1
		c-3.8-0.2-7.5-1.2-11-2.8c-1.3-0.6-2.7-1.1-4.1-1.3C312.2,101.3,313.2,103.2,313.8,104.5z"/>
	<path class="st3" d="M322.3,87.8c3.4-0.1,19.6,0.1,19.6,0c-0.5-5.1-0.1-10.5-0.2-15.6c0.1-4.3-0.6-8.6-2-12.7
		c-1.3-3.6-3.5-7.4-7.9-7.3c-0.8,0-1.5,0.2-2.3,0.4c-3.6,1.2-5.5,4.9-6.5,8.4c-1.3,4.5-1.4,9.2-1.2,13.8c0.1,2.4-0.1,4.9,0,7.3
		C321.8,84,322,85.9,322.3,87.8z"/>
	<path class="st19" d="M328.9,45.2c0,1.4,1.5,1.8,2.3,2.9c1,1.2,1.4,2.8,1.4,4.3c-0.1,0.5-0.1,1,0,1.5c0.2,0.8,1,1.3,1.7,1.8
		c2.4,1.9,3.4,5,4.5,7.9c0.4,1.1,0.9,2.1,1.6,3c1.2,1.3,3,1.9,4.7,1.6c2.3-0.4,3.7-2.1,4.9-3.8c1.1-1.6,1.3-3.7,0.6-5.6
		c-1-2.4-3.8-4.3-3.5-7c0.1-1.1,0.8-2.1,0.9-3.3c0.3-2.2-1.3-4.2-2.9-5.7s-3.6-2.9-4.5-4.9c-0.6-1.6-0.5-3.3-1-4.9
		c-0.8-2.1-2.5-3.7-4.6-4.5c-2.1-0.8-4.3-1.1-6.5-0.9c-2.5,0.1-5,0.6-7.3,1.7c-2.3,1.1-4.2,2.9-5.3,5.1c-0.2,0.3-0.3,0.7-0.3,1.1
		c0,1.1,1.3,1.8,2.4,2.1c1.2,0.1,2.3,0.5,3.1,1.3c0.6,0.7,1,1.6,1.8,2.1c0.5,0.3,1.1,0.5,1.7,0.6c0.5,0,1-0.1,1.5-0.2
		c-0.2-0.6,0.1-1.2,0.7-1.4c0.6-0.2,1.2-0.1,1.6,0.3C330.3,41.5,328.9,43.4,328.9,45.2z"/>
	<path class="st16" d="M333.7,70.9c0.3,0.9,0.6,1.9,1,2.8l2.4,6.1c0.2,0.8,0.7,1.4,1.5,1.8c0.5,0.1,1,0.1,1.4-0.1
		c0.9-0.5,1.5-1.3,1.7-2.3c0.6-2.2-0.3-4.4-0.9-6.5c-1.2-3.8-2.7-7.4-4.4-11c-0.4-1-0.9-1.9-1.4-2.8c-0.5-0.9-1.3-1.6-2.3-2
		c-1-0.4-2.1-0.3-3,0.3c-1,0.8-0.8,1.9-0.4,3c0.8,2.4,1.8,4.7,2.9,7C332.8,68.5,333.3,69.7,333.7,70.9z"/>
	<path class="st16" d="M333.1,77.2c-4.9,0.6-9.7,1.6-14.4,2.9c-0.4,0.1-0.8,0.2-1.1,0.5c-0.7,0.6-0.7,1.6-0.1,2.3
		c0.1,0.1,0.2,0.2,0.4,0.3c0.3,0.1,0.5,0.1,0.8,0.1c2.4,0.2,4.7,0.2,7.1,0c2.5-0.2,4.9-0.5,7.4-0.8c1-0.1,2-0.3,3-0.4
		c1.3,0,2.6-0.3,3.7-0.9c0.1-0.1,0.2-0.1,0.3-0.3c0.1-0.1,0.1-0.2,0.1-0.3c0.1-0.5,0.1-1.1,0-1.6c-0.6-1.7-2.3-2.1-3.9-2
		C335.3,77,334.2,77.1,333.1,77.2z"/>
	
		<rect x="298.4" y="86.5" transform="matrix(0.9954 -9.601939e-02 9.601939e-02 0.9954 -6.9955 30.0327)" class="st21" width="20.3" height="2.4"/>
	
		<rect x="294.4" y="69.9" transform="matrix(0.9223 -0.3865 0.3865 0.9223 -7.9504 120.4991)" class="st21" width="2.4" height="20.3"/>
	<path class="st16" d="M310.7,80.5c0.3-0.1,0.7-0.2,1-0.3l2.6-0.5c0.8-0.2,1.7-0.3,2.6-0.1c0.4,0.1,0.8,0.3,1.1,0.6l1.8,1.2
		c0.1,0.6-0.2,1.2-0.7,1.6c-0.5,0.4-1,0.7-1.6,0.9c-0.4,0.2-0.8,0.3-1.2,0.5c-1.9,0.5-4-0.4-5.7-1.5l-0.4,2
		c-0.1,0.4-0.6,1.4-1.1,0.8c-0.2-0.3-0.2-0.6-0.1-0.9c0.1-0.7,0.2-1.4,0.3-2.1c0-0.4,0.1-0.9,0.3-1.3
		C309.8,81,310.2,80.7,310.7,80.5z"/>
	<path class="st3" d="M328.5,63c0.5,2,1.1,3.9,2,5.7c0.8-0.3,8.9-3.3,9.1-2.9l-2.5-5.3c-0.6-1.4-1.4-2.7-2.5-3.8
		c-1.1-1.1-2.7-1.5-4.2-1.1c-0.9,0.4-1.7,1.2-2,2.2C327.9,59.5,327.9,61.3,328.5,63z"/>
	<path class="st18" d="M323.6,47.2c-0.9,0.5-1.8,0.9-2.8,1.2c-0.1,0-0.3,0-0.4,0.1c0.4,0.6,0.9,1.2,1.5,1.7l0.4,0.3
		c0.5-0.3,0.9-0.7,1.2-1.1c0.2-0.3,0.3-0.7,0.3-1.1C323.8,48.1,323.7,47.2,323.6,47.2z"/>
	<path class="st19" d="M319.5,43.4c0.2,0.7,0.6,1.2,1,1.1s0.5-0.8,0.3-1.4s-0.6-1.2-1-1.1S319.3,42.7,319.5,43.4z"/>
	<path class="st19" d="M318.8,41.1c0.8-0.5,1.8-0.4,2.5,0.2c0.5,0.4,1.2-0.3,0.7-0.7c-1-0.9-2.5-1.1-3.7-0.4
		C317.8,40.6,318.3,41.5,318.8,41.1z"/>
	<path class="st21" d="M272.3,199.9c-13.4-15.1-36.5-16.5-51.6-3c-15.1,13.4-16.5,36.5-3,51.6c13.4,15.1,36.5,16.5,51.6,3.1
		C284.3,238.1,285.7,215,272.3,199.9C272.3,199.9,272.3,199.9,272.3,199.9z M265.5,247.3c-12.8,11.3-32.3,10.2-43.7-2.6
		c-11.3-12.8-10.2-32.3,2.6-43.7c12.8-11.3,32.3-10.2,43.7,2.6c0,0,0,0,0,0C279.4,216.4,278.2,235.9,265.5,247.3
		C265.5,247.3,265.5,247.3,265.5,247.3L265.5,247.3z"/>
	
		<rect x="278.8" y="243.3" transform="matrix(0.7478 -0.6639 0.6639 0.7478 -105.2717 253.987)" class="st21" width="5.8" height="44.5"/>
	<circle class="st34" cx="244.9" cy="224.2" r="30.9"/>
	<path class="st34" d="M268.3,203.4c2.5,2.8,4.4,6,5.7,9.5c-7.9,15.1-26.5,21-41.6,13.1c-6.7-3.5-11.9-9.4-14.6-16.4
		c7.9-15.1,26.5-21,41.6-13.1C262.8,198.2,265.8,200.6,268.3,203.4z"/>
	<path class="st19" d="M314,296.5l-5.4,4.8c-0.8,0.7-2.1,0.7-2.8-0.2l-26.9-30.3c-0.7-0.8-0.7-2.1,0.2-2.8l5.4-4.8
		c0.8-0.7,2.1-0.7,2.8,0.2l26.9,30.3C314.9,294.5,314.8,295.7,314,296.5z"/>
</g>
</svg>
